<?xml version="1.0" encoding="utf-8" standalone="no"?>
<!DOCTYPE svg PUBLIC "-//W3C//DTD SVG 1.1//EN"
  "http://www.w3.org/Graphics/SVG/1.1/DTD/svg11.dtd">
<svg xmlns:xlink="http://www.w3.org/1999/xlink" width="338.4pt" height="338.4pt" viewBox="0 0 338.4 338.4" xmlns="http://www.w3.org/2000/svg" version="1.1">
 <metadata>
  <rdf:RDF xmlns:dc="http://purl.org/dc/elements/1.1/" xmlns:cc="http://creativecommons.org/ns#" xmlns:rdf="http://www.w3.org/1999/02/22-rdf-syntax-ns#">
   <cc:Work>
    <dc:type rdf:resource="http://purl.org/dc/dcmitype/StillImage"/>
    <dc:date>2025-10-15T10:49:38.655669</dc:date>
    <dc:format>image/svg+xml</dc:format>
    <dc:creator>
     <cc:Agent>
      <dc:title>Matplotlib v3.10.0, https://matplotlib.org/</dc:title>
     </cc:Agent>
    </dc:creator>
   </cc:Work>
  </rdf:RDF>
 </metadata>
 <defs>
  <style type="text/css">*{stroke-linejoin: round; stroke-linecap: butt}</style>
 </defs>
 <g id="figure_1">
  <g id="patch_1">
   <path d="M -0 338.4 
L 338.4 338.4 
L 338.4 0 
L -0 0 
z
" style="fill: #ffffff"/>
  </g>
  <g id="patch_2">
   <path d="M 7.2 331.2 
L 331.2 331.2 
L 331.2 7.2 
L 7.2 7.2 
z
" style="fill: #ffffff"/>
  </g>
  <g id="axes_1">
   <g id="Line3DCollection_1">
    <path d="M 164.416005 112.374291 
L 142.205663 106.279338 
" clip-path="url(#pa3e56910be)" style="fill: none; stroke: #000000"/>
    <path d="M 164.416005 112.374291 
L 164.416005 112.374291 
" clip-path="url(#pa3e56910be)" style="fill: none; stroke: #000000"/>
    <path d="M 164.416005 112.374291 
L 164.416005 112.374291 
" clip-path="url(#pa3e56910be)" style="fill: none; stroke: #000000"/>
   </g>
   <g id="text_1">
    <!-- X -->
    <g transform="translate(158.982476 107.116555) scale(0.1 -0.1)">
     <defs>
      <path id="DejaVuSans-58" d="M 403 4666 
L 1081 4666 
L 2241 2931 
L 3406 4666 
L 4084 4666 
L 2584 2425 
L 4184 0 
L 3506 0 
L 2194 1984 
L 872 0 
L 191 0 
L 1856 2491 
L 403 4666 
z
" transform="scale(0.015625)"/>
     </defs>
     <use xlink:href="#DejaVuSans-58"/>
    </g>
   </g>
   <g id="text_2">
    <!-- Y -->
    <g transform="translate(122.693949 112.286219) scale(0.1 -0.1)">
     <defs>
      <path id="DejaVuSans-59" d="M -13 4666 
L 666 4666 
L 1959 2747 
L 3244 4666 
L 3922 4666 
L 2272 2222 
L 2272 0 
L 1638 0 
L 1638 2222 
L -13 4666 
z
" transform="scale(0.015625)"/>
     </defs>
     <use xlink:href="#DejaVuSans-59"/>
    </g>
   </g>
   <g id="text_3">
    <!-- Z -->
    <g transform="translate(138.409528 81.501959) scale(0.09 -0.09)">
     <defs>
      <path id="DejaVuSans-5a" d="M 359 4666 
L 4025 4666 
L 4025 4184 
L 1075 531 
L 4097 531 
L 4097 0 
L 288 0 
L 288 481 
L 3238 4134 
L 359 4134 
L 359 4666 
z
" transform="scale(0.015625)"/>
     </defs>
     <use xlink:href="#DejaVuSans-5a"/>
    </g>
   </g>
   <g id="Line3DCollection_2">
    <path d="M 141.994332 85.451372 
L 142.205663 106.279338 
" clip-path="url(#pa3e56910be)" style="fill: none; stroke: #000000"/>
    <path d="M 141.994332 85.451372 
L 141.994332 85.451372 
" clip-path="url(#pa3e56910be)" style="fill: none; stroke: #000000"/>
    <path d="M 141.994332 85.451372 
L 141.994332 85.451372 
" clip-path="url(#pa3e56910be)" style="fill: none; stroke: #000000"/>
   </g>
   <g id="Line3DCollection_3">
    <path d="M 125.547941 119.514493 
L 142.205663 106.279338 
" clip-path="url(#pa3e56910be)" style="fill: none; stroke: #000000"/>
    <path d="M 125.547941 119.514493 
L 125.547941 119.514493 
" clip-path="url(#pa3e56910be)" style="fill: none; stroke: #000000"/>
    <path d="M 125.547941 119.514493 
L 125.547941 119.514493 
" clip-path="url(#pa3e56910be)" style="fill: none; stroke: #000000"/>
   </g>
   <g id="QuadContourSet3D_1">
    <path d="M 179.395381 109.095016 
L 183.037573 112.214191 
L 186.690561 113.397419 
L 190.360898 112.71092 
L 194.037445 112.846939 
L 197.700738 115.922228 
L 201.383698 117.122091 
L 205.052381 120.428115 
L 208.762255 120.324519 
L 212.44352 123.312423 
L 216.131098 126.062221 
L 219.906146 123.245718 
L 223.662971 122.603528 
L 227.423964 122.40555 
L 231.153384 124.475405 
L 234.886211 126.644025 
L 238.642583 127.945002 
L 242.45374 127.129676 
L 246.318588 124.577852 
L 250.025954 129.029749 
L 253.874715 128.059417 
L 257.682751 129.05447 
L 261.442627 132.018509 
L 265.247863 133.578081 
L 269.125218 133.045469 
L 272.996913 133.064066 
L 276.972514 130.322158 
L 280.808041 132.098374 
L 284.641819 134.102071 
L 288.469417 136.428846 
L 292.207717 141.189298 
L 296.141093 141.056552 
" clip-path="url(#pa3e56910be)" style="fill: none; stroke: #3b4cc0; stroke-width: 1.5"/>
    <path d="M 179.393247 110.22828 
L 183.04514 109.745718 
L 186.699327 111.334996 
L 190.359606 112.948386 
L 194.038601 112.672631 
L 197.732591 111.851996 
L 201.434727 111.46744 
L 205.088293 116.916349 
L 208.768631 119.766776 
L 212.485945 119.955786 
L 216.18565 122.123773 
L 219.910334 122.967714 
L 223.624651 124.956724 
L 227.400662 123.736665 
L 231.132893 125.569357 
L 234.865082 127.702645 
L 238.65893 127.173588 
L 242.431588 128.117412 
L 246.224485 128.554233 
L 250.00504 129.869383 
L 253.833371 129.640258 
L 257.628302 131.041487 
L 261.417824 132.884087 
L 265.23489 134.011792 
L 269.104343 133.715171 
L 272.898166 136.108552 
L 276.793136 135.644692 
L 280.751298 133.720887 
L 284.545024 136.772557 
L 288.370412 139.067324 
L 292.283995 139.223621 
L 296.092243 142.27508 
" clip-path="url(#pa3e56910be)" style="fill: none; stroke: #6282ea; stroke-width: 1.5"/>
    <path d="M 179.409833 101.420501 
L 183.070671 101.416115 
L 186.715272 107.583702 
L 190.370385 110.966602 
L 194.029485 114.047506 
L 197.705098 115.365145 
L 201.410723 114.127401 
L 205.097242 116.04114 
L 208.793737 117.570477 
L 212.519421 117.307252 
L 216.201251 120.997422 
L 219.919752 122.342595 
L 223.635063 124.317367 
L 227.395512 124.030856 
L 231.164108 123.902905 
L 234.908857 125.509466 
L 238.681503 126.108403 
L 242.446275 127.462523 
L 246.239438 127.922397 
L 250.039217 128.497258 
L 253.825414 129.9445 
L 257.624792 131.169573 
L 261.408936 133.194227 
L 265.21595 134.644986 
L 269.107338 133.61906 
L 273.113401 129.472615 
L 277.042746 128.238224 
L 280.826697 131.564925 
L 284.52794 137.243908 
L 288.498059 135.665552 
L 292.301956 138.760786 
L 296.242096 138.537141 
" clip-path="url(#pa3e56910be)" style="fill: none; stroke: #8db0fe; stroke-width: 1.5"/>
    <path d="M 179.393068 110.323587 
L 183.038265 111.988523 
L 186.704826 110.041425 
L 190.361282 112.640191 
L 194.029693 114.016004 
L 197.713226 114.32645 
L 201.393078 116.082614 
L 205.087412 117.002431 
L 208.784786 118.353526 
L 212.484621 120.06057 
L 216.194009 121.52028 
L 219.9215 122.226583 
L 223.647773 123.536826 
L 227.402605 123.625663 
L 231.163129 123.955143 
L 234.925877 124.656705 
L 238.715926 124.484019 
L 242.47398 126.227159 
L 246.247332 127.588804 
L 250.064357 127.487948 
L 253.897226 127.19869 
L 257.731584 127.272437 
L 261.488087 130.432094 
L 265.271229 132.79692 
L 269.15308 132.151656 
L 273.039805 131.741644 
L 276.854234 133.831796 
L 280.681392 135.719791 
L 284.460474 139.105218 
L 288.382115 138.75542 
L 292.345637 137.635113 
L 296.195317 139.704014 
" clip-path="url(#pa3e56910be)" style="fill: none; stroke: #b9d0f9; stroke-width: 1.5"/>
    <path d="M 179.390925 111.46148 
L 183.034494 113.218808 
L 186.691262 113.232428 
L 190.35678 113.467996 
L 194.038624 112.669248 
L 197.714007 114.226667 
L 201.396717 115.679424 
L 205.081504 117.580204 
L 208.76778 119.841265 
L 212.453945 122.487634 
L 216.160665 123.927626 
L 219.884404 124.68879 
L 223.609337 125.897149 
L 227.353267 126.444046 
L 231.128433 125.807496 
L 234.909815 125.46147 
L 238.710648 124.733115 
L 242.486303 125.6777 
L 246.23598 128.068507 
L 249.963613 131.532627 
L 253.796852 131.036571 
L 257.65723 129.985807 
L 261.520143 129.313397 
L 265.34694 130.265756 
L 269.251756 128.986036 
L 273.095588 130.021797 
L 276.823218 134.752099 
L 280.676717 135.85347 
L 284.554803 136.502775 
L 288.433254 137.392601 
L 292.291317 139.034949 
L 296.132496 141.271002 
" clip-path="url(#pa3e56910be)" style="fill: none; stroke: #dddcdc; stroke-width: 1.5"/>
    <path d="M 179.395516 109.02312 
L 183.033229 113.631557 
L 186.683177 115.134754 
L 190.3539 113.997362 
L 194.01529 116.188202 
L 197.68357 118.115906 
L 201.359508 119.802519 
L 205.072554 118.45541 
L 208.781072 118.678443 
L 212.478411 120.551937 
L 216.199833 121.099807 
L 219.933215 121.449013 
L 223.671331 122.090145 
L 227.381912 124.807739 
L 231.11985 126.265723 
L 234.8902 126.444202 
L 238.669771 126.662015 
L 242.415917 128.816189 
L 246.202759 129.472286 
L 249.97759 130.97144 
L 253.778447 131.740321 
L 257.52727 134.728421 
L 261.374387 134.399913 
L 265.287254 132.26117 
L 269.154305 132.112334 
L 272.911617 135.693836 
L 276.726179 137.631453 
L 280.607503 137.832616 
L 284.547991 136.69071 
L 288.415406 137.868243 
L 292.266405 139.676928 
L 296.249508 138.352258 
" clip-path="url(#pa3e56910be)" style="fill: none; stroke: #f5c4ac; stroke-width: 1.5"/>
    <path d="M 179.387957 113.037628 
L 183.032607 113.83432 
L 186.684229 114.887221 
L 190.345315 115.575849 
L 194.022412 115.11412 
L 197.700213 115.989251 
L 201.391359 116.273122 
L 205.087244 117.018912 
L 208.790982 117.811521 
L 212.49826 118.981462 
L 216.20656 120.6141 
L 219.924222 122.045879 
L 223.665133 122.470755 
L 227.374794 125.214331 
L 231.140831 125.145572 
L 234.959678 122.963239 
L 238.814001 119.855974 
L 242.53394 123.553598 
L 246.285515 125.975399 
L 250.116636 125.389032 
L 253.892931 127.362927 
L 257.696347 128.558316 
L 261.501461 129.96536 
L 265.306574 131.61526 
L 269.150809 132.224507 
L 272.912212 135.675483 
L 276.838606 134.2955 
L 280.652942 136.533297 
L 284.469014 138.869622 
L 288.306566 140.768793 
L 292.096854 144.046218 
L 295.950211 145.817895 
" clip-path="url(#pa3e56910be)" style="fill: none; stroke: #f4987a; stroke-width: 1.5"/>
    <path d="M 179.390923 111.46234 
L 183.034113 113.34326 
L 186.687852 114.034784 
L 190.358506 113.150696 
L 194.04393 111.868985 
L 197.718696 113.627511 
L 201.406115 114.63802 
L 205.110028 114.790858 
L 208.838811 113.627395 
L 212.561452 113.981854 
L 216.237166 118.40445 
L 219.931562 121.558726 
L 223.690818 120.893458 
L 227.429904 122.066239 
L 231.155385 124.3686 
L 234.895633 126.171999 
L 238.699426 125.262655 
L 242.571497 121.878918 
L 246.322135 124.427989 
L 250.070937 127.223756 
L 253.830589 129.746613 
L 257.581271 132.757778 
L 261.459796 131.419351 
L 265.292733 132.078008 
L 269.146139 132.374325 
L 272.981624 133.535447 
L 276.791883 135.681868 
L 280.615456 137.605189 
L 284.507653 137.803594 
L 288.286012 141.316557 
L 292.152805 142.604369 
L 296.068541 142.866286 
" clip-path="url(#pa3e56910be)" style="fill: none; stroke: #dd5f4b; stroke-width: 1.5"/>
    <path clip-path="url(#pa3e56910be)" style="fill: none; stroke: #b40426; stroke-width: 1.5"/>
   </g>
   <g id="QuadContourSet3D_2">
    <path d="M 111.98813 123.019519 
L 110.061241 127.985999 
L 108.023017 127.836916 
L 106.0163 129.524796 
L 104.009417 131.493641 
L 101.980505 132.784959 
L 99.987403 135.864306 
L 97.943753 137.091415 
L 95.928621 139.730656 
L 93.855881 140.369389 
L 91.762003 140.525817 
L 89.667761 140.995097 
L 87.56407 141.433422 
L 85.518979 144.205027 
L 83.477675 147.290257 
L 81.392326 149.086403 
L 79.309881 151.200177 
L 77.212026 153.032948 
L 75.039572 152.775284 
L 72.949975 155.325269 
L 70.777681 155.606202 
L 68.496458 153.001106 
L 66.24022 151.49064 
L 64.054851 152.287078 
L 61.898544 154.115358 
L 59.906823 160.538161 
L 57.884266 166.169079 
L 55.724185 168.310601 
L 53.532358 169.82777 
L 51.286187 170.196847 
L 49.074243 171.635065 
L 46.894156 174.029735 
" clip-path="url(#pa3e56910be)" style="fill: none; stroke: #3b4cc0; stroke-width: 1.5"/>
    <path d="M 112.017896 124.505775 
L 110.027532 126.356603 
L 107.970855 125.39378 
L 105.942198 126.159053 
L 103.93377 128.158959 
L 101.982107 132.853567 
L 99.976296 135.402139 
L 97.927236 136.422923 
L 95.874502 137.598987 
L 93.825756 139.2139 
L 91.781613 141.258697 
L 89.722941 143.005582 
L 87.669287 145.172667 
L 85.548957 145.244698 
L 83.443392 146.129365 
L 81.311629 146.417247 
L 79.230139 148.62265 
L 77.151042 151.105815 
L 75.074803 153.864135 
L 72.913704 154.228485 
L 70.807531 156.489676 
L 68.656404 157.636279 
L 66.523348 159.527125 
L 64.380459 161.342561 
L 62.176207 161.683814 
L 59.994159 162.872081 
L 57.827658 164.685527 
L 55.659338 166.643445 
L 53.538754 169.989125 
L 51.365637 172.16409 
L 49.150105 173.479216 
L 46.888617 173.897518 
" clip-path="url(#pa3e56910be)" style="fill: none; stroke: #6282ea; stroke-width: 1.5"/>
    <path d="M 112.008294 124.026333 
L 109.906204 120.491927 
L 107.869881 120.664472 
L 105.80328 119.849282 
L 103.901881 126.75322 
L 101.963741 132.067194 
L 99.931884 133.553987 
L 97.845605 133.119085 
L 95.852483 136.731704 
L 93.835106 139.572515 
L 91.733187 139.448841 
L 89.722834 143.001653 
L 87.614694 143.232528 
L 85.558126 145.56271 
L 83.464639 146.84882 
L 81.389725 149.000372 
L 79.315471 151.380857 
L 77.230118 153.604666 
L 75.066702 153.61377 
L 72.964885 155.776134 
L 70.745775 154.661854 
L 68.552107 154.613781 
L 66.450534 157.460332 
L 64.345287 160.364407 
L 62.228074 163.097609 
L 60.158947 167.275817 
L 57.899149 166.559137 
L 55.768174 169.441526 
L 53.567979 170.726394 
L 51.358169 171.979171 
L 49.185466 174.338824 
L 47.04661 177.669153 
" clip-path="url(#pa3e56910be)" style="fill: none; stroke: #8db0fe; stroke-width: 1.5"/>
    <path d="M 111.999158 123.570164 
L 110.01881 125.935029 
L 107.987415 126.169402 
L 105.977815 127.776797 
L 103.96245 129.423242 
L 101.952743 131.596332 
L 99.933855 133.636001 
L 97.889412 134.892077 
L 95.863844 137.179198 
L 93.775917 137.302247 
L 91.75126 140.124315 
L 89.667228 140.975693 
L 87.61683 143.308431 
L 85.563878 145.762191 
L 83.510397 148.398265 
L 81.471221 151.695965 
L 79.373045 153.241823 
L 77.213 153.063719 
L 75.118403 155.211663 
L 72.959598 155.616277 
L 70.856472 157.938231 
L 68.732472 159.840713 
L 66.51794 159.373626 
L 64.435463 162.872278 
L 62.323499 165.69867 
L 60.13005 166.503576 
L 58.002766 169.274708 
L 55.81891 170.745899 
L 53.607207 171.715999 
L 51.485788 175.139125 
L 49.206884 174.859475 
L 46.984057 176.175868 
" clip-path="url(#pa3e56910be)" style="fill: none; stroke: #b9d0f9; stroke-width: 1.5"/>
    <path d="M 111.992731 123.249274 
L 109.99503 124.78552 
L 108.011986 127.320262 
L 106.006968 129.100964 
L 103.974187 129.940656 
L 101.908685 129.709968 
L 99.831692 129.384624 
L 97.794592 131.054439 
L 95.73057 131.929689 
L 93.685795 133.845453 
L 91.678929 137.421058 
L 89.687863 141.727502 
L 87.638002 144.060869 
L 85.55377 145.411614 
L 83.455329 146.533573 
L 81.355687 147.87452 
L 79.219919 148.292328 
L 77.156592 151.281217 
L 75.040513 152.804355 
L 72.871989 152.967031 
L 70.781514 155.719638 
L 68.550805 154.576068 
L 66.428147 156.824872 
L 64.36524 160.919301 
L 62.277893 164.455563 
L 60.095886 165.590604 
L 58.002071 169.256481 
L 55.786964 169.9246 
L 53.594009 171.383043 
L 51.443894 174.101783 
L 49.267843 176.341347 
L 47.005144 176.67926 
" clip-path="url(#pa3e56910be)" style="fill: none; stroke: #dddcdc; stroke-width: 1.5"/>
    <path d="M 111.981751 122.701024 
L 109.988797 124.484236 
L 107.993945 126.475252 
L 106.013104 129.379658 
L 103.933331 128.139635 
L 101.88629 128.751133 
L 99.865617 130.796368 
L 97.766321 129.910219 
L 95.765335 133.299056 
L 93.78475 137.641056 
L 91.755681 140.289517 
L 89.717902 142.821989 
L 87.651855 144.553176 
L 85.562621 145.718585 
L 83.470307 147.040775 
L 81.397359 149.252882 
L 79.318913 151.492102 
L 77.294269 155.631851 
L 75.027213 152.393301 
L 72.8391 151.972515 
L 70.72934 154.175424 
L 68.559672 154.833022 
L 66.505186 159.011621 
L 64.354927 160.632486 
L 62.195216 162.201977 
L 60.026952 163.748432 
L 57.890765 166.33941 
L 55.709632 167.936465 
L 53.608045 171.737127 
L 51.400123 173.017993 
L 49.213851 175.028837 
L 46.891797 173.973417 
" clip-path="url(#pa3e56910be)" style="fill: none; stroke: #f5c4ac; stroke-width: 1.5"/>
    <path d="M 111.921783 119.706772 
L 109.918958 121.108419 
L 107.95291 124.55332 
L 105.97705 127.742044 
L 103.937662 128.330521 
L 101.96067 131.935742 
L 99.92589 133.304543 
L 97.877027 134.390818 
L 95.782433 133.972532 
L 93.762798 136.799022 
L 91.733831 139.472928 
L 89.631357 139.668731 
L 87.566281 141.511984 
L 85.478939 142.81636 
L 83.448278 146.294827 
L 81.263143 144.813521 
L 79.116742 144.957323 
L 77.029244 147.256946 
L 74.993527 151.352185 
L 72.893747 153.624991 
L 70.749417 154.769663 
L 68.642661 157.238011 
L 66.602927 161.785962 
L 64.415792 162.325224 
L 62.207158 162.52747 
L 60.036141 163.993988 
L 57.856036 165.429243 
L 55.712001 167.997366 
L 53.632969 172.365887 
L 51.449891 174.250272 
L 49.248155 175.862755 
L 46.924384 174.751343 
" clip-path="url(#pa3e56910be)" style="fill: none; stroke: #f4987a; stroke-width: 1.5"/>
    <path d="M 111.952323 121.231658 
L 109.986627 124.379377 
L 107.937042 123.810106 
L 105.931373 125.667355 
L 103.981104 130.245549 
L 101.983633 132.918873 
L 99.923699 133.213376 
L 97.900884 135.356368 
L 95.808236 134.988871 
L 93.773177 137.197142 
L 91.676594 137.333805 
L 89.656078 140.569419 
L 87.614846 143.237914 
L 85.484006 142.992092 
L 83.437205 145.919886 
L 81.324601 146.846331 
L 79.174818 146.834511 
L 77.130883 150.468781 
L 74.961614 150.365862 
L 72.882513 153.285286 
L 70.718539 153.855732 
L 68.507997 153.335476 
L 66.349992 154.606486 
L 64.216691 156.78802 
L 61.895507 154.032596 
L 59.728583 155.774932 
L 57.642494 159.83279 
L 55.566966 164.268629 
L 53.406919 166.663296 
L 51.131137 166.357664 
L 48.999579 169.820011 
L 46.70302 169.466923 
" clip-path="url(#pa3e56910be)" style="fill: none; stroke: #dd5f4b; stroke-width: 1.5"/>
    <path clip-path="url(#pa3e56910be)" style="fill: none; stroke: #b40426; stroke-width: 1.5"/>
   </g>
   <g id="Poly3DCollection_1">
    <path d="M 147.935754 138.715698 
L 151.610495 134.906513 
L 155.342502 137.401877 
L 157.29508 136.493746 
L 153.579654 135.650243 
L 149.86397 133.68892 
z
" clip-path="url(#pa3e56910be)" style="fill: #1a6599; fill-opacity: 0.3; stroke: #4169e1; stroke-width: 0.5"/>
    <path d="M 155.342502 137.401877 
L 159.079393 139.989782 
L 162.816097 141.320837 
L 164.754654 139.36008 
L 161.023701 138.499118 
L 157.29508 136.493746 
z
" clip-path="url(#pa3e56910be)" style="fill: #16547f; fill-opacity: 0.3; stroke: #4169e1; stroke-width: 0.5"/>
    <path d="M 143.991264 140.312631 
L 147.703866 140.541996 
L 151.417674 139.561289 
L 153.38416 138.55342 
L 155.342502 137.401877 
L 151.610495 134.906513 
L 147.935754 138.715698 
L 145.958942 138.58874 
z
" clip-path="url(#pa3e56910be)" style="fill: #1a6598; fill-opacity: 0.3; stroke: #4169e1; stroke-width: 0.5"/>
    <path d="M 162.816097 141.320837 
L 166.551555 138.916832 
L 170.306786 139.54278 
L 172.24062 138.029955 
L 168.488625 136.952709 
L 164.754654 139.36008 
z
" clip-path="url(#pa3e56910be)" style="fill: #1b6aa0; fill-opacity: 0.3; stroke: #4169e1; stroke-width: 0.5"/>
    <path d="M 151.417674 139.561289 
L 155.166847 142.298147 
L 158.899787 140.83618 
L 160.859157 140.304584 
L 162.816097 141.320837 
L 159.079393 139.989782 
L 155.342502 137.401877 
L 153.38416 138.55342 
z
" clip-path="url(#pa3e56910be)" style="fill: #165682; fill-opacity: 0.3; stroke: #4169e1; stroke-width: 0.5"/>
    <path d="M 140.035336 143.644356 
L 143.764305 144.851195 
L 147.514039 147.592907 
L 149.483 145.529226 
L 151.417674 139.561289 
L 147.703866 140.541996 
L 143.991264 140.312631 
L 142.020092 142.319732 
z
" clip-path="url(#pa3e56910be)" style="fill: #185b8a; fill-opacity: 0.3; stroke: #4169e1; stroke-width: 0.5"/>
    <path d="M 170.306786 139.54278 
L 174.071702 136.808923 
L 177.845595 140.165836 
L 179.761453 143.743581 
L 175.999725 140.235846 
L 172.24062 138.029955 
z
" clip-path="url(#pa3e56910be)" style="fill: #165581; fill-opacity: 0.3; stroke: #4169e1; stroke-width: 0.5"/>
    <path d="M 158.899787 140.83618 
L 162.652263 140.853729 
L 166.420193 142.915041 
L 168.368052 142.031732 
L 170.306786 139.54278 
L 166.551555 138.916832 
L 162.816097 141.320837 
L 160.859157 140.304584 
z
" clip-path="url(#pa3e56910be)" style="fill: #185b89; fill-opacity: 0.3; stroke: #4169e1; stroke-width: 0.5"/>
    <path d="M 147.514039 147.592907 
L 151.253072 148.336523 
L 154.993023 147.778455 
L 156.940925 142.917335 
L 158.899787 140.83618 
L 155.166847 142.298147 
L 151.417674 139.561289 
L 149.483 145.529226 
z
" clip-path="url(#pa3e56910be)" style="fill: #1a6497; fill-opacity: 0.3; stroke: #4169e1; stroke-width: 0.5"/>
    <path d="M 177.845595 140.165836 
L 181.614327 146.422532 
L 185.393352 148.805487 
L 187.292693 150.405315 
L 183.523753 147.707945 
L 179.761453 143.743581 
z
" clip-path="url(#pa3e56910be)" style="fill: #103d5d; fill-opacity: 0.3; stroke: #4169e1; stroke-width: 0.5"/>
    <path d="M 136.066057 148.030786 
L 139.808679 149.852256 
L 143.539559 149.853109 
L 145.524885 148.117739 
L 147.514039 147.592907 
L 143.764305 144.851195 
L 140.035336 143.644356 
L 138.064519 146.770572 
z
" clip-path="url(#pa3e56910be)" style="fill: #185e8e; fill-opacity: 0.3; stroke: #4169e1; stroke-width: 0.5"/>
    <path d="M 185.393352 148.805487 
L 189.189335 148.834808 
L 192.994743 149.081353 
L 194.915114 145.463091 
L 191.093195 148.319259 
L 187.292693 150.405315 
z
" clip-path="url(#pa3e56910be)" style="fill: #185b89; fill-opacity: 0.3; stroke: #4169e1; stroke-width: 0.5"/>
    <path d="M 166.420193 142.915041 
L 170.189213 140.846087 
L 173.974243 138.059899 
L 175.914044 140.158709 
L 177.845595 140.165836 
L 174.071702 136.808923 
L 170.306786 139.54278 
L 168.368052 142.031732 
z
" clip-path="url(#pa3e56910be)" style="fill: #1b689d; fill-opacity: 0.3; stroke: #4169e1; stroke-width: 0.5"/>
    <path d="M 143.539559 149.853109 
L 147.292167 151.133001 
L 151.046179 151.576095 
L 153.028729 150.564773 
L 154.993023 147.778455 
L 151.253072 148.336523 
L 147.514039 147.592907 
L 145.524885 148.117739 
z
" clip-path="url(#pa3e56910be)" style="fill: #175a88; fill-opacity: 0.3; stroke: #4169e1; stroke-width: 0.5"/>
    <path d="M 154.993023 147.778455 
L 158.738411 145.852136 
L 162.515908 148.498899 
L 164.471311 145.953846 
L 166.420193 142.915041 
L 162.652263 140.853729 
L 158.899787 140.83618 
L 156.940925 142.917335 
z
" clip-path="url(#pa3e56910be)" style="fill: #1b669a; fill-opacity: 0.3; stroke: #4169e1; stroke-width: 0.5"/>
    <path d="M 132.0588 151.381569 
L 135.801021 152.449111 
L 139.565749 154.80545 
L 141.560169 152.776903 
L 143.539559 149.853109 
L 139.808679 149.852256 
L 136.066057 148.030786 
L 134.078837 150.713875 
z
" clip-path="url(#pa3e56910be)" style="fill: #175885; fill-opacity: 0.3; stroke: #4169e1; stroke-width: 0.5"/>
    <path d="M 173.974243 138.059899 
L 177.764914 144.118885 
L 181.549117 151.052304 
L 183.480424 148.183333 
L 185.393352 148.805487 
L 181.614327 146.422532 
L 177.845595 140.165836 
L 175.914044 140.158709 
z
" clip-path="url(#pa3e56910be)" style="fill: #103e5e; fill-opacity: 0.3; stroke: #4169e1; stroke-width: 0.5"/>
    <path d="M 192.994743 149.081353 
L 196.795545 151.285386 
L 200.614398 152.06828 
L 202.54192 147.25101 
L 198.713615 147.637489 
L 194.915114 145.463091 
z
" clip-path="url(#pa3e56910be)" style="fill: #195f8f; fill-opacity: 0.3; stroke: #4169e1; stroke-width: 0.5"/>
    <path d="M 181.549117 151.052304 
L 185.35247 151.378303 
L 189.171041 150.711117 
L 191.088834 149.507117 
L 192.994743 149.081353 
L 189.189335 148.834808 
L 185.393352 148.805487 
L 183.480424 148.183333 
z
" clip-path="url(#pa3e56910be)" style="fill: #185e8d; fill-opacity: 0.3; stroke: #4169e1; stroke-width: 0.5"/>
    <path d="M 162.515908 148.498899 
L 166.297456 151.056628 
L 170.080823 151.27596 
L 172.028076 145.566816 
L 173.974243 138.059899 
L 170.189213 140.846087 
L 166.420193 142.915041 
L 164.471311 145.953846 
z
" clip-path="url(#pa3e56910be)" style="fill: #1a6498; fill-opacity: 0.3; stroke: #4169e1; stroke-width: 0.5"/>
    <path d="M 151.046179 151.576095 
L 154.805757 151.349565 
L 158.574937 150.759797 
L 160.550626 149.996072 
L 162.515908 148.498899 
L 158.738411 145.852136 
L 154.993023 147.778455 
L 153.028729 150.564773 
z
" clip-path="url(#pa3e56910be)" style="fill: #1a6599; fill-opacity: 0.3; stroke: #4169e1; stroke-width: 0.5"/>
    <path d="M 139.565749 154.80545 
L 143.314339 155.039881 
L 147.064815 154.316787 
L 149.056671 152.653393 
L 151.046179 151.576095 
L 147.292167 151.133001 
L 143.539559 149.853109 
L 141.560169 152.776903 
z
" clip-path="url(#pa3e56910be)" style="fill: #196192; fill-opacity: 0.3; stroke: #4169e1; stroke-width: 0.5"/>
    <path d="M 127.984593 152.060656 
L 131.777891 156.025855 
L 135.532836 156.842058 
L 137.561912 156.566802 
L 139.565749 154.80545 
L 135.801021 152.449111 
L 132.0588 151.381569 
L 130.023732 151.56345 
z
" clip-path="url(#pa3e56910be)" style="fill: #15527d; fill-opacity: 0.3; stroke: #4169e1; stroke-width: 0.5"/>
    <path d="M 189.171041 150.711117 
L 192.979178 153.670464 
L 196.788011 157.009754 
L 198.699896 155.019937 
L 200.614398 152.06828 
L 196.795545 151.285386 
L 192.994743 149.081353 
L 191.088834 149.507117 
z
" clip-path="url(#pa3e56910be)" style="fill: #15507a; fill-opacity: 0.3; stroke: #4169e1; stroke-width: 0.5"/>
    <path d="M 200.614398 152.06828 
L 204.447058 152.381033 
L 208.302245 151.618034 
L 210.159289 152.735759 
L 206.369827 148.013778 
L 202.54192 147.25101 
z
" clip-path="url(#pa3e56910be)" style="fill: #1b689e; fill-opacity: 0.3; stroke: #4169e1; stroke-width: 0.5"/>
    <path d="M 170.080823 151.27596 
L 173.874475 152.137323 
L 177.677732 152.390853 
L 179.621904 149.390513 
L 181.549117 151.052304 
L 177.764914 144.118885 
L 173.974243 138.059899 
L 172.028076 145.566816 
z
" clip-path="url(#pa3e56910be)" style="fill: #1a669a; fill-opacity: 0.3; stroke: #4169e1; stroke-width: 0.5"/>
    <path d="M 158.574937 150.759797 
L 162.365254 152.559116 
L 166.157024 152.308872 
L 168.125185 153.043271 
L 170.080823 151.27596 
L 166.297456 151.056628 
L 162.515908 148.498899 
L 160.550626 149.996072 
z
" clip-path="url(#pa3e56910be)" style="fill: #165682; fill-opacity: 0.3; stroke: #4169e1; stroke-width: 0.5"/>
    <path d="M 147.064815 154.316787 
L 150.839974 155.205202 
L 154.615401 154.741438 
L 156.608899 154.653426 
L 158.574937 150.759797 
L 154.805757 151.349565 
L 151.046179 151.576095 
L 149.056671 152.653393 
z
" clip-path="url(#pa3e56910be)" style="fill: #195f8f; fill-opacity: 0.3; stroke: #4169e1; stroke-width: 0.5"/>
    <path d="M 177.677732 152.390853 
L 181.486178 154.629854 
L 185.306715 155.134365 
L 187.243878 152.448891 
L 189.171041 150.711117 
L 185.35247 151.378303 
L 181.549117 151.052304 
L 179.621904 149.390513 
z
" clip-path="url(#pa3e56910be)" style="fill: #175885; fill-opacity: 0.3; stroke: #4169e1; stroke-width: 0.5"/>
    <path d="M 135.532836 156.842058 
L 139.289577 157.035539 
L 143.069347 158.48748 
L 145.071479 156.540029 
L 147.064815 154.316787 
L 143.314339 155.039881 
L 139.565749 154.80545 
L 137.561912 156.566802 
z
" clip-path="url(#pa3e56910be)" style="fill: #185b89; fill-opacity: 0.3; stroke: #4169e1; stroke-width: 0.5"/>
    <path d="M 196.788011 157.009754 
L 200.617891 158.28077 
L 204.504475 154.749208 
L 206.401464 153.657981 
L 208.302245 151.618034 
L 204.447058 152.381033 
L 200.614398 152.06828 
L 198.699896 155.019937 
z
" clip-path="url(#pa3e56910be)" style="fill: #1a6497; fill-opacity: 0.3; stroke: #4169e1; stroke-width: 0.5"/>
    <path d="M 208.302245 151.618034 
L 212.173601 150.607831 
L 216.014958 152.735214 
L 217.895362 151.196276 
L 214.048584 149.872826 
L 210.159289 152.735759 
z
" clip-path="url(#pa3e56910be)" style="fill: #196091; fill-opacity: 0.3; stroke: #4169e1; stroke-width: 0.5"/>
    <path d="M 166.157024 152.308872 
L 169.961765 153.219325 
L 173.775059 156.951431 
L 175.729179 154.802532 
L 177.677732 152.390853 
L 173.874475 152.137323 
L 170.080823 151.27596 
L 168.125185 153.043271 
z
" clip-path="url(#pa3e56910be)" style="fill: #16547f; fill-opacity: 0.3; stroke: #4169e1; stroke-width: 0.5"/>
    <path d="M 123.91834 155.343991 
L 127.721737 159.182092 
L 131.477111 159.453531 
L 133.532214 159.935373 
L 135.532836 156.842058 
L 131.777891 156.025855 
L 127.984593 152.060656 
L 125.936543 152.526796 
z
" clip-path="url(#pa3e56910be)" style="fill: #16537d; fill-opacity: 0.3; stroke: #4169e1; stroke-width: 0.5"/>
    <path d="M 185.306715 155.134365 
L 189.132212 156.585202 
L 192.969722 157.320471 
L 194.893217 155.709455 
L 196.788011 157.009754 
L 192.979178 153.670464 
L 189.171041 150.711117 
L 187.243878 152.448891 
z
" clip-path="url(#pa3e56910be)" style="fill: #175987; fill-opacity: 0.3; stroke: #4169e1; stroke-width: 0.5"/>
    <path d="M 154.615401 154.741438 
L 158.420251 157.752713 
L 162.223518 159.410761 
L 164.193988 156.384726 
L 166.157024 152.308872 
L 162.365254 152.559116 
L 158.574937 150.759797 
L 156.608899 154.653426 
z
" clip-path="url(#pa3e56910be)" style="fill: #175885; fill-opacity: 0.3; stroke: #4169e1; stroke-width: 0.5"/>
    <path d="M 143.069347 158.48748 
L 146.850396 159.252983 
L 150.638839 159.797859 
L 152.633606 157.803569 
L 154.615401 154.741438 
L 150.839974 155.205202 
L 147.064815 154.316787 
L 145.071479 156.540029 
z
" clip-path="url(#pa3e56910be)" style="fill: #195e8f; fill-opacity: 0.3; stroke: #4169e1; stroke-width: 0.5"/>
    <path d="M 216.014958 152.735214 
L 219.857851 155.142183 
L 223.711916 157.180725 
L 225.6197 153.413599 
L 221.720596 154.375212 
L 217.895362 151.196276 
z
" clip-path="url(#pa3e56910be)" style="fill: #15517b; fill-opacity: 0.3; stroke: #4169e1; stroke-width: 0.5"/>
    <path d="M 173.775059 156.951431 
L 177.592137 159.094678 
L 181.423322 157.978384 
L 183.367129 156.962214 
L 185.306715 155.134365 
L 181.486178 154.629854 
L 177.677732 152.390853 
L 175.729179 154.802532 
z
" clip-path="url(#pa3e56910be)" style="fill: #185d8c; fill-opacity: 0.3; stroke: #4169e1; stroke-width: 0.5"/>
    <path d="M 131.477111 159.453531 
L 135.237754 159.331928 
L 139.027991 160.822998 
L 141.065594 160.884892 
L 143.069347 158.48748 
L 139.289577 157.035539 
L 135.532836 156.842058 
L 133.532214 159.935373 
z
" clip-path="url(#pa3e56910be)" style="fill: #185c8c; fill-opacity: 0.3; stroke: #4169e1; stroke-width: 0.5"/>
    <path d="M 204.504475 154.749208 
L 208.413003 151.059687 
L 212.258679 153.940496 
L 214.149029 152.706578 
L 216.014958 152.735214 
L 212.173601 150.607831 
L 208.302245 151.618034 
L 206.401464 153.657981 
z
" clip-path="url(#pa3e56910be)" style="fill: #1a6294; fill-opacity: 0.3; stroke: #4169e1; stroke-width: 0.5"/>
    <path d="M 192.969722 157.320471 
L 196.819073 157.722677 
L 200.690459 156.795399 
L 202.587632 157.180821 
L 204.504475 154.749208 
L 200.617891 158.28077 
L 196.788011 157.009754 
L 194.893217 155.709455 
z
" clip-path="url(#pa3e56910be)" style="fill: #175683; fill-opacity: 0.3; stroke: #4169e1; stroke-width: 0.5"/>
    <path d="M 162.223518 159.410761 
L 166.026762 158.291448 
L 169.846813 159.5522 
L 171.814813 158.815674 
L 173.775059 156.951431 
L 169.961765 153.219325 
L 166.157024 152.308872 
L 164.193988 156.384726 
z
" clip-path="url(#pa3e56910be)" style="fill: #1a6599; fill-opacity: 0.3; stroke: #4169e1; stroke-width: 0.5"/>
    <path d="M 150.638839 159.797859 
L 154.43408 159.890148 
L 158.257634 163.446376 
L 160.233528 159.109794 
L 162.223518 159.410761 
L 158.420251 157.752713 
L 154.615401 154.741438 
L 152.633606 157.803569 
z
" clip-path="url(#pa3e56910be)" style="fill: #175987; fill-opacity: 0.3; stroke: #4169e1; stroke-width: 0.5"/>
    <path d="M 119.853975 160.311984 
L 123.624498 161.554027 
L 127.40354 162.839814 
L 129.423959 159.781929 
L 131.477111 159.453531 
L 127.721737 159.182092 
L 123.91834 155.343991 
L 121.900132 158.477323 
z
" clip-path="url(#pa3e56910be)" style="fill: #175886; fill-opacity: 0.3; stroke: #4169e1; stroke-width: 0.5"/>
    <path d="M 181.423322 157.978384 
L 185.257952 159.597025 
L 189.092035 162.709232 
L 191.041486 158.620602 
L 192.969722 157.320471 
L 189.132212 156.585202 
L 185.306715 155.134365 
L 183.367129 156.962214 
z
" clip-path="url(#pa3e56910be)" style="fill: #175683; fill-opacity: 0.3; stroke: #4169e1; stroke-width: 0.5"/>
    <path d="M 223.711916 157.180725 
L 227.605569 157.332377 
L 231.515425 157.207817 
L 233.407817 154.099414 
L 229.484274 155.077821 
L 225.6197 153.413599 
z
" clip-path="url(#pa3e56910be)" style="fill: #196193; fill-opacity: 0.3; stroke: #4169e1; stroke-width: 0.5"/>
    <path d="M 212.258679 153.940496 
L 216.056977 160.490413 
L 219.927089 161.978214 
L 221.81187 160.229279 
L 223.711916 157.180725 
L 219.857851 155.142183 
L 216.014958 152.735214 
L 214.149029 152.706578 
z
" clip-path="url(#pa3e56910be)" style="fill: #144d75; fill-opacity: 0.3; stroke: #4169e1; stroke-width: 0.5"/>
    <path d="M 139.027991 160.822998 
L 142.841493 163.891872 
L 146.661836 167.351267 
L 148.6744 166.258912 
L 150.638839 159.797859 
L 146.850396 159.252983 
L 143.069347 158.48748 
L 141.065594 160.884892 
z
" clip-path="url(#pa3e56910be)" style="fill: #165580; fill-opacity: 0.3; stroke: #4169e1; stroke-width: 0.5"/>
    <path d="M 169.846813 159.5522 
L 173.674821 160.560167 
L 177.511945 161.186243 
L 179.467922 161.158872 
L 181.423322 157.978384 
L 177.592137 159.094678 
L 173.775059 156.951431 
L 171.814813 158.815674 
z
" clip-path="url(#pa3e56910be)" style="fill: #175885; fill-opacity: 0.3; stroke: #4169e1; stroke-width: 0.5"/>
    <path d="M 219.927089 161.978214 
L 223.799599 163.776166 
L 227.716062 163.489346 
L 229.616573 160.424375 
L 231.515425 157.207817 
L 227.605569 157.332377 
L 223.711916 157.180725 
L 221.81187 160.229279 
z
" clip-path="url(#pa3e56910be)" style="fill: #196193; fill-opacity: 0.3; stroke: #4169e1; stroke-width: 0.5"/>
    <path d="M 158.257634 163.446376 
L 162.073467 164.394365 
L 165.894884 164.091397 
L 167.873442 161.624232 
L 169.846813 159.5522 
L 166.026762 158.291448 
L 162.223518 159.410761 
L 160.233528 159.109794 
z
" clip-path="url(#pa3e56910be)" style="fill: #1a6395; fill-opacity: 0.3; stroke: #4169e1; stroke-width: 0.5"/>
    <path d="M 200.690459 156.795399 
L 204.559765 157.408626 
L 208.475926 154.784809 
L 210.346332 156.425521 
L 212.258679 153.940496 
L 208.413003 151.059687 
L 204.504475 154.749208 
L 202.587632 157.180821 
z
" clip-path="url(#pa3e56910be)" style="fill: #1b669a; fill-opacity: 0.3; stroke: #4169e1; stroke-width: 0.5"/>
    <path d="M 127.40354 162.839814 
L 131.185505 163.777884 
L 134.936751 161.619891 
L 136.991929 161.654941 
L 139.027991 160.822998 
L 135.237754 159.331928 
L 131.477111 159.453531 
L 129.423959 159.781929 
z
" clip-path="url(#pa3e56910be)" style="fill: #196193; fill-opacity: 0.3; stroke: #4169e1; stroke-width: 0.5"/>
    <path d="M 189.092035 162.709232 
L 192.964721 160.292782 
L 196.859953 157.207927 
L 198.78026 156.894244 
L 200.690459 156.795399 
L 196.819073 157.722677 
L 192.969722 157.320471 
L 191.041486 158.620602 
z
" clip-path="url(#pa3e56910be)" style="fill: #1a6599; fill-opacity: 0.3; stroke: #4169e1; stroke-width: 0.5"/>
    <path d="M 146.661836 167.351267 
L 150.44803 166.018179 
L 154.250563 164.979769 
L 156.247854 162.417378 
L 158.257634 163.446376 
L 154.43408 159.890148 
L 150.638839 159.797859 
L 148.6744 166.258912 
z
" clip-path="url(#pa3e56910be)" style="fill: #1b699f; fill-opacity: 0.3; stroke: #4169e1; stroke-width: 0.5"/>
    <path d="M 231.515425 157.207817 
L 235.445239 156.677255 
L 239.374752 156.752336 
L 241.206641 156.186872 
L 237.3091 154.845977 
L 233.407817 154.099414 
z
" clip-path="url(#pa3e56910be)" style="fill: #1a6295; fill-opacity: 0.3; stroke: #4169e1; stroke-width: 0.5"/>
    <path d="M 177.511945 161.186243 
L 181.349828 165.27392 
L 185.207386 164.45579 
L 187.154383 163.387324 
L 189.092035 162.709232 
L 185.257952 159.597025 
L 181.423322 157.978384 
L 179.467922 161.158872 
z
" clip-path="url(#pa3e56910be)" style="fill: #175986; fill-opacity: 0.3; stroke: #4169e1; stroke-width: 0.5"/>
    <path d="M 115.748027 164.33868 
L 119.51929 165.202289 
L 123.238031 162.364661 
L 125.346116 163.891452 
L 127.40354 162.839814 
L 123.624498 161.554027 
L 119.853975 160.311984 
L 117.8069 162.466821 
z
" clip-path="url(#pa3e56910be)" style="fill: #196091; fill-opacity: 0.3; stroke: #4169e1; stroke-width: 0.5"/>
    <path d="M 208.475926 154.784809 
L 212.335013 158.056162 
L 216.149848 164.6947 
L 218.067367 161.593461 
L 219.927089 161.978214 
L 216.056977 160.490413 
L 212.258679 153.940496 
L 210.346332 156.425521 
z
" clip-path="url(#pa3e56910be)" style="fill: #124466; fill-opacity: 0.3; stroke: #4169e1; stroke-width: 0.5"/>
    <path d="M 134.936751 161.619891 
L 138.758452 164.167529 
L 142.577123 165.955611 
L 144.625217 166.725176 
L 146.661836 167.351267 
L 142.841493 163.891872 
L 139.027991 160.822998 
L 136.991929 161.654941 
z
" clip-path="url(#pa3e56910be)" style="fill: #154f77; fill-opacity: 0.3; stroke: #4169e1; stroke-width: 0.5"/>
    <path d="M 165.894884 164.091397 
L 169.72803 163.613212 
L 173.573628 165.49661 
L 175.545105 164.44382 
L 177.511945 161.186243 
L 173.674821 160.560167 
L 169.846813 159.5522 
L 167.873442 161.624232 
z
" clip-path="url(#pa3e56910be)" style="fill: #195f8f; fill-opacity: 0.3; stroke: #4169e1; stroke-width: 0.5"/>
    <path d="M 227.716062 163.489346 
L 231.631659 163.884557 
L 235.584765 162.956136 
L 237.503445 158.834941 
L 239.374752 156.752336 
L 235.445239 156.677255 
L 231.515425 157.207817 
L 229.616573 160.424375 
z
" clip-path="url(#pa3e56910be)" style="fill: #1b679b; fill-opacity: 0.3; stroke: #4169e1; stroke-width: 0.5"/>
    <path d="M 216.149848 164.6947 
L 220.032236 166.554702 
L 223.952601 166.530207 
L 225.86468 163.436988 
L 227.716062 163.489346 
L 223.799599 163.776166 
L 219.927089 161.978214 
L 218.067367 161.593461 
z
" clip-path="url(#pa3e56910be)" style="fill: #175986; fill-opacity: 0.3; stroke: #4169e1; stroke-width: 0.5"/>
    <path d="M 154.250563 164.979769 
L 158.075225 165.574116 
L 161.920982 169.125366 
L 163.909567 166.229716 
L 165.894884 164.091397 
L 162.073467 164.394365 
L 158.257634 163.446376 
L 156.247854 162.417378 
z
" clip-path="url(#pa3e56910be)" style="fill: #165581; fill-opacity: 0.3; stroke: #4169e1; stroke-width: 0.5"/>
    <path d="M 239.374752 156.752336 
L 243.395226 153.35262 
L 247.2818 156.320037 
L 249.009153 159.534435 
L 245.145021 156.130773 
L 241.206641 156.186872 
z
" clip-path="url(#pa3e56910be)" style="fill: #185b89; fill-opacity: 0.3; stroke: #4169e1; stroke-width: 0.5"/>
    <path d="M 196.859953 157.207927 
L 200.701757 162.253958 
L 204.616298 160.028518 
L 206.506293 161.322602 
L 208.475926 154.784809 
L 204.559765 157.408626 
L 200.690459 156.795399 
L 198.78026 156.894244 
z
" clip-path="url(#pa3e56910be)" style="fill: #165581; fill-opacity: 0.3; stroke: #4169e1; stroke-width: 0.5"/>
    <path d="M 123.238031 162.364661 
L 127.092671 167.207475 
L 130.869876 166.624339 
L 132.90778 164.234745 
L 134.936751 161.619891 
L 131.185505 163.777884 
L 127.40354 162.839814 
L 125.346116 163.891452 
z
" clip-path="url(#pa3e56910be)" style="fill: #15517a; fill-opacity: 0.3; stroke: #4169e1; stroke-width: 0.5"/>
    <path d="M 142.577123 165.955611 
L 146.395848 167.006424 
L 150.233579 169.413692 
L 152.240847 166.583721 
L 154.250563 164.979769 
L 150.44803 166.018179 
L 146.661836 167.351267 
L 144.625217 166.725176 
z
" clip-path="url(#pa3e56910be)" style="fill: #165580; fill-opacity: 0.3; stroke: #4169e1; stroke-width: 0.5"/>
    <path d="M 173.573628 165.49661 
L 177.42368 168.992467 
L 181.280758 170.676637 
L 183.245724 167.802493 
L 185.207386 164.45579 
L 181.349828 165.27392 
L 177.511945 161.186243 
L 175.545105 164.44382 
z
" clip-path="url(#pa3e56910be)" style="fill: #16537e; fill-opacity: 0.3; stroke: #4169e1; stroke-width: 0.5"/>
    <path d="M 185.207386 164.45579 
L 189.092749 160.813844 
L 192.963928 162.628021 
L 194.927134 158.128498 
L 196.859953 157.207927 
L 192.964721 160.292782 
L 189.092035 162.709232 
L 187.154383 163.387324 
z
" clip-path="url(#pa3e56910be)" style="fill: #1a6395; fill-opacity: 0.3; stroke: #4169e1; stroke-width: 0.5"/>
    <path d="M 247.2818 156.320037 
L 251.052961 163.958674 
L 254.940408 166.95401 
L 256.826771 163.377695 
L 252.93518 160.67146 
L 249.009153 159.534435 
z
" clip-path="url(#pa3e56910be)" style="fill: #13476c; fill-opacity: 0.3; stroke: #4169e1; stroke-width: 0.5"/>
    <path d="M 111.581428 166.699234 
L 115.367232 167.848252 
L 119.09024 165.044785 
L 121.155097 162.96074 
L 123.238031 162.364661 
L 119.51929 165.202289 
L 115.748027 164.33868 
L 113.640709 164.104431 
z
" clip-path="url(#pa3e56910be)" style="fill: #185d8c; fill-opacity: 0.3; stroke: #4169e1; stroke-width: 0.5"/>
    <path d="M 161.920982 169.125366 
L 165.759728 169.082611 
L 169.611362 170.168377 
L 171.595053 167.224981 
L 173.573628 165.49661 
L 169.72803 163.613212 
L 165.894884 164.091397 
L 163.909567 166.229716 
z
" clip-path="url(#pa3e56910be)" style="fill: #1a6396; fill-opacity: 0.3; stroke: #4169e1; stroke-width: 0.5"/>
    <path d="M 223.952601 166.530207 
L 227.850753 168.39246 
L 231.813065 167.265308 
L 233.709213 164.735284 
L 235.584765 162.956136 
L 231.631659 163.884557 
L 227.716062 163.489346 
L 225.86468 163.436988 
z
" clip-path="url(#pa3e56910be)" style="fill: #185d8d; fill-opacity: 0.3; stroke: #4169e1; stroke-width: 0.5"/>
    <path d="M 204.616298 160.028518 
L 208.51192 160.938485 
L 212.396406 163.433012 
L 214.290183 163.138753 
L 216.149848 164.6947 
L 212.335013 158.056162 
L 208.475926 154.784809 
L 206.506293 161.322602 
z
" clip-path="url(#pa3e56910be)" style="fill: #175987; fill-opacity: 0.3; stroke: #4169e1; stroke-width: 0.5"/>
    <path d="M 235.584765 162.956136 
L 239.536659 162.72577 
L 243.478241 163.47265 
L 245.422422 158.18516 
L 247.2818 156.320037 
L 243.395226 153.35262 
L 239.374752 156.752336 
L 237.503445 158.834941 
z
" clip-path="url(#pa3e56910be)" style="fill: #1b699f; fill-opacity: 0.3; stroke: #4169e1; stroke-width: 0.5"/>
    <path d="M 150.233579 169.413692 
L 154.080811 172.494421 
L 157.924836 174.283774 
L 159.925485 171.646092 
L 161.920982 169.125366 
L 158.075225 165.574116 
L 154.250563 164.979769 
L 152.240847 166.583721 
z
" clip-path="url(#pa3e56910be)" style="fill: #185b8a; fill-opacity: 0.3; stroke: #4169e1; stroke-width: 0.5"/>
    <path d="M 130.869876 166.624339 
L 134.642635 164.713693 
L 138.473066 166.403613 
L 140.532219 166.420808 
L 142.577123 165.955611 
L 138.758452 164.167529 
L 134.936751 161.619891 
L 132.90778 164.234745 
z
" clip-path="url(#pa3e56910be)" style="fill: #185e8e; fill-opacity: 0.3; stroke: #4169e1; stroke-width: 0.5"/>
    <path d="M 254.940408 166.95401 
L 258.967987 165.10666 
L 262.873355 167.968469 
L 264.721155 165.54356 
L 260.867404 161.055905 
L 256.826771 163.377695 
z
" clip-path="url(#pa3e56910be)" style="fill: #1c6ba2; fill-opacity: 0.3; stroke: #4169e1; stroke-width: 0.5"/>
    <path d="M 212.396406 163.433012 
L 216.263099 167.551222 
L 220.167199 169.294953 
L 222.053354 168.533065 
L 223.952601 166.530207 
L 220.032236 166.554702 
L 216.149848 164.6947 
L 214.290183 163.138753 
z
" clip-path="url(#pa3e56910be)" style="fill: #144c73; fill-opacity: 0.3; stroke: #4169e1; stroke-width: 0.5"/>
    <path d="M 192.963928 162.628021 
L 196.856957 162.474332 
L 200.726036 166.319015 
L 202.649188 165.711084 
L 204.616298 160.028518 
L 200.701757 162.253958 
L 196.859953 157.207927 
L 194.927134 158.128498 
z
" clip-path="url(#pa3e56910be)" style="fill: #165581; fill-opacity: 0.3; stroke: #4169e1; stroke-width: 0.5"/>
    <path d="M 181.280758 170.676637 
L 185.156709 169.270474 
L 189.03429 170.486899 
L 191.012291 164.590956 
L 192.963928 162.628021 
L 189.092749 160.813844 
L 185.207386 164.45579 
L 183.245724 167.802493 
z
" clip-path="url(#pa3e56910be)" style="fill: #1c6aa1; fill-opacity: 0.3; stroke: #4169e1; stroke-width: 0.5"/>
    <path d="M 119.09024 165.044785 
L 122.916704 167.346879 
L 126.758506 170.29133 
L 128.84337 170.198838 
L 130.869876 166.624339 
L 127.092671 167.207475 
L 123.238031 162.364661 
L 121.155097 162.96074 
z
" clip-path="url(#pa3e56910be)" style="fill: #144e76; fill-opacity: 0.3; stroke: #4169e1; stroke-width: 0.5"/>
    <path d="M 243.478241 163.47265 
L 247.397664 165.528199 
L 251.313062 167.986373 
L 253.149263 166.755457 
L 254.940408 166.95401 
L 251.052961 163.958674 
L 247.2818 156.320037 
L 245.422422 158.18516 
z
" clip-path="url(#pa3e56910be)" style="fill: #16537d; fill-opacity: 0.3; stroke: #4169e1; stroke-width: 0.5"/>
    <path d="M 169.611362 170.168377 
L 173.471597 171.724191 
L 177.340441 172.32413 
L 179.315079 171.209695 
L 181.280758 170.676637 
L 177.42368 168.992467 
L 173.573628 165.49661 
L 171.595053 167.224981 
z
" clip-path="url(#pa3e56910be)" style="fill: #175986; fill-opacity: 0.3; stroke: #4169e1; stroke-width: 0.5"/>
    <path d="M 262.873355 167.968469 
L 266.731877 172.488481 
L 268.601893 169.167885 
L 264.721155 165.54356 
z
" clip-path="url(#pa3e56910be)" style="fill: #16537d; fill-opacity: 0.3; stroke: #4169e1; stroke-width: 0.5"/>
    <path d="M 138.473066 166.403613 
L 142.355737 172.479622 
L 146.192442 173.929283 
L 148.217811 171.873857 
L 150.233579 169.413692 
L 146.395848 167.006424 
L 142.577123 165.955611 
L 140.532219 166.420808 
z
" clip-path="url(#pa3e56910be)" style="fill: #154f78; fill-opacity: 0.3; stroke: #4169e1; stroke-width: 0.5"/>
    <path d="M 157.924836 174.283774 
L 161.771341 174.97313 
L 165.629542 176.455008 
L 167.622148 172.923064 
L 169.611362 170.168377 
L 165.759728 169.082611 
L 161.920982 169.125366 
L 159.925485 171.646092 
z
" clip-path="url(#pa3e56910be)" style="fill: #196193; fill-opacity: 0.3; stroke: #4169e1; stroke-width: 0.5"/>
    <path d="M 231.813065 167.265308 
L 235.814305 164.950195 
L 239.70042 168.721993 
L 241.535044 168.631832 
L 243.478241 163.47265 
L 239.536659 162.72577 
L 235.584765 162.956136 
L 233.709213 164.735284 
z
" clip-path="url(#pa3e56910be)" style="fill: #196192; fill-opacity: 0.3; stroke: #4169e1; stroke-width: 0.5"/>
    <path d="M 251.313062 167.986373 
L 255.173193 172.689343 
L 259.152392 173.160988 
L 260.969918 172.139495 
L 262.873355 167.968469 
L 258.967987 165.10666 
L 254.940408 166.95401 
L 253.149263 166.755457 
z
" clip-path="url(#pa3e56910be)" style="fill: #175986; fill-opacity: 0.3; stroke: #4169e1; stroke-width: 0.5"/>
    <path d="M 200.726036 166.319015 
L 204.612055 168.665183 
L 208.492061 172.00697 
L 210.459184 166.624242 
L 212.396406 163.433012 
L 208.51192 160.938485 
L 204.616298 160.028518 
L 202.649188 165.711084 
z
" clip-path="url(#pa3e56910be)" style="fill: #185d8c; fill-opacity: 0.3; stroke: #4169e1; stroke-width: 0.5"/>
    <path d="M 107.281583 164.408751 
L 111.117247 167.235666 
L 114.960011 170.217572 
L 117.061497 169.420065 
L 119.09024 165.044785 
L 115.367232 167.848252 
L 111.581428 166.699234 
L 109.467868 167.007934 
z
" clip-path="url(#pa3e56910be)" style="fill: #144b72; fill-opacity: 0.3; stroke: #4169e1; stroke-width: 0.5"/>
    <path d="M 220.167199 169.294953 
L 224.089233 170.387189 
L 228.010739 171.997954 
L 229.906418 170.075098 
L 231.813065 167.265308 
L 227.850753 168.39246 
L 223.952601 166.530207 
L 222.053354 168.533065 
z
" clip-path="url(#pa3e56910be)" style="fill: #175885; fill-opacity: 0.3; stroke: #4169e1; stroke-width: 0.5"/>
    <path d="M 146.192442 173.929283 
L 150.042522 176.115935 
L 153.885559 176.332607 
L 155.911755 175.758998 
L 157.924836 174.283774 
L 154.080811 172.494421 
L 150.233579 169.413692 
L 148.217811 171.873857 
z
" clip-path="url(#pa3e56910be)" style="fill: #175987; fill-opacity: 0.3; stroke: #4169e1; stroke-width: 0.5"/>
    <path d="M 189.03429 170.486899 
L 192.91628 172.318233 
L 196.813603 173.03702 
L 198.763245 170.737704 
L 200.726036 166.319015 
L 196.856957 162.474332 
L 192.963928 162.628021 
L 191.012291 164.590956 
z
" clip-path="url(#pa3e56910be)" style="fill: #1a6599; fill-opacity: 0.3; stroke: #4169e1; stroke-width: 0.5"/>
    <path d="M 126.758506 170.29133 
L 130.577083 171.33232 
L 134.412447 173.003523 
L 136.4387 169.173036 
L 138.473066 166.403613 
L 134.642635 164.713693 
L 130.869876 166.624339 
L 128.84337 170.198838 
z
" clip-path="url(#pa3e56910be)" style="fill: #196193; fill-opacity: 0.3; stroke: #4169e1; stroke-width: 0.5"/>
    <path d="M 259.152392 173.160988 
L 263.133105 173.938428 
L 264.887064 174.837319 
L 266.731877 172.488481 
L 262.873355 167.968469 
L 260.969918 172.139495 
z
" clip-path="url(#pa3e56910be)" style="fill: #15517a; fill-opacity: 0.3; stroke: #4169e1; stroke-width: 0.5"/>
    <path d="M 177.340441 172.32413 
L 181.219761 172.697487 
L 185.102934 174.822935 
L 187.07375 172.186109 
L 189.03429 170.486899 
L 185.156709 169.270474 
L 181.280758 170.676637 
L 179.315079 171.209695 
z
" clip-path="url(#pa3e56910be)" style="fill: #185c8c; fill-opacity: 0.3; stroke: #4169e1; stroke-width: 0.5"/>
    <path d="M 239.70042 168.721993 
L 243.568972 173.332015 
L 247.523194 174.423764 
L 249.436154 170.573243 
L 251.313062 167.986373 
L 247.397664 165.528199 
L 243.478241 163.47265 
L 241.535044 168.631832 
z
" clip-path="url(#pa3e56910be)" style="fill: #175986; fill-opacity: 0.3; stroke: #4169e1; stroke-width: 0.5"/>
    <path d="M 208.492061 172.00697 
L 212.420084 171.834583 
L 216.356611 171.914625 
L 218.298212 168.380163 
L 220.167199 169.294953 
L 216.263099 167.551222 
L 212.396406 163.433012 
L 210.459184 166.624242 
z
" clip-path="url(#pa3e56910be)" style="fill: #1a6294; fill-opacity: 0.3; stroke: #4169e1; stroke-width: 0.5"/>
    <path d="M 165.629542 176.455008 
L 169.494635 177.39418 
L 173.368661 176.613909 
L 175.357155 175.335337 
L 177.340441 172.32413 
L 173.471597 171.724191 
L 169.611362 170.168377 
L 167.622148 172.923064 
z
" clip-path="url(#pa3e56910be)" style="fill: #1a6295; fill-opacity: 0.3; stroke: #4169e1; stroke-width: 0.5"/>
    <path d="M 114.960011 170.217572 
L 118.790363 172.308057 
L 122.613235 173.599391 
L 124.692552 172.134241 
L 126.758506 170.29133 
L 122.916704 167.346879 
L 119.09024 165.044785 
L 117.061497 169.420065 
z
" clip-path="url(#pa3e56910be)" style="fill: #185b8a; fill-opacity: 0.3; stroke: #4169e1; stroke-width: 0.5"/>
    <path d="M 196.813603 173.03702 
L 200.713178 174.585477 
L 204.615065 176.647639 
L 206.558149 174.171708 
L 208.492061 172.00697 
L 204.612055 168.665183 
L 200.726036 166.319015 
L 198.763245 170.737704 
z
" clip-path="url(#pa3e56910be)" style="fill: #185e8e; fill-opacity: 0.3; stroke: #4169e1; stroke-width: 0.5"/>
    <path d="M 134.412447 173.003523 
L 138.240409 173.435404 
L 142.107759 176.665258 
L 144.146883 174.58095 
L 146.192442 173.929283 
L 142.355737 172.479622 
L 138.473066 166.403613 
L 136.4387 169.173036 
z
" clip-path="url(#pa3e56910be)" style="fill: #165682; fill-opacity: 0.3; stroke: #4169e1; stroke-width: 0.5"/>
    <path d="M 153.885559 176.332607 
L 157.73922 176.507306 
L 161.608843 177.933926 
L 163.625826 177.963131 
L 165.629542 176.455008 
L 161.771341 174.97313 
L 157.924836 174.283774 
L 155.911755 175.758998 
z
" clip-path="url(#pa3e56910be)" style="fill: #175a88; fill-opacity: 0.3; stroke: #4169e1; stroke-width: 0.5"/>
    <path d="M 228.010739 171.997954 
L 231.949055 173.12512 
L 235.89959 174.085586 
L 237.832751 169.981393 
L 239.70042 168.721993 
L 235.814305 164.950195 
L 231.813065 167.265308 
L 229.906418 170.075098 
z
" clip-path="url(#pa3e56910be)" style="fill: #1a6497; fill-opacity: 0.3; stroke: #4169e1; stroke-width: 0.5"/>
    <path d="M 247.523194 174.423764 
L 251.489609 175.388485 
L 255.441632 177.227344 
L 257.290047 175.550103 
L 259.152392 173.160988 
L 255.173193 172.689343 
L 251.313062 167.986373 
L 249.436154 170.573243 
z
" clip-path="url(#pa3e56910be)" style="fill: #175987; fill-opacity: 0.3; stroke: #4169e1; stroke-width: 0.5"/>
    <path d="M 185.102934 174.822935 
L 189.00215 174.991101 
L 192.900675 177.010662 
L 194.856934 175.501164 
L 196.813603 173.03702 
L 192.91628 172.318233 
L 189.03429 170.486899 
L 187.07375 172.186109 
z
" clip-path="url(#pa3e56910be)" style="fill: #185c8b; fill-opacity: 0.3; stroke: #4169e1; stroke-width: 0.5"/>
    <path d="M 216.356611 171.914625 
L 220.287948 173.073497 
L 224.224026 174.468377 
L 226.164511 170.721665 
L 228.010739 171.997954 
L 224.089233 170.387189 
L 220.167199 169.294953 
L 218.298212 168.380163 
z
" clip-path="url(#pa3e56910be)" style="fill: #175987; fill-opacity: 0.3; stroke: #4169e1; stroke-width: 0.5"/>
    <path d="M 122.613235 173.599391 
L 126.451469 175.361363 
L 130.277294 175.777463 
L 132.340418 173.784849 
L 134.412447 173.003523 
L 130.577083 171.33232 
L 126.758506 170.29133 
L 124.692552 172.134241 
z
" clip-path="url(#pa3e56910be)" style="fill: #185b8a; fill-opacity: 0.3; stroke: #4169e1; stroke-width: 0.5"/>
    <path d="M 204.615065 176.647639 
L 208.519639 179.020605 
L 212.453283 179.563421 
L 214.415019 175.136768 
L 216.356611 171.914625 
L 212.420084 171.834583 
L 208.492061 172.00697 
L 206.558149 174.171708 
z
" clip-path="url(#pa3e56910be)" style="fill: #195f90; fill-opacity: 0.3; stroke: #4169e1; stroke-width: 0.5"/>
    <path d="M 142.107759 176.665258 
L 145.954791 177.325192 
L 149.814748 178.389002 
L 151.859413 178.095819 
L 153.885559 176.332607 
L 150.042522 176.115935 
L 146.192442 173.929283 
L 144.146883 174.58095 
z
" clip-path="url(#pa3e56910be)" style="fill: #175885; fill-opacity: 0.3; stroke: #4169e1; stroke-width: 0.5"/>
    <path d="M 255.441632 177.227344 
L 259.393543 179.316996 
L 261.289852 175.799638 
L 263.133105 173.938428 
L 259.152392 173.160988 
L 257.290047 175.550103 
z
" clip-path="url(#pa3e56910be)" style="fill: #195f8f; fill-opacity: 0.3; stroke: #4169e1; stroke-width: 0.5"/>
    <path d="M 235.89959 174.085586 
L 239.84038 175.912933 
L 243.785358 177.86178 
L 245.67128 175.561259 
L 247.523194 174.423764 
L 243.568972 173.332015 
L 239.70042 168.721993 
L 237.832751 169.981393 
z
" clip-path="url(#pa3e56910be)" style="fill: #165682; fill-opacity: 0.3; stroke: #4169e1; stroke-width: 0.5"/>
    <path d="M 173.368661 176.613909 
L 177.256066 175.945809 
L 181.152814 176.851278 
L 183.130125 176.341168 
L 185.102934 174.822935 
L 181.219761 172.697487 
L 177.340441 172.32413 
L 175.357155 175.335337 
z
" clip-path="url(#pa3e56910be)" style="fill: #196192; fill-opacity: 0.3; stroke: #4169e1; stroke-width: 0.5"/>
    <path d="M 102.974294 163.741024 
L 106.776735 164.346093 
L 110.744292 172.43395 
L 112.835419 170.288529 
L 114.960011 170.217572 
L 111.117247 167.235666 
L 107.281583 164.408751 
L 105.106832 162.912559 
z
" clip-path="url(#pa3e56910be)" style="fill: #13486e; fill-opacity: 0.3; stroke: #4169e1; stroke-width: 0.5"/>
    <path d="M 161.608843 177.933926 
L 165.483367 178.264896 
L 169.36711 177.539854 
L 171.372773 177.918116 
L 173.368661 176.613909 
L 169.494635 177.39418 
L 165.629542 176.455008 
L 163.625826 177.963131 
z
" clip-path="url(#pa3e56910be)" style="fill: #175a87; fill-opacity: 0.3; stroke: #4169e1; stroke-width: 0.5"/>
    <path d="M 192.900675 177.010662 
L 196.811169 178.305713 
L 200.737769 178.733802 
L 202.684062 177.286085 
L 204.615065 176.647639 
L 200.713178 174.585477 
L 196.813603 173.03702 
L 194.856934 175.501164 
z
" clip-path="url(#pa3e56910be)" style="fill: #185c8b; fill-opacity: 0.3; stroke: #4169e1; stroke-width: 0.5"/>
    <path d="M 110.744292 172.43395 
L 114.60348 175.429845 
L 118.449829 177.515948 
L 120.537322 175.690062 
L 122.613235 173.599391 
L 118.790363 172.308057 
L 114.960011 170.217572 
L 112.835419 170.288529 
z
" clip-path="url(#pa3e56910be)" style="fill: #16537e; fill-opacity: 0.3; stroke: #4169e1; stroke-width: 0.5"/>
    <path d="M 224.224026 174.468377 
L 228.126408 178.178118 
L 232.131177 176.710281 
L 234.066526 173.012351 
L 235.89959 174.085586 
L 231.949055 173.12512 
L 228.010739 171.997954 
L 226.164511 170.721665 
z
" clip-path="url(#pa3e56910be)" style="fill: #175987; fill-opacity: 0.3; stroke: #4169e1; stroke-width: 0.5"/>
    <path d="M 243.785358 177.86178 
L 247.77615 178.219517 
L 251.72473 180.63122 
L 253.586526 178.921232 
L 255.441632 177.227344 
L 251.489609 175.388485 
L 247.523194 174.423764 
L 245.67128 175.561259 
z
" clip-path="url(#pa3e56910be)" style="fill: #185b8a; fill-opacity: 0.3; stroke: #4169e1; stroke-width: 0.5"/>
    <path d="M 130.277294 175.777463 
L 134.109646 175.90362 
L 137.9338 174.392913 
L 140.01398 174.418429 
L 142.107759 176.665258 
L 138.240409 173.435404 
L 134.412447 173.003523 
L 132.340418 173.784849 
z
" clip-path="url(#pa3e56910be)" style="fill: #195e8f; fill-opacity: 0.3; stroke: #4169e1; stroke-width: 0.5"/>
    <path d="M 149.814748 178.389002 
L 153.683522 179.461902 
L 157.560827 180.488774 
L 159.59417 180.407091 
L 161.608843 177.933926 
L 157.73922 176.507306 
L 153.885559 176.332607 
L 151.859413 178.095819 
z
" clip-path="url(#pa3e56910be)" style="fill: #185a89; fill-opacity: 0.3; stroke: #4169e1; stroke-width: 0.5"/>
    <path d="M 181.152814 176.851278 
L 185.059365 177.617635 
L 188.97019 179.443546 
L 190.937626 178.48909 
L 192.900675 177.010662 
L 189.00215 174.991101 
L 185.102934 174.822935 
L 183.130125 176.341168 
z
" clip-path="url(#pa3e56910be)" style="fill: #175a88; fill-opacity: 0.3; stroke: #4169e1; stroke-width: 0.5"/>
    <path d="M 212.453283 179.563421 
L 216.436538 177.336634 
L 220.453072 174.100574 
L 222.288298 177.676062 
L 224.224026 174.468377 
L 220.287948 173.073497 
L 216.356611 171.914625 
L 214.415019 175.136768 
z
" clip-path="url(#pa3e56910be)" style="fill: #1b689d; fill-opacity: 0.3; stroke: #4169e1; stroke-width: 0.5"/>
    <path d="M 118.449829 177.515948 
L 122.27651 178.086264 
L 126.090606 177.222993 
L 128.188178 176.494035 
L 130.277294 175.777463 
L 126.451469 175.361363 
L 122.613235 173.599391 
L 120.537322 175.690062 
z
" clip-path="url(#pa3e56910be)" style="fill: #185d8d; fill-opacity: 0.3; stroke: #4169e1; stroke-width: 0.5"/>
    <path d="M 251.72473 180.63122 
L 255.665955 183.51705 
L 257.546177 180.930378 
L 259.393543 179.316996 
L 255.441632 177.227344 
L 253.586526 178.921232 
z
" clip-path="url(#pa3e56910be)" style="fill: #175784; fill-opacity: 0.3; stroke: #4169e1; stroke-width: 0.5"/>
    <path d="M 200.737769 178.733802 
L 204.660054 180.610946 
L 208.632472 178.760805 
L 210.5356 180.136177 
L 212.453283 179.563421 
L 208.519639 179.020605 
L 204.615065 176.647639 
L 202.684062 177.286085 
z
" clip-path="url(#pa3e56910be)" style="fill: #175784; fill-opacity: 0.3; stroke: #4169e1; stroke-width: 0.5"/>
    <path d="M 232.131177 176.710281 
L 236.092073 178.122294 
L 240.07269 179.010329 
L 241.938969 178.168068 
L 243.785358 177.86178 
L 239.84038 175.912933 
L 235.89959 174.085586 
L 234.066526 173.012351 
z
" clip-path="url(#pa3e56910be)" style="fill: #175885; fill-opacity: 0.3; stroke: #4169e1; stroke-width: 0.5"/>
    <path d="M 169.36711 177.539854 
L 173.264786 181.320028 
L 177.171971 178.676935 
L 179.170074 175.754602 
L 181.152814 176.851278 
L 177.256066 175.945809 
L 173.368661 176.613909 
L 171.372773 177.918116 
z
" clip-path="url(#pa3e56910be)" style="fill: #185b89; fill-opacity: 0.3; stroke: #4169e1; stroke-width: 0.5"/>
    <path d="M 137.9338 174.392913 
L 141.841604 179.381817 
L 145.736812 183.140257 
L 147.779028 180.781152 
L 149.814748 178.389002 
L 145.954791 177.325192 
L 142.107759 176.665258 
L 140.01398 174.418429 
z
" clip-path="url(#pa3e56910be)" style="fill: #13496f; fill-opacity: 0.3; stroke: #4169e1; stroke-width: 0.5"/>
    <path d="M 188.97019 179.443546 
L 192.880544 182.430759 
L 196.822064 181.887499 
L 198.781763 180.503161 
L 200.737769 178.733802 
L 196.811169 178.305713 
L 192.900675 177.010662 
L 190.937626 178.48909 
z
" clip-path="url(#pa3e56910be)" style="fill: #175886; fill-opacity: 0.3; stroke: #4169e1; stroke-width: 0.5"/>
    <path d="M 98.848916 172.10761 
L 102.530645 167.507815 
L 106.383172 169.576331 
L 108.461979 165.990358 
L 110.744292 172.43395 
L 106.776735 164.346093 
L 102.974294 163.741024 
L 100.858047 165.60939 
z
" clip-path="url(#pa3e56910be)" style="fill: #1b699f; fill-opacity: 0.3; stroke: #4169e1; stroke-width: 0.5"/>
    <path d="M 157.560827 180.488774 
L 161.448114 181.777153 
L 165.338496 181.160424 
L 167.358912 180.64999 
L 169.36711 177.539854 
L 165.483367 178.264896 
L 161.608843 177.933926 
L 159.59417 180.407091 
z
" clip-path="url(#pa3e56910be)" style="fill: #185c8c; fill-opacity: 0.3; stroke: #4169e1; stroke-width: 0.5"/>
    <path d="M 220.453072 174.100574 
L 224.330045 180.374895 
L 228.26889 182.98112 
L 230.22967 178.391599 
L 232.131177 176.710281 
L 228.126408 178.178118 
L 224.224026 174.468377 
L 222.288298 177.676062 
z
" clip-path="url(#pa3e56910be)" style="fill: #13476c; fill-opacity: 0.3; stroke: #4169e1; stroke-width: 0.5"/>
    <path d="M 240.07269 179.010329 
L 244.015605 181.924304 
L 247.927082 186.284163 
L 249.802417 184.484926 
L 251.72473 180.63122 
L 247.77615 178.219517 
L 243.785358 177.86178 
L 241.938969 178.168068 
z
" clip-path="url(#pa3e56910be)" style="fill: #15527c; fill-opacity: 0.3; stroke: #4169e1; stroke-width: 0.5"/>
    <path d="M 106.383172 169.576331 
L 110.292574 174.068584 
L 114.221672 179.559642 
L 116.339399 178.509883 
L 118.449829 177.515948 
L 114.60348 175.429845 
L 110.744292 172.43395 
L 108.461979 165.990358 
z
" clip-path="url(#pa3e56910be)" style="fill: #124366; fill-opacity: 0.3; stroke: #4169e1; stroke-width: 0.5"/>
    <path d="M 145.736812 183.140257 
L 149.613545 184.334174 
L 153.492706 184.613246 
L 155.534712 183.325005 
L 157.560827 180.488774 
L 153.683522 179.461902 
L 149.814748 178.389002 
L 147.779028 180.781152 
z
" clip-path="url(#pa3e56910be)" style="fill: #195f8f; fill-opacity: 0.3; stroke: #4169e1; stroke-width: 0.5"/>
    <path d="M 126.090606 177.222993 
L 129.96142 179.341388 
L 133.834139 181.141459 
L 135.890692 178.107702 
L 137.9338 174.392913 
L 134.109646 175.90362 
L 130.277294 175.777463 
L 128.188178 176.494035 
z
" clip-path="url(#pa3e56910be)" style="fill: #175784; fill-opacity: 0.3; stroke: #4169e1; stroke-width: 0.5"/>
    <path d="M 208.632472 178.760805 
L 212.585052 179.736778 
L 216.550216 180.483099 
L 218.465897 179.855073 
L 220.453072 174.100574 
L 216.436538 177.336634 
L 212.453283 179.563421 
L 210.5356 180.136177 
z
" clip-path="url(#pa3e56910be)" style="fill: #175a88; fill-opacity: 0.3; stroke: #4169e1; stroke-width: 0.5"/>
    <path d="M 247.927082 186.284163 
L 251.93215 187.062915 
L 253.782597 186.025323 
L 255.665955 183.51705 
L 251.72473 180.63122 
L 249.802417 184.484926 
z
" clip-path="url(#pa3e56910be)" style="fill: #175987; fill-opacity: 0.3; stroke: #4169e1; stroke-width: 0.5"/>
    <path d="M 177.171971 178.676935 
L 181.083624 181.692649 
L 185.003611 183.537452 
L 186.995065 180.375121 
L 188.97019 179.443546 
L 185.059365 177.617635 
L 181.152814 176.851278 
L 179.170074 175.754602 
z
" clip-path="url(#pa3e56910be)" style="fill: #165681; fill-opacity: 0.3; stroke: #4169e1; stroke-width: 0.5"/>
    <path d="M 94.695223 179.992444 
L 98.467225 179.245508 
L 102.317809 181.26519 
L 104.370606 176.264383 
L 106.383172 169.576331 
L 102.530645 167.507815 
L 98.848916 172.10761 
L 96.818897 177.807948 
z
" clip-path="url(#pa3e56910be)" style="fill: #1c6ba1; fill-opacity: 0.3; stroke: #4169e1; stroke-width: 0.5"/>
    <path d="M 114.221672 179.559642 
L 118.070577 180.82591 
L 121.97194 184.673413 
L 124.025681 180.469596 
L 126.090606 177.222993 
L 122.27651 178.086264 
L 118.449829 177.515948 
L 116.339399 178.509883 
z
" clip-path="url(#pa3e56910be)" style="fill: #165682; fill-opacity: 0.3; stroke: #4169e1; stroke-width: 0.5"/>
    <path d="M 228.26889 182.98112 
L 232.2893 181.655471 
L 236.259262 183.502267 
L 238.209537 179.357056 
L 240.07269 179.010329 
L 236.092073 178.122294 
L 232.131177 176.710281 
L 230.22967 178.391599 
z
" clip-path="url(#pa3e56910be)" style="fill: #1a6294; fill-opacity: 0.3; stroke: #4169e1; stroke-width: 0.5"/>
    <path d="M 165.338496 181.160424 
L 169.244003 181.838374 
L 173.159383 181.860782 
L 175.16804 182.552949 
L 177.171971 178.676935 
L 173.264786 181.320028 
L 169.36711 177.539854 
L 167.358912 180.64999 
z
" clip-path="url(#pa3e56910be)" style="fill: #175784; fill-opacity: 0.3; stroke: #4169e1; stroke-width: 0.5"/>
    <path d="M 196.822064 181.887499 
L 200.793385 179.50562 
L 204.765531 178.797638 
L 206.68113 180.813448 
L 208.632472 178.760805 
L 204.660054 180.610946 
L 200.737769 178.733802 
L 198.781763 180.503161 
z
" clip-path="url(#pa3e56910be)" style="fill: #185d8c; fill-opacity: 0.3; stroke: #4169e1; stroke-width: 0.5"/>
    <path d="M 133.834139 181.141459 
L 137.693854 181.26493 
L 141.607822 185.438911 
L 143.683701 185.034165 
L 145.736812 183.140257 
L 141.841604 179.381817 
L 137.9338 174.392913 
L 135.890692 178.107702 
z
" clip-path="url(#pa3e56910be)" style="fill: #175885; fill-opacity: 0.3; stroke: #4169e1; stroke-width: 0.5"/>
    <path d="M 185.003611 183.537452 
L 188.913557 188.721161 
L 192.851954 189.19112 
L 194.847311 184.384162 
L 196.822064 181.887499 
L 192.880544 182.430759 
L 188.97019 179.443546 
L 186.995065 180.375121 
z
" clip-path="url(#pa3e56910be)" style="fill: #165580; fill-opacity: 0.3; stroke: #4169e1; stroke-width: 0.5"/>
    <path d="M 153.492706 184.613246 
L 157.374881 183.420828 
L 161.287757 186.129968 
L 163.316744 183.820362 
L 165.338496 181.160424 
L 161.448114 181.777153 
L 157.560827 180.488774 
L 155.534712 183.325005 
z
" clip-path="url(#pa3e56910be)" style="fill: #185d8d; fill-opacity: 0.3; stroke: #4169e1; stroke-width: 0.5"/>
    <path d="M 216.550216 180.483099 
L 220.492466 183.342159 
L 224.423662 187.116838 
L 226.370397 183.846466 
L 228.26889 182.98112 
L 224.330045 180.374895 
L 220.453072 174.100574 
L 218.465897 179.855073 
z
" clip-path="url(#pa3e56910be)" style="fill: #15527b; fill-opacity: 0.3; stroke: #4169e1; stroke-width: 0.5"/>
    <path d="M 121.97194 184.673413 
L 125.881492 188.929715 
L 129.707515 187.407322 
L 131.767604 183.849029 
L 133.834139 181.141459 
L 129.96142 179.341388 
L 126.090606 177.222993 
L 124.025681 180.469596 
z
" clip-path="url(#pa3e56910be)" style="fill: #196192; fill-opacity: 0.3; stroke: #4169e1; stroke-width: 0.5"/>
    <path d="M 102.317809 181.26519 
L 106.171402 183.137489 
L 109.98307 182.703842 
L 112.107843 181.211723 
L 114.221672 179.559642 
L 110.292574 174.068584 
L 106.383172 169.576331 
L 104.370606 176.264383 
z
" clip-path="url(#pa3e56910be)" style="fill: #1a6599; fill-opacity: 0.3; stroke: #4169e1; stroke-width: 0.5"/>
    <path d="M 90.36057 181.946849 
L 94.237246 184.894517 
L 98.078625 186.27509 
L 100.196452 183.565059 
L 102.317809 181.26519 
L 98.467225 179.245508 
L 94.695223 179.992444 
L 92.547775 181.547992 
z
" clip-path="url(#pa3e56910be)" style="fill: #175a87; fill-opacity: 0.3; stroke: #4169e1; stroke-width: 0.5"/>
    <path d="M 236.259262 183.502267 
L 240.262341 184.174262 
L 244.267801 185.183717 
L 246.053412 187.753833 
L 247.927082 186.284163 
L 244.015605 181.924304 
L 240.07269 179.010329 
L 238.209537 179.357056 
z
" clip-path="url(#pa3e56910be)" style="fill: #175a88; fill-opacity: 0.3; stroke: #4169e1; stroke-width: 0.5"/>
    <path d="M 141.607822 185.438911 
L 145.496112 186.762698 
L 149.394114 188.267319 
L 151.433038 184.549596 
L 153.492706 184.613246 
L 149.613545 184.334174 
L 145.736812 183.140257 
L 143.683701 185.034165 
z
" clip-path="url(#pa3e56910be)" style="fill: #175885; fill-opacity: 0.3; stroke: #4169e1; stroke-width: 0.5"/>
    <path d="M 173.159383 181.860782 
L 177.082763 185.077927 
L 181.017558 185.059157 
L 183.016044 183.864719 
L 185.003611 183.537452 
L 181.083624 181.692649 
L 177.171971 178.676935 
L 175.16804 182.552949 
z
" clip-path="url(#pa3e56910be)" style="fill: #165581; fill-opacity: 0.3; stroke: #4169e1; stroke-width: 0.5"/>
    <path d="M 204.765531 178.797638 
L 208.708253 181.799801 
L 212.676288 183.161672 
L 214.591329 183.697302 
L 216.550216 180.483099 
L 212.585052 179.736778 
L 208.632472 178.760805 
L 206.68113 180.813448 
z
" clip-path="url(#pa3e56910be)" style="fill: #15527c; fill-opacity: 0.3; stroke: #4169e1; stroke-width: 0.5"/>
    <path d="M 244.267801 185.183717 
L 248.326211 184.43886 
L 250.139004 185.563113 
L 251.93215 187.062915 
L 247.927082 186.284163 
L 246.053412 187.753833 
z
" clip-path="url(#pa3e56910be)" style="fill: #165682; fill-opacity: 0.3; stroke: #4169e1; stroke-width: 0.5"/>
    <path d="M 109.98307 182.703842 
L 113.804619 182.133176 
L 117.647516 182.012434 
L 119.814501 183.280146 
L 121.97194 184.673413 
L 118.070577 180.82591 
L 114.221672 179.559642 
L 112.107843 181.211723 
z
" clip-path="url(#pa3e56910be)" style="fill: #185d8c; fill-opacity: 0.3; stroke: #4169e1; stroke-width: 0.5"/>
    <path d="M 224.423662 187.116838 
L 228.465205 184.942886 
L 232.541293 181.915531 
L 234.415434 182.197217 
L 236.259262 183.502267 
L 232.2893 181.655471 
L 228.26889 182.98112 
L 226.370397 183.846466 
z
" clip-path="url(#pa3e56910be)" style="fill: #1b669a; fill-opacity: 0.3; stroke: #4169e1; stroke-width: 0.5"/>
    <path d="M 192.851954 189.19112 
L 196.816153 187.696039 
L 200.802469 185.508552 
L 202.766402 184.212543 
L 204.765531 178.797638 
L 200.793385 179.50562 
L 196.822064 181.887499 
L 194.847311 184.384162 
z
" clip-path="url(#pa3e56910be)" style="fill: #1c6da4; fill-opacity: 0.3; stroke: #4169e1; stroke-width: 0.5"/>
    <path d="M 129.707515 187.407322 
L 133.547672 185.782164 
L 137.446343 187.713192 
L 139.524948 186.028066 
L 141.607822 185.438911 
L 137.693854 181.26493 
L 133.834139 181.141459 
L 131.767604 183.849029 
z
" clip-path="url(#pa3e56910be)" style="fill: #1a6598; fill-opacity: 0.3; stroke: #4169e1; stroke-width: 0.5"/>
    <path d="M 98.078625 186.27509 
L 101.937351 188.049552 
L 105.772426 188.463107 
L 107.897852 186.369952 
L 109.98307 182.703842 
L 106.171402 183.137489 
L 102.317809 181.26519 
L 100.196452 183.565059 
z
" clip-path="url(#pa3e56910be)" style="fill: #185d8d; fill-opacity: 0.3; stroke: #4169e1; stroke-width: 0.5"/>
    <path d="M 161.287757 186.129968 
L 165.194639 184.988713 
L 169.113928 182.252558 
L 171.143247 184.57748 
L 173.159383 181.860782 
L 169.244003 181.838374 
L 165.338496 181.160424 
L 163.316744 183.820362 
z
" clip-path="url(#pa3e56910be)" style="fill: #1a6396; fill-opacity: 0.3; stroke: #4169e1; stroke-width: 0.5"/>
    <path d="M 181.017558 185.059157 
L 184.964172 185.066222 
L 188.91941 185.717119 
L 190.89492 186.843314 
L 192.851954 189.19112 
L 188.913557 188.721161 
L 185.003611 183.537452 
L 183.016044 183.864719 
z
" clip-path="url(#pa3e56910be)" style="fill: #155079; fill-opacity: 0.3; stroke: #4169e1; stroke-width: 0.5"/>
    <path d="M 149.394114 188.267319 
L 153.288813 188.12028 
L 157.194716 187.799066 
L 159.246704 187.232984 
L 161.287757 186.129968 
L 157.374881 183.420828 
L 153.492706 184.613246 
L 151.433038 184.549596 
z
" clip-path="url(#pa3e56910be)" style="fill: #1a6396; fill-opacity: 0.3; stroke: #4169e1; stroke-width: 0.5"/>
    <path d="M 117.647516 182.012434 
L 121.604096 187.786454 
L 125.514076 190.842145 
L 127.594479 187.813264 
L 129.707515 187.407322 
L 125.881492 188.929715 
L 121.97194 184.673413 
L 119.814501 183.280146 
z
" clip-path="url(#pa3e56910be)" style="fill: #114365; fill-opacity: 0.3; stroke: #4169e1; stroke-width: 0.5"/>
    <path d="M 212.676288 183.161672 
L 216.650551 184.676149 
L 220.617882 187.149153 
L 222.579527 183.789345 
L 224.423662 187.116838 
L 220.492466 183.342159 
L 216.550216 180.483099 
L 214.591329 183.697302 
z
" clip-path="url(#pa3e56910be)" style="fill: #16547f; fill-opacity: 0.3; stroke: #4169e1; stroke-width: 0.5"/>
    <path d="M 86.047939 185.863382 
L 89.947502 189.262387 
L 93.795867 190.622404 
L 95.955387 189.01574 
L 98.078625 186.27509 
L 94.237246 184.894517 
L 90.36057 181.946849 
L 88.194287 183.423154 
z
" clip-path="url(#pa3e56910be)" style="fill: #165581; fill-opacity: 0.3; stroke: #4169e1; stroke-width: 0.5"/>
    <path d="M 137.446343 187.713192 
L 141.358038 190.232062 
L 145.270478 192.27385 
L 147.352377 192.177049 
L 149.394114 188.267319 
L 145.496112 186.762698 
L 141.607822 185.438911 
L 139.524948 186.028066 
z
" clip-path="url(#pa3e56910be)" style="fill: #165681; fill-opacity: 0.3; stroke: #4169e1; stroke-width: 0.5"/>
    <path d="M 232.541293 181.915531 
L 236.499098 185.520176 
L 240.506048 187.027413 
L 242.385419 186.335624 
L 244.267801 185.183717 
L 240.262341 184.174262 
L 236.259262 183.502267 
L 234.415434 182.197217 
z
" clip-path="url(#pa3e56910be)" style="fill: #144e76; fill-opacity: 0.3; stroke: #4169e1; stroke-width: 0.5"/>
    <path d="M 169.113928 182.252558 
L 173.053427 186.466856 
L 176.995666 189.04108 
L 179.007661 188.318534 
L 181.017558 185.059157 
L 177.082763 185.077927 
L 173.159383 181.860782 
L 171.143247 184.57748 
z
" clip-path="url(#pa3e56910be)" style="fill: #144b72; fill-opacity: 0.3; stroke: #4169e1; stroke-width: 0.5"/>
    <path d="M 125.514076 190.842145 
L 129.384999 190.979827 
L 133.29807 193.413227 
L 135.385177 191.35497 
L 137.446343 187.713192 
L 133.547672 185.782164 
L 129.707515 187.407322 
L 127.594479 187.813264 
z
" clip-path="url(#pa3e56910be)" style="fill: #196092; fill-opacity: 0.3; stroke: #4169e1; stroke-width: 0.5"/>
    <path d="M 200.802469 185.508552 
L 204.784298 185.46911 
L 208.808383 182.852644 
L 210.790513 179.471769 
L 212.676288 183.161672 
L 208.708253 181.799801 
L 204.765531 178.797638 
L 202.766402 184.212543 
z
" clip-path="url(#pa3e56910be)" style="fill: #196294; fill-opacity: 0.3; stroke: #4169e1; stroke-width: 0.5"/>
    <path d="M 105.772426 188.463107 
L 109.605243 188.275937 
L 113.404955 185.8261 
L 115.507427 182.752922 
L 117.647516 182.012434 
L 113.804619 182.133176 
L 109.98307 182.703842 
L 107.897852 186.369952 
z
" clip-path="url(#pa3e56910be)" style="fill: #1b679c; fill-opacity: 0.3; stroke: #4169e1; stroke-width: 0.5"/>
    <path d="M 220.617882 187.149153 
L 224.607195 188.651335 
L 228.622348 189.186138 
L 230.545315 187.59201 
L 232.541293 181.915531 
L 228.465205 184.942886 
L 224.423662 187.116838 
L 222.579527 183.789345 
z
" clip-path="url(#pa3e56910be)" style="fill: #185b8a; fill-opacity: 0.3; stroke: #4169e1; stroke-width: 0.5"/>
    <path d="M 188.91941 185.717119 
L 192.892887 185.123544 
L 196.850439 188.348134 
L 198.829668 186.979717 
L 200.802469 185.508552 
L 196.816153 187.696039 
L 192.851954 189.19112 
L 190.89492 186.843314 
z
" clip-path="url(#pa3e56910be)" style="fill: #15517b; fill-opacity: 0.3; stroke: #4169e1; stroke-width: 0.5"/>
    <path d="M 93.795867 190.622404 
L 97.602582 190.013139 
L 101.443226 190.270702 
L 103.618911 189.652964 
L 105.772426 188.463107 
L 101.937351 188.049552 
L 98.078625 186.27509 
L 95.955387 189.01574 
z
" clip-path="url(#pa3e56910be)" style="fill: #185e8e; fill-opacity: 0.3; stroke: #4169e1; stroke-width: 0.5"/>
    <path d="M 157.194716 187.799066 
L 161.121786 189.532267 
L 165.055206 190.911665 
L 167.082918 184.975527 
L 169.113928 182.252558 
L 165.194639 184.988713 
L 161.287757 186.129968 
L 159.246704 187.232984 
z
" clip-path="url(#pa3e56910be)" style="fill: #185b8a; fill-opacity: 0.3; stroke: #4169e1; stroke-width: 0.5"/>
    <path d="M 145.270478 192.27385 
L 149.179865 193.139292 
L 153.100343 194.224427 
L 155.159985 192.618358 
L 157.194716 187.799066 
L 153.288813 188.12028 
L 149.394114 188.267319 
L 147.352377 192.177049 
z
" clip-path="url(#pa3e56910be)" style="fill: #195f90; fill-opacity: 0.3; stroke: #4169e1; stroke-width: 0.5"/>
    <path d="M 240.506048 187.027413 
L 244.52702 188.286923 
L 246.469808 184.706444 
L 248.326211 184.43886 
L 244.267801 185.183717 
L 242.385419 186.335624 
z
" clip-path="url(#pa3e56910be)" style="fill: #196192; fill-opacity: 0.3; stroke: #4169e1; stroke-width: 0.5"/>
    <path d="M 176.995666 189.04108 
L 180.951783 188.0684 
L 184.915587 188.921057 
L 186.924262 186.602618 
L 188.91941 185.717119 
L 184.964172 185.066222 
L 181.017558 185.059157 
L 179.007661 188.318534 
z
" clip-path="url(#pa3e56910be)" style="fill: #196192; fill-opacity: 0.3; stroke: #4169e1; stroke-width: 0.5"/>
    <path d="M 133.29807 193.413227 
L 137.200022 194.475859 
L 141.124803 196.811402 
L 143.206953 195.13603 
L 145.270478 192.27385 
L 141.358038 190.232062 
L 137.446343 187.713192 
L 135.385177 191.35497 
z
" clip-path="url(#pa3e56910be)" style="fill: #185c8b; fill-opacity: 0.3; stroke: #4169e1; stroke-width: 0.5"/>
    <path d="M 113.404955 185.8261 
L 117.350407 190.21251 
L 121.278743 193.590008 
L 123.40133 192.270435 
L 125.514076 190.842145 
L 121.604096 187.786454 
L 117.647516 182.012434 
L 115.507427 182.752922 
z
" clip-path="url(#pa3e56910be)" style="fill: #144c73; fill-opacity: 0.3; stroke: #4169e1; stroke-width: 0.5"/>
    <path d="M 208.808383 182.852644 
L 212.778277 185.865035 
L 216.796856 185.771782 
L 218.693016 187.746245 
L 220.617882 187.149153 
L 216.650551 184.676149 
L 212.676288 183.161672 
L 210.790513 179.471769 
z
" clip-path="url(#pa3e56910be)" style="fill: #15517b; fill-opacity: 0.3; stroke: #4169e1; stroke-width: 0.5"/>
    <path d="M 228.622348 189.186138 
L 232.661477 189.048639 
L 236.655481 191.664231 
L 238.523996 192.109129 
L 240.506048 187.027413 
L 236.499098 185.520176 
L 232.541293 181.915531 
L 230.545315 187.59201 
z
" clip-path="url(#pa3e56910be)" style="fill: #185e8e; fill-opacity: 0.3; stroke: #4169e1; stroke-width: 0.5"/>
    <path d="M 101.443226 190.270702 
L 105.36517 193.625405 
L 109.247892 195.004699 
L 111.355548 191.737594 
L 113.404955 185.8261 
L 109.605243 188.275937 
L 105.772426 188.463107 
L 103.618911 189.652964 
z
" clip-path="url(#pa3e56910be)" style="fill: #175884; fill-opacity: 0.3; stroke: #4169e1; stroke-width: 0.5"/>
    <path d="M 165.055206 190.911665 
L 168.998096 193.049928 
L 172.94693 193.224086 
L 174.974891 190.537456 
L 176.995666 189.04108 
L 173.053427 186.466856 
L 169.113928 182.252558 
L 167.082918 184.975527 
z
" clip-path="url(#pa3e56910be)" style="fill: #195f90; fill-opacity: 0.3; stroke: #4169e1; stroke-width: 0.5"/>
    <path d="M 121.278743 193.590008 
L 125.193277 195.92173 
L 129.10332 197.561065 
L 131.207792 195.741665 
L 133.29807 193.413227 
L 129.384999 190.979827 
L 125.514076 190.842145 
L 123.40133 192.270435 
z
" clip-path="url(#pa3e56910be)" style="fill: #175a88; fill-opacity: 0.3; stroke: #4169e1; stroke-width: 0.5"/>
    <path d="M 196.850439 188.348134 
L 200.805835 192.201053 
L 204.8316 189.460446 
L 206.815865 186.749255 
L 208.808383 182.852644 
L 204.784298 185.46911 
L 200.802469 185.508552 
L 198.829668 186.979717 
z
" clip-path="url(#pa3e56910be)" style="fill: #185d8d; fill-opacity: 0.3; stroke: #4169e1; stroke-width: 0.5"/>
    <path d="M 153.100343 194.224427 
L 157.029335 195.210185 
L 160.96278 195.02677 
L 163.013442 193.268824 
L 165.055206 190.911665 
L 161.121786 189.532267 
L 157.194716 187.799066 
L 155.159985 192.618358 
z
" clip-path="url(#pa3e56910be)" style="fill: #196193; fill-opacity: 0.3; stroke: #4169e1; stroke-width: 0.5"/>
    <path d="M 216.796856 185.771782 
L 220.718555 192.649703 
L 224.753172 192.53174 
L 226.712514 189.649442 
L 228.622348 189.186138 
L 224.607195 188.651335 
L 220.617882 187.149153 
L 218.693016 187.746245 
z
" clip-path="url(#pa3e56910be)" style="fill: #144b72; fill-opacity: 0.3; stroke: #4169e1; stroke-width: 0.5"/>
    <path d="M 236.655481 191.664231 
L 240.668247 193.675237 
L 242.562028 192.649665 
L 244.52702 188.286923 
L 240.506048 187.027413 
L 238.523996 192.109129 
z
" clip-path="url(#pa3e56910be)" style="fill: #16547f; fill-opacity: 0.3; stroke: #4169e1; stroke-width: 0.5"/>
    <path d="M 141.124803 196.811402 
L 145.020347 195.463707 
L 148.959572 197.558092 
L 151.026479 194.932313 
L 153.100343 194.224427 
L 149.179865 193.139292 
L 145.270478 192.27385 
L 143.206953 195.13603 
z
" clip-path="url(#pa3e56910be)" style="fill: #195f90; fill-opacity: 0.3; stroke: #4169e1; stroke-width: 0.5"/>
    <path d="M 184.915587 188.921057 
L 188.882816 191.026959 
L 192.858558 192.823071 
L 194.850091 191.654641 
L 196.850439 188.348134 
L 192.892887 185.123544 
L 188.91941 185.717119 
L 186.924262 186.602618 
z
" clip-path="url(#pa3e56910be)" style="fill: #185c8b; fill-opacity: 0.3; stroke: #4169e1; stroke-width: 0.5"/>
    <path d="M 109.247892 195.004699 
L 113.183484 198.603213 
L 117.053898 198.610284 
L 119.161461 195.652612 
L 121.278743 193.590008 
L 117.350407 190.21251 
L 113.404955 185.8261 
L 111.355548 191.737594 
z
" clip-path="url(#pa3e56910be)" style="fill: #195e8f; fill-opacity: 0.3; stroke: #4169e1; stroke-width: 0.5"/>
    <path d="M 172.94693 193.224086 
L 176.907003 193.690205 
L 180.873988 195.77471 
L 182.891044 194.334454 
L 184.915587 188.921057 
L 180.951783 188.0684 
L 176.995666 189.04108 
L 174.974891 190.537456 
z
" clip-path="url(#pa3e56910be)" style="fill: #196092; fill-opacity: 0.3; stroke: #4169e1; stroke-width: 0.5"/>
    <path d="M 129.10332 197.561065 
L 133.018571 199.02375 
L 136.95325 201.414121 
L 139.022954 197.427387 
L 141.124803 196.811402 
L 137.200022 194.475859 
L 133.29807 193.413227 
L 131.207792 195.741665 
z
" clip-path="url(#pa3e56910be)" style="fill: #185b89; fill-opacity: 0.3; stroke: #4169e1; stroke-width: 0.5"/>
    <path d="M 160.96278 195.02677 
L 164.913375 196.461495 
L 168.87274 198.214485 
L 170.912009 194.689173 
L 172.94693 193.224086 
L 168.998096 193.049928 
L 165.055206 190.911665 
L 163.013442 193.268824 
z
" clip-path="url(#pa3e56910be)" style="fill: #175987; fill-opacity: 0.3; stroke: #4169e1; stroke-width: 0.5"/>
    <path d="M 192.858558 192.823071 
L 196.841591 194.630419 
L 200.82059 197.69534 
L 202.813775 195.04029 
L 204.8316 189.460446 
L 200.805835 192.201053 
L 196.850439 188.348134 
L 194.850091 191.654641 
z
" clip-path="url(#pa3e56910be)" style="fill: #165580; fill-opacity: 0.3; stroke: #4169e1; stroke-width: 0.5"/>
    <path d="M 204.8316 189.460446 
L 208.856815 188.428618 
L 212.820862 193.228884 
L 214.824625 188.505674 
L 216.796856 185.771782 
L 212.778277 185.865035 
L 208.808383 182.852644 
L 206.815865 186.749255 
z
" clip-path="url(#pa3e56910be)" style="fill: #185c8b; fill-opacity: 0.3; stroke: #4169e1; stroke-width: 0.5"/>
    <path d="M 224.753172 192.53174 
L 228.768191 194.166902 
L 232.828008 193.932754 
L 234.74679 192.73332 
L 236.655481 191.664231 
L 232.661477 189.048639 
L 228.622348 189.186138 
L 226.712514 189.649442 
z
" clip-path="url(#pa3e56910be)" style="fill: #195e8f; fill-opacity: 0.3; stroke: #4169e1; stroke-width: 0.5"/>
    <path d="M 117.053898 198.610284 
L 120.993281 201.874546 
L 124.931998 204.888315 
L 126.996675 199.71843 
L 129.10332 197.561065 
L 125.193277 195.92173 
L 121.278743 193.590008 
L 119.161461 195.652612 
z
" clip-path="url(#pa3e56910be)" style="fill: #175784; fill-opacity: 0.3; stroke: #4169e1; stroke-width: 0.5"/>
    <path d="M 148.959572 197.558092 
L 152.907589 199.98592 
L 156.844212 199.360316 
L 158.909502 197.7331 
L 160.96278 195.02677 
L 157.029335 195.210185 
L 153.100343 194.224427 
L 151.026479 194.932313 
z
" clip-path="url(#pa3e56910be)" style="fill: #185c8b; fill-opacity: 0.3; stroke: #4169e1; stroke-width: 0.5"/>
    <path d="M 180.873988 195.77471 
L 184.850774 197.007232 
L 188.830869 199.33872 
L 190.837855 197.711486 
L 192.858558 192.823071 
L 188.882816 191.026959 
L 184.915587 188.921057 
L 182.891044 194.334454 
z
" clip-path="url(#pa3e56910be)" style="fill: #195e8f; fill-opacity: 0.3; stroke: #4169e1; stroke-width: 0.5"/>
    <path d="M 212.820862 193.228884 
L 216.823132 195.334038 
L 220.81585 198.468969 
L 222.762206 197.020707 
L 224.753172 192.53174 
L 220.718555 192.649703 
L 216.796856 185.771782 
L 214.824625 188.505674 
z
" clip-path="url(#pa3e56910be)" style="fill: #16547f; fill-opacity: 0.3; stroke: #4169e1; stroke-width: 0.5"/>
    <path d="M 232.828008 193.932754 
L 236.810679 197.977468 
L 238.749323 195.513526 
L 240.668247 193.675237 
L 236.655481 191.664231 
L 234.74679 192.73332 
z
" clip-path="url(#pa3e56910be)" style="fill: #15527c; fill-opacity: 0.3; stroke: #4169e1; stroke-width: 0.5"/>
    <path d="M 136.95325 201.414121 
L 140.851808 199.972588 
L 144.784988 200.493665 
L 146.876478 199.057626 
L 148.959572 197.558092 
L 145.020347 195.463707 
L 141.124803 196.811402 
L 139.022954 197.427387 
z
" clip-path="url(#pa3e56910be)" style="fill: #1a6599; fill-opacity: 0.3; stroke: #4169e1; stroke-width: 0.5"/>
    <path d="M 168.87274 198.214485 
L 172.839107 198.07831 
L 176.818601 197.373085 
L 178.851056 196.269887 
L 180.873988 195.77471 
L 176.907003 193.690205 
L 172.94693 193.224086 
L 170.912009 194.689173 
z
" clip-path="url(#pa3e56910be)" style="fill: #1a6295; fill-opacity: 0.3; stroke: #4169e1; stroke-width: 0.5"/>
    <path d="M 124.931998 204.888315 
L 128.787136 202.038862 
L 132.692931 201.480035 
L 134.810707 200.102803 
L 136.95325 201.414121 
L 133.018571 199.02375 
L 129.10332 197.561065 
L 126.996675 199.71843 
z
" clip-path="url(#pa3e56910be)" style="fill: #1b669b; fill-opacity: 0.3; stroke: #4169e1; stroke-width: 0.5"/>
    <path d="M 200.82059 197.69534 
L 204.831148 198.119531 
L 208.897891 194.714708 
L 210.86446 193.893318 
L 212.820862 193.228884 
L 208.856815 188.428618 
L 204.8316 189.460446 
L 202.813775 195.04029 
z
" clip-path="url(#pa3e56910be)" style="fill: #1c6ca3; fill-opacity: 0.3; stroke: #4169e1; stroke-width: 0.5"/>
    <path d="M 188.830869 199.33872 
L 192.821067 201.032229 
L 196.839713 200.056936 
L 198.809324 201.811106 
L 200.82059 197.69534 
L 196.841591 194.630419 
L 192.858558 192.823071 
L 190.837855 197.711486 
z
" clip-path="url(#pa3e56910be)" style="fill: #196193; fill-opacity: 0.3; stroke: #4169e1; stroke-width: 0.5"/>
    <path d="M 156.844212 199.360316 
L 160.801551 200.375849 
L 164.766365 200.72132 
L 166.826782 200.907969 
L 168.87274 198.214485 
L 164.913375 196.461495 
L 160.96278 195.02677 
L 158.909502 197.7331 
z
" clip-path="url(#pa3e56910be)" style="fill: #185d8d; fill-opacity: 0.3; stroke: #4169e1; stroke-width: 0.5"/>
    <path d="M 220.81585 198.468969 
L 224.870662 198.200927 
L 228.960821 196.729753 
L 230.8662 196.998184 
L 232.828008 193.932754 
L 228.768191 194.166902 
L 224.753172 192.53174 
L 222.762206 197.020707 
z
" clip-path="url(#pa3e56910be)" style="fill: #1a6295; fill-opacity: 0.3; stroke: #4169e1; stroke-width: 0.5"/>
    <path d="M 144.784988 200.493665 
L 148.740318 202.397349 
L 152.712795 205.743541 
L 154.775436 201.63249 
L 156.844212 199.360316 
L 152.907589 199.98592 
L 148.959572 197.558092 
L 146.876478 199.057626 
z
" clip-path="url(#pa3e56910be)" style="fill: #16547f; fill-opacity: 0.3; stroke: #4169e1; stroke-width: 0.5"/>
    <path d="M 176.818601 197.373085 
L 180.806316 199.100256 
L 184.803055 200.462706 
L 186.821125 199.947458 
L 188.830869 199.33872 
L 184.850774 197.007232 
L 180.873988 195.77471 
L 178.851056 196.269887 
z
" clip-path="url(#pa3e56910be)" style="fill: #165682; fill-opacity: 0.3; stroke: #4169e1; stroke-width: 0.5"/>
    <path d="M 208.897891 194.714708 
L 212.92364 196.079923 
L 216.990013 195.239217 
L 218.857012 200.26616 
L 220.81585 198.468969 
L 216.823132 195.334038 
L 212.820862 193.228884 
L 210.86446 193.893318 
z
" clip-path="url(#pa3e56910be)" style="fill: #165682; fill-opacity: 0.3; stroke: #4169e1; stroke-width: 0.5"/>
    <path d="M 228.960821 196.729753 
L 232.980139 199.666483 
L 234.880794 199.729731 
L 236.810679 197.977468 
L 232.828008 193.932754 
L 230.8662 196.998184 
z
" clip-path="url(#pa3e56910be)" style="fill: #144c73; fill-opacity: 0.3; stroke: #4169e1; stroke-width: 0.5"/>
    <path d="M 132.692931 201.480035 
L 136.617998 201.389536 
L 140.581726 203.689171 
L 142.698729 203.206184 
L 144.784988 200.493665 
L 140.851808 199.972588 
L 136.95325 201.414121 
L 134.810707 200.102803 
z
" clip-path="url(#pa3e56910be)" style="fill: #175987; fill-opacity: 0.3; stroke: #4169e1; stroke-width: 0.5"/>
    <path d="M 164.766365 200.72132 
L 168.74434 202.241908 
L 172.730086 202.275542 
L 174.777335 200.24421 
L 176.818601 197.373085 
L 172.839107 198.07831 
L 168.87274 198.214485 
L 166.826782 200.907969 
z
" clip-path="url(#pa3e56910be)" style="fill: #185c8c; fill-opacity: 0.3; stroke: #4169e1; stroke-width: 0.5"/>
    <path d="M 196.839713 200.056936 
L 200.88909 197.346674 
L 204.946546 195.747368 
L 206.90877 196.830822 
L 208.897891 194.714708 
L 204.831148 198.119531 
L 200.82059 197.69534 
L 198.809324 201.811106 
z
" clip-path="url(#pa3e56910be)" style="fill: #195e8f; fill-opacity: 0.3; stroke: #4169e1; stroke-width: 0.5"/>
    <path d="M 152.712795 205.743541 
L 156.675436 206.763375 
L 160.640738 206.202934 
L 162.713712 205.431547 
L 164.766365 200.72132 
L 160.801551 200.375849 
L 156.844212 199.360316 
L 154.775436 201.63249 
z
" clip-path="url(#pa3e56910be)" style="fill: #1a6396; fill-opacity: 0.3; stroke: #4169e1; stroke-width: 0.5"/>
    <path d="M 184.803055 200.462706 
L 188.804242 202.655591 
L 192.825387 202.75076 
L 194.843757 200.364027 
L 196.839713 200.056936 
L 192.821067 201.032229 
L 188.830869 199.33872 
L 186.821125 199.947458 
z
" clip-path="url(#pa3e56910be)" style="fill: #165580; fill-opacity: 0.3; stroke: #4169e1; stroke-width: 0.5"/>
    <path d="M 216.990013 195.239217 
L 220.977281 200.334838 
L 225.01214 202.582204 
L 226.990701 199.569121 
L 228.960821 196.729753 
L 224.870662 198.200927 
L 220.81585 198.468969 
L 218.857012 200.26616 
z
" clip-path="url(#pa3e56910be)" style="fill: #134b71; fill-opacity: 0.3; stroke: #4169e1; stroke-width: 0.5"/>
    <path d="M 140.581726 203.689171 
L 144.55255 206.093308 
L 148.52155 207.583678 
L 150.626418 207.302722 
L 152.712795 205.743541 
L 148.740318 202.397349 
L 144.784988 200.493665 
L 142.698729 203.206184 
z
" clip-path="url(#pa3e56910be)" style="fill: #175784; fill-opacity: 0.3; stroke: #4169e1; stroke-width: 0.5"/>
    <path d="M 172.730086 202.275542 
L 176.726475 203.786849 
L 180.729951 205.8052 
L 182.767387 203.823712 
L 184.803055 200.462706 
L 180.806316 199.100256 
L 176.818601 197.373085 
L 174.777335 200.24421 
z
" clip-path="url(#pa3e56910be)" style="fill: #185b8a; fill-opacity: 0.3; stroke: #4169e1; stroke-width: 0.5"/>
    <path d="M 160.640738 206.202934 
L 164.626158 207.771828 
L 168.616382 207.340077 
L 170.676975 205.418158 
L 172.730086 202.275542 
L 168.74434 202.241908 
L 164.766365 200.72132 
L 162.713712 205.431547 
z
" clip-path="url(#pa3e56910be)" style="fill: #196091; fill-opacity: 0.3; stroke: #4169e1; stroke-width: 0.5"/>
    <path d="M 225.01214 202.582204 
L 229.052666 204.871605 
L 231.050232 200.654466 
L 232.980139 199.666483 
L 228.960821 196.729753 
L 226.990701 199.569121 
z
" clip-path="url(#pa3e56910be)" style="fill: #196092; fill-opacity: 0.3; stroke: #4169e1; stroke-width: 0.5"/>
    <path d="M 204.946546 195.747368 
L 208.963372 199.013567 
L 212.952075 204.696805 
L 215.024043 196.241447 
L 216.990013 195.239217 
L 212.92364 196.079923 
L 208.897891 194.714708 
L 206.90877 196.830822 
z
" clip-path="url(#pa3e56910be)" style="fill: #144e76; fill-opacity: 0.3; stroke: #4169e1; stroke-width: 0.5"/>
    <path d="M 148.52155 207.583678 
L 152.483112 206.844465 
L 156.44846 204.275216 
L 158.558687 206.919894 
L 160.640738 206.202934 
L 156.675436 206.763375 
L 152.712795 205.743541 
L 150.626418 207.302722 
z
" clip-path="url(#pa3e56910be)" style="fill: #185c8b; fill-opacity: 0.3; stroke: #4169e1; stroke-width: 0.5"/>
    <path d="M 180.729951 205.8052 
L 184.743587 206.970257 
L 188.772549 206.949897 
L 190.819449 201.877987 
L 192.825387 202.75076 
L 188.804242 202.655591 
L 184.803055 200.462706 
L 182.767387 203.823712 
z
" clip-path="url(#pa3e56910be)" style="fill: #185e8e; fill-opacity: 0.3; stroke: #4169e1; stroke-width: 0.5"/>
    <path d="M 192.825387 202.75076 
L 196.88287 199.734975 
L 200.953679 197.51883 
L 203.003591 191.591003 
L 204.946546 195.747368 
L 200.88909 197.346674 
L 196.839713 200.056936 
L 194.843757 200.364027 
z
" clip-path="url(#pa3e56910be)" style="fill: #1a669a; fill-opacity: 0.3; stroke: #4169e1; stroke-width: 0.5"/>
    <path d="M 212.952075 204.696805 
L 217.065895 201.55953 
L 221.080483 206.005435 
L 223.098825 201.327513 
L 225.01214 202.582204 
L 220.977281 200.334838 
L 216.990013 195.239217 
L 215.024043 196.241447 
z
" clip-path="url(#pa3e56910be)" style="fill: #196091; fill-opacity: 0.3; stroke: #4169e1; stroke-width: 0.5"/>
    <path d="M 168.616382 207.340077 
L 172.619762 205.778294 
L 176.636086 207.807838 
L 178.682262 209.702041 
L 180.729951 205.8052 
L 176.726475 203.786849 
L 172.730086 202.275542 
L 170.676975 205.418158 
z
" clip-path="url(#pa3e56910be)" style="fill: #195f90; fill-opacity: 0.3; stroke: #4169e1; stroke-width: 0.5"/>
    <path d="M 221.080483 206.005435 
L 225.185443 205.239573 
L 227.166551 202.650916 
L 229.052666 204.871605 
L 225.01214 202.582204 
L 223.098825 201.327513 
z
" clip-path="url(#pa3e56910be)" style="fill: #1a6598; fill-opacity: 0.3; stroke: #4169e1; stroke-width: 0.5"/>
    <path d="M 156.44846 204.275216 
L 160.465397 209.08786 
L 164.464448 208.186308 
L 166.549883 209.806594 
L 168.616382 207.340077 
L 164.626158 207.771828 
L 160.640738 206.202934 
L 158.558687 206.919894 
z
" clip-path="url(#pa3e56910be)" style="fill: #144d75; fill-opacity: 0.3; stroke: #4169e1; stroke-width: 0.5"/>
    <path d="M 176.636086 207.807838 
L 180.652102 212.928759 
L 184.676483 215.451433 
L 186.729819 210.441631 
L 188.772549 206.949897 
L 184.743587 206.970257 
L 180.729951 205.8052 
L 178.682262 209.702041 
z
" clip-path="url(#pa3e56910be)" style="fill: #15527c; fill-opacity: 0.3; stroke: #4169e1; stroke-width: 0.5"/>
    <path d="M 200.953679 197.51883 
L 205.013934 198.080324 
L 209.01582 204.509205 
L 211.006253 203.198349 
L 212.952075 204.696805 
L 208.963372 199.013567 
L 204.946546 195.747368 
L 203.003591 191.591003 
z
" clip-path="url(#pa3e56910be)" style="fill: #144e76; fill-opacity: 0.3; stroke: #4169e1; stroke-width: 0.5"/>
    <path d="M 188.772549 206.949897 
L 192.795658 209.791899 
L 196.849308 209.334261 
L 198.891321 204.727486 
L 200.953679 197.51883 
L 196.88287 199.734975 
L 192.825387 202.75076 
L 190.819449 201.877987 
z
" clip-path="url(#pa3e56910be)" style="fill: #1a6497; fill-opacity: 0.3; stroke: #4169e1; stroke-width: 0.5"/>
    <path d="M 209.01582 204.509205 
L 213.092771 204.88319 
L 217.118101 209.602073 
L 219.123709 206.429297 
L 221.080483 206.005435 
L 217.065895 201.55953 
L 212.952075 204.696805 
L 211.006253 203.198349 
z
" clip-path="url(#pa3e56910be)" style="fill: #175987; fill-opacity: 0.3; stroke: #4169e1; stroke-width: 0.5"/>
    <path d="M 164.464448 208.186308 
L 168.481907 209.356565 
L 172.509474 212.602559 
L 174.575567 211.688443 
L 176.636086 207.807838 
L 172.619762 205.778294 
L 168.616382 207.340077 
L 166.549883 209.806594 
z
" clip-path="url(#pa3e56910be)" style="fill: #175986; fill-opacity: 0.3; stroke: #4169e1; stroke-width: 0.5"/>
    <path d="M 184.676483 215.451433 
L 188.724515 214.444237 
L 192.800011 211.556316 
L 194.819557 211.737095 
L 196.849308 209.334261 
L 192.795658 209.791899 
L 188.772549 206.949897 
L 186.729819 210.441631 
z
" clip-path="url(#pa3e56910be)" style="fill: #1b669a; fill-opacity: 0.3; stroke: #4169e1; stroke-width: 0.5"/>
    <path d="M 217.118101 209.602073 
L 221.22527 209.17482 
L 223.192208 208.203277 
L 225.185443 205.239573 
L 221.080483 206.005435 
L 219.123709 206.429297 
z
" clip-path="url(#pa3e56910be)" style="fill: #195e8f; fill-opacity: 0.3; stroke: #4169e1; stroke-width: 0.5"/>
    <path d="M 196.849308 209.334261 
L 200.931379 207.283058 
L 204.964872 211.591733 
L 206.974064 209.722335 
L 209.01582 204.509205 
L 205.013934 198.080324 
L 200.953679 197.51883 
L 198.891321 204.727486 
z
" clip-path="url(#pa3e56910be)" style="fill: #1b689e; fill-opacity: 0.3; stroke: #4169e1; stroke-width: 0.5"/>
    <path d="M 172.509474 212.602559 
L 176.542309 214.368763 
L 180.58815 213.930365 
L 182.639749 214.033359 
L 184.676483 215.451433 
L 180.652102 212.928759 
L 176.636086 207.807838 
L 174.575567 211.688443 
z
" clip-path="url(#pa3e56910be)" style="fill: #165682; fill-opacity: 0.3; stroke: #4169e1; stroke-width: 0.5"/>
    <path d="M 204.964872 211.591733 
L 209.023671 213.849068 
L 213.121665 213.64444 
L 215.098883 213.37709 
L 217.118101 209.602073 
L 213.092771 204.88319 
L 209.01582 204.509205 
L 206.974064 209.722335 
z
" clip-path="url(#pa3e56910be)" style="fill: #1a6396; fill-opacity: 0.3; stroke: #4169e1; stroke-width: 0.5"/>
    <path d="M 213.121665 213.64444 
L 217.182389 216.903416 
L 219.158111 216.172819 
L 221.22527 209.17482 
L 217.118101 209.602073 
L 215.098883 213.37709 
z
" clip-path="url(#pa3e56910be)" style="fill: #144e76; fill-opacity: 0.3; stroke: #4169e1; stroke-width: 0.5"/>
    <path d="M 192.800011 211.556316 
L 196.883584 210.269112 
L 200.978456 209.525003 
L 203.010354 207.186437 
L 204.964872 211.591733 
L 200.931379 207.283058 
L 196.849308 209.334261 
L 194.819557 211.737095 
z
" clip-path="url(#pa3e56910be)" style="fill: #1a6295; fill-opacity: 0.3; stroke: #4169e1; stroke-width: 0.5"/>
    <path d="M 180.58815 213.930365 
L 184.645694 214.073279 
L 188.730339 211.306293 
L 190.772708 210.989346 
L 192.800011 211.556316 
L 188.724515 214.444237 
L 184.676483 215.451433 
L 182.639749 214.033359 
z
" clip-path="url(#pa3e56910be)" style="fill: #175886; fill-opacity: 0.3; stroke: #4169e1; stroke-width: 0.5"/>
    <path d="M 200.978456 209.525003 
L 205.032879 214.028569 
L 209.082125 219.007309 
L 211.118721 215.227645 
L 213.121665 213.64444 
L 209.023671 213.849068 
L 204.964872 211.591733 
L 203.010354 207.186437 
z
" clip-path="url(#pa3e56910be)" style="fill: #12476b; fill-opacity: 0.3; stroke: #4169e1; stroke-width: 0.5"/>
    <path d="M 209.082125 219.007309 
L 213.194892 219.147267 
L 215.179812 218.946514 
L 217.182389 216.903416 
L 213.121665 213.64444 
L 211.118721 215.227645 
z
" clip-path="url(#pa3e56910be)" style="fill: #175886; fill-opacity: 0.3; stroke: #4169e1; stroke-width: 0.5"/>
    <path d="M 188.730339 211.306293 
L 192.804662 213.302921 
L 196.884487 215.539861 
L 198.904121 216.088364 
L 200.978456 209.525003 
L 196.883584 210.269112 
L 192.800011 211.556316 
L 190.772708 210.989346 
z
" clip-path="url(#pa3e56910be)" style="fill: #165682; fill-opacity: 0.3; stroke: #4169e1; stroke-width: 0.5"/>
    <path d="M 196.884487 215.539861 
L 200.967929 218.117874 
L 205.030088 223.261675 
L 207.069792 220.221909 
L 209.082125 219.007309 
L 205.032879 214.028569 
L 200.978456 209.525003 
L 198.904121 216.088364 
z
" clip-path="url(#pa3e56910be)" style="fill: #16537e; fill-opacity: 0.3; stroke: #4169e1; stroke-width: 0.5"/>
    <path d="M 205.030088 223.261675 
L 209.152678 223.247995 
L 211.174221 221.437859 
L 213.194892 219.147267 
L 209.082125 219.007309 
L 207.069792 220.221909 
z
" clip-path="url(#pa3e56910be)" style="fill: #196091; fill-opacity: 0.3; stroke: #4169e1; stroke-width: 0.5"/>
   </g>
  </g>
 </g>
 <defs>
  <clipPath id="pa3e56910be">
   <rect x="7.2" y="7.2" width="324" height="324"/>
  </clipPath>
 </defs>
</svg>
