<?xml version="1.0" encoding="utf-8" standalone="no"?>
<!DOCTYPE svg PUBLIC "-//W3C//DTD SVG 1.1//EN"
  "http://www.w3.org/Graphics/SVG/1.1/DTD/svg11.dtd">
<svg xmlns:xlink="http://www.w3.org/1999/xlink" width="338.4pt" height="338.4pt" viewBox="0 0 338.4 338.4" xmlns="http://www.w3.org/2000/svg" version="1.1">
 <metadata>
  <rdf:RDF xmlns:dc="http://purl.org/dc/elements/1.1/" xmlns:cc="http://creativecommons.org/ns#" xmlns:rdf="http://www.w3.org/1999/02/22-rdf-syntax-ns#">
   <cc:Work>
    <dc:type rdf:resource="http://purl.org/dc/dcmitype/StillImage"/>
    <dc:date>2025-10-09T11:10:31.124826</dc:date>
    <dc:format>image/svg+xml</dc:format>
    <dc:creator>
     <cc:Agent>
      <dc:title>Matplotlib v3.10.0, https://matplotlib.org/</dc:title>
     </cc:Agent>
    </dc:creator>
   </cc:Work>
  </rdf:RDF>
 </metadata>
 <defs>
  <style type="text/css">*{stroke-linejoin: round; stroke-linecap: butt}</style>
 </defs>
 <g id="figure_1">
  <g id="patch_1">
   <path d="M -0 338.4 
L 338.4 338.4 
L 338.4 0 
L -0 0 
z
" style="fill: #ffffff"/>
  </g>
  <g id="patch_2">
   <path d="M 7.2 331.2 
L 331.2 331.2 
L 331.2 7.2 
L 7.2 7.2 
z
" style="fill: #ffffff"/>
  </g>
  <g id="axes_1">
   <g id="Line3DCollection_1">
    <path d="M 164.36727 95.960357 
L 142.039857 89.938096 
" clip-path="url(#p96ba07ae39)" style="fill: none; stroke: #000000"/>
    <path d="M 164.36727 95.960357 
L 164.36727 95.960357 
" clip-path="url(#p96ba07ae39)" style="fill: none; stroke: #000000"/>
    <path d="M 164.36727 95.960357 
L 164.36727 95.960357 
" clip-path="url(#p96ba07ae39)" style="fill: none; stroke: #000000"/>
   </g>
   <g id="text_1">
    <!-- X -->
    <g transform="translate(158.905268 90.765303) scale(0.1 -0.1)">
     <defs>
      <path id="DejaVuSans-58" d="M 403 4666 
L 1081 4666 
L 2241 2931 
L 3406 4666 
L 4084 4666 
L 2584 2425 
L 4184 0 
L 3506 0 
L 2194 1984 
L 872 0 
L 191 0 
L 1856 2491 
L 403 4666 
z
" transform="scale(0.015625)"/>
     </defs>
     <use xlink:href="#DejaVuSans-58"/>
    </g>
   </g>
   <g id="text_2">
    <!-- Y -->
    <g transform="translate(122.423317 95.873333) scale(0.1 -0.1)">
     <defs>
      <path id="DejaVuSans-59" d="M -13 4666 
L 666 4666 
L 1959 2747 
L 3244 4666 
L 3922 4666 
L 2272 2222 
L 2272 0 
L 1638 0 
L 1638 2222 
L -13 4666 
z
" transform="scale(0.015625)"/>
     </defs>
     <use xlink:href="#DejaVuSans-59"/>
    </g>
   </g>
   <g id="text_3">
    <!-- Z -->
    <g transform="translate(138.894957 65.379346) scale(0.09 -0.09)">
     <defs>
      <path id="DejaVuSans-5a" d="M 359 4666 
L 4025 4666 
L 4025 4184 
L 1075 531 
L 4097 531 
L 4097 0 
L 288 0 
L 288 481 
L 3238 4134 
L 359 4134 
L 359 4666 
z
" transform="scale(0.015625)"/>
     </defs>
     <use xlink:href="#DejaVuSans-5a"/>
    </g>
   </g>
   <g id="Line3DCollection_2">
    <path d="M 141.830118 69.267027 
L 142.039857 89.938096 
" clip-path="url(#p96ba07ae39)" style="fill: none; stroke: #000000"/>
    <path d="M 141.830118 69.267027 
L 141.830118 69.267027 
" clip-path="url(#p96ba07ae39)" style="fill: none; stroke: #000000"/>
    <path d="M 141.830118 69.267027 
L 141.830118 69.267027 
" clip-path="url(#p96ba07ae39)" style="fill: none; stroke: #000000"/>
   </g>
   <g id="Line3DCollection_3">
    <path d="M 125.290552 103.015919 
L 142.039857 89.938096 
" clip-path="url(#p96ba07ae39)" style="fill: none; stroke: #000000"/>
    <path d="M 125.290552 103.015919 
L 125.290552 103.015919 
" clip-path="url(#p96ba07ae39)" style="fill: none; stroke: #000000"/>
    <path d="M 125.290552 103.015919 
L 125.290552 103.015919 
" clip-path="url(#p96ba07ae39)" style="fill: none; stroke: #000000"/>
   </g>
   <g id="QuadContourSet3D_1">
    <path d="M 179.42452 93.620514 
L 183.088404 95.630816 
L 186.759433 97.194228 
L 190.439566 98.247435 
L 194.127629 99.246469 
L 197.820389 100.633304 
L 201.518343 102.201967 
L 205.217044 104.325855 
L 208.921537 106.390386 
L 212.627306 108.77158 
L 216.345107 110.611406 
L 220.090057 111.038568 
L 223.847657 111.262119 
L 227.61136 111.700883 
L 231.378623 112.450501 
L 235.153934 113.230776 
L 238.944614 113.692505 
L 242.761195 113.420381 
L 246.591086 113.063343 
L 250.408872 113.656328 
L 254.252969 113.596614 
L 258.103285 113.708041 
L 261.950185 114.306072 
L 265.812874 114.688751 
L 269.701987 114.542353 
L 273.603793 114.353248 
L 277.51163 114.325416 
L 281.389664 115.467286 
L 285.252522 117.253272 
L 289.107269 119.430217 
L 292.94461 122.199661 
L 296.814461 124.260124 
" clip-path="url(#p96ba07ae39)" style="fill: none; stroke: #3b4cc0; stroke-width: 1.5"/>
    <path d="M 179.430622 90.379861 
L 183.100871 91.563583 
L 186.776352 93.213622 
L 190.456861 95.067667 
L 194.144641 96.680943 
L 197.840336 98.084584 
L 201.538509 99.967297 
L 205.230209 103.038394 
L 208.928158 105.811159 
L 212.638411 107.892955 
L 216.354797 109.91183 
L 220.083145 111.497413 
L 223.823237 112.761738 
L 227.582769 113.334087 
L 231.346446 114.168371 
L 235.118821 114.989986 
L 238.913279 115.17118 
L 242.718109 115.341572 
L 246.536002 115.390935 
L 250.367672 115.310442 
L 254.216802 114.97949 
L 258.067463 115.015311 
L 261.920468 115.343104 
L 265.792542 115.368487 
L 269.690096 114.923824 
L 273.590371 114.767063 
L 277.510956 114.345431 
L 281.435406 114.159332 
L 285.319192 115.413913 
L 289.188822 117.25685 
L 293.062847 119.152722 
L 296.934466 121.266725 
" clip-path="url(#p96ba07ae39)" style="fill: none; stroke: #6282ea; stroke-width: 1.5"/>
    <path d="M 179.440665 85.046784 
L 183.116706 86.397475 
L 186.791762 89.588154 
L 190.467792 93.057864 
L 194.146807 96.354268 
L 197.83388 98.909471 
L 201.531746 100.716756 
L 205.232769 102.788082 
L 208.94025 104.753322 
L 212.655563 106.535939 
L 216.370147 108.803607 
L 220.097279 110.559234 
L 223.837105 111.910146 
L 227.596994 112.521522 
L 231.371363 112.8381 
L 235.155365 113.159076 
L 238.95388 113.25526 
L 242.75923 113.507975 
L 246.578041 113.614536 
L 250.407897 113.695475 
L 254.244299 113.928101 
L 258.089003 114.229258 
L 261.943329 114.545309 
L 265.820377 114.437922 
L 269.739503 113.33882 
L 273.69757 111.462 
L 277.63637 110.624099 
L 281.525078 111.595241 
L 285.388433 113.503593 
L 289.282941 114.748604 
L 293.171139 116.362042 
L 297.096206 117.232297 
" clip-path="url(#p96ba07ae39)" style="fill: none; stroke: #8db0fe; stroke-width: 1.5"/>
    <path d="M 179.428675 91.413902 
L 183.095596 93.284351 
L 186.769912 94.728756 
L 190.447032 96.874707 
L 194.129699 98.93423 
L 197.820019 100.68061 
L 201.514625 102.61396 
L 205.214985 104.527195 
L 208.92005 106.520504 
L 212.629898 108.566519 
L 216.349384 110.30257 
L 220.083159 111.496446 
L 223.830606 112.309259 
L 227.596156 112.56937 
L 231.375378 112.62376 
L 235.167048 112.573718 
L 238.970551 112.468568 
L 242.775904 112.764514 
L 246.591461 113.047491 
L 250.426662 112.94208 
L 254.276856 112.683251 
L 258.132977 112.624517 
L 261.98179 113.203131 
L 265.843799 113.654885 
L 269.733534 113.530309 
L 273.630358 113.534239 
L 277.515176 114.220206 
L 281.387555 115.527602 
L 285.251608 117.278501 
L 289.142019 118.504155 
L 293.042177 119.685388 
L 296.921794 121.582827 
" clip-path="url(#p96ba07ae39)" style="fill: none; stroke: #b9d0f9; stroke-width: 1.5"/>
    <path d="M 179.420298 95.862689 
L 183.081494 97.885262 
L 186.750529 99.288964 
L 190.426969 100.56342 
L 194.111123 101.735778 
L 197.799061 103.358583 
L 201.49086 105.247336 
L 205.186713 107.291892 
L 208.887686 109.351729 
L 212.595288 111.304767 
L 216.314862 112.794992 
L 220.048705 113.783318 
L 223.795141 114.487098 
L 227.558272 114.733419 
L 231.340161 114.503905 
L 235.135063 114.176217 
L 238.939277 113.944359 
L 242.74252 114.25311 
L 246.543963 115.054551 
L 250.353603 115.875283 
L 254.197549 115.715638 
L 258.067615 115.009761 
L 261.948612 114.360969 
L 265.830142 114.111474 
L 269.72052 113.947787 
L 273.591828 114.722165 
L 277.438323 116.500597 
L 281.297396 118.105632 
L 285.168694 119.566023 
L 289.039803 121.228175 
L 292.900744 123.330087 
L 296.752846 125.79704 
" clip-path="url(#p96ba07ae39)" style="fill: none; stroke: #dddcdc; stroke-width: 1.5"/>
    <path d="M 179.416644 97.803104 
L 183.073132 100.613344 
L 186.736774 102.524984 
L 190.409946 103.693202 
L 194.088276 105.181261 
L 197.77302 106.686036 
L 201.467105 107.879684 
L 205.17527 108.410875 
L 208.890615 109.095488 
L 212.610705 110.085056 
L 216.341274 110.888127 
L 220.082544 111.537278 
L 223.831124 112.277407 
L 227.584581 113.230558 
L 231.354413 113.743007 
L 235.142364 113.810424 
L 238.93784 114.012182 
L 242.732831 114.685126 
L 246.537039 115.347117 
L 250.347982 116.10095 
L 254.168796 116.815008 
L 257.996673 117.598622 
L 261.854914 117.630792 
L 265.733015 117.358598 
L 269.600531 117.797103 
L 273.444889 119.25245 
L 277.299659 120.615056 
L 281.178309 121.510825 
L 285.066329 122.390189 
L 288.935112 124.018188 
L 292.798409 125.96725 
L 296.675846 127.717724 
" clip-path="url(#p96ba07ae39)" style="fill: none; stroke: #f5c4ac; stroke-width: 1.5"/>
    <path d="M 179.411004 100.798553 
L 183.068475 102.132682 
L 186.733555 103.282385 
L 190.408008 104.049494 
L 194.093392 104.409647 
L 197.7877 104.810333 
L 201.490811 105.252755 
L 205.200694 105.924679 
L 208.918402 106.664622 
L 212.643374 107.50034 
L 216.373736 108.544453 
L 220.113819 109.461394 
L 223.866694 110.093105 
L 227.627664 110.769543 
L 231.412942 110.618312 
L 235.225558 109.642276 
L 239.046321 108.893065 
L 242.84619 109.630486 
L 246.64851 110.636841 
L 250.463049 111.481241 
L 254.273842 112.798495 
L 258.09319 114.076435 
L 261.92185 115.294896 
L 265.758931 116.492165 
L 269.603234 117.71042 
L 273.443407 119.298143 
L 277.304248 120.478898 
L 281.148724 122.356798 
L 284.985364 124.62395 
L 288.821154 127.055134 
L 292.653066 129.712713 
L 296.508677 131.887585 
" clip-path="url(#p96ba07ae39)" style="fill: none; stroke: #f4987a; stroke-width: 1.5"/>
    <path d="M 179.415735 98.285814 
L 183.076481 99.520711 
L 186.746078 100.336215 
L 190.426585 100.633931 
L 194.118389 100.639898 
L 197.817138 101.048678 
L 201.523535 101.626551 
L 205.239741 102.106275 
L 208.964052 102.671136 
L 212.686907 104.05605 
L 216.406038 106.212319 
L 220.137385 107.897212 
L 223.889368 108.700695 
L 227.649307 109.533192 
L 231.418858 110.302473 
L 235.208585 110.492655 
L 239.026772 109.815582 
L 242.860117 109.009486 
L 246.671478 109.666312 
L 250.468621 111.257505 
L 254.267902 113.025644 
L 258.0835 114.43007 
L 261.933454 114.889927 
L 265.793974 115.320633 
L 269.664718 115.737949 
L 273.530491 116.613247 
L 277.375992 118.350098 
L 281.21135 120.566042 
L 285.050862 122.816903 
L 288.881099 125.457608 
L 292.733287 127.645438 
L 296.610192 129.355392 
" clip-path="url(#p96ba07ae39)" style="fill: none; stroke: #dd5f4b; stroke-width: 1.5"/>
    <path clip-path="url(#p96ba07ae39)" style="fill: none; stroke: #b40426; stroke-width: 1.5"/>
   </g>
   <g id="QuadContourSet3D_2">
    <path d="M 111.689163 108.091976 
L 109.708818 110.950734 
L 107.711494 113.246111 
L 105.711058 115.660454 
L 103.707887 118.201521 
L 101.696543 120.627122 
L 99.680729 123.102526 
L 97.650181 125.209677 
L 95.607171 127.06916 
L 93.539104 128.218896 
L 91.449587 128.849867 
L 89.348716 129.37081 
L 87.243523 130.041652 
L 85.145683 131.258483 
L 83.044078 132.607937 
L 80.925564 133.647703 
L 78.795718 134.580826 
L 76.647795 135.203005 
L 74.477736 135.410952 
L 72.307591 135.900077 
L 70.113025 135.934031 
L 67.885833 135.305309 
L 65.653275 134.830384 
L 63.445548 135.341718 
L 61.2719 137.034483 
L 59.149295 140.294277 
L 57.045119 144.176945 
L 54.913944 147.479925 
L 52.758169 150.297159 
L 50.579061 152.687836 
L 48.397524 155.184455 
L 46.216196 157.845385 
" clip-path="url(#p96ba07ae39)" style="fill: none; stroke: #3b4cc0; stroke-width: 1.5"/>
    <path d="M 111.710401 109.152388 
L 109.706273 110.827735 
L 107.68903 112.193978 
L 105.676954 114.111415 
L 103.674147 116.714209 
L 101.677184 119.798247 
L 99.666127 122.494871 
L 97.639172 124.764128 
L 95.601573 126.84867 
L 93.554294 128.801529 
L 91.497448 130.638567 
L 89.429341 132.308344 
L 87.348373 133.767889 
L 85.241948 134.597115 
L 83.120861 135.20793 
L 80.987828 135.707165 
L 78.852597 136.419332 
L 76.714042 137.296443 
L 74.568967 138.230583 
L 72.412378 139.068745 
L 70.254701 140.127294 
L 68.081901 140.987323 
L 65.901789 141.884376 
L 63.716259 142.87048 
L 61.521013 143.824741 
L 59.335018 145.257463 
L 57.164963 147.317786 
L 55.006386 149.856542 
L 52.853089 152.691728 
L 50.688204 155.390303 
L 48.50075 157.693804 
L 46.289731 159.600836 
" clip-path="url(#p96ba07ae39)" style="fill: none; stroke: #6282ea; stroke-width: 1.5"/>
    <path d="M 111.73734 110.497446 
L 109.692008 110.138214 
L 107.653641 110.536445 
L 105.624838 111.744282 
L 103.630362 114.784048 
L 101.637071 118.080806 
L 99.61835 120.506706 
L 97.584753 122.561613 
L 95.560066 125.21376 
L 93.525151 127.683715 
L 91.473135 129.729926 
L 89.423435 132.093175 
L 87.354683 133.992119 
L 85.276283 135.787909 
L 83.182962 137.310761 
L 81.08174 138.813413 
L 78.970629 140.234482 
L 76.842761 141.364002 
L 74.692182 142.038727 
L 72.538376 142.878842 
L 70.363115 143.336064 
L 68.186059 144.005804 
L 66.025326 145.390924 
L 63.871662 147.19238 
L 61.722416 149.314536 
L 59.571517 151.577579 
L 57.384129 153.061635 
L 55.204186 154.941817 
L 53.015792 156.796269 
L 50.821826 158.698895 
L 48.628473 160.79867 
L 46.416023 162.615684 
" clip-path="url(#p96ba07ae39)" style="fill: none; stroke: #8db0fe; stroke-width: 1.5"/>
    <path d="M 111.774555 112.355605 
L 109.757988 113.32751 
L 107.72989 114.107704 
L 105.700839 115.196333 
L 103.670928 116.572314 
L 101.64337 118.35051 
L 99.613876 120.320517 
L 97.580177 122.376418 
L 95.543881 124.576277 
L 93.495274 126.537753 
L 91.449492 128.846331 
L 89.39318 130.990829 
L 87.335519 133.311078 
L 85.274022 135.709487 
L 83.205921 138.088196 
L 81.126418 140.291191 
L 79.01849 141.78152 
L 76.885174 142.704271 
L 74.748876 143.790916 
L 72.599222 144.718768 
L 70.452082 145.969289 
L 68.299951 147.306367 
L 66.136266 148.539929 
L 63.99201 150.539384 
L 61.844685 152.647301 
L 59.681067 154.505141 
L 57.517427 156.555066 
L 55.336688 158.348345 
L 53.143891 160.027832 
L 50.948739 161.841349 
L 48.719335 163.007469 
L 46.477297 164.078438 
" clip-path="url(#p96ba07ae39)" style="fill: none; stroke: #b9d0f9; stroke-width: 1.5"/>
    <path d="M 111.731565 110.209102 
L 109.711422 111.076614 
L 107.691151 112.293318 
L 105.661473 113.40826 
L 103.62038 114.344046 
L 101.57036 115.224588 
L 99.518604 116.355879 
L 97.473205 118.046934 
L 95.426589 119.956298 
L 93.388258 122.432986 
L 91.362271 125.586603 
L 89.333107 128.802095 
L 87.280434 131.353443 
L 85.204819 133.309406 
L 83.112833 134.936105 
L 81.005496 136.291558 
L 78.884368 137.446265 
L 76.766111 138.941836 
L 74.632376 140.19032 
L 72.482924 141.201999 
L 70.336052 142.535075 
L 68.174523 143.671477 
L 66.033247 145.615772 
L 63.909055 148.232326 
L 61.778677 150.848058 
L 59.628322 153.095599 
L 57.473876 155.413697 
L 55.291094 157.176171 
L 53.096957 158.843831 
L 50.895881 160.532554 
L 48.669211 161.788991 
L 46.405956 162.375381 
" clip-path="url(#p96ba07ae39)" style="fill: none; stroke: #dddcdc; stroke-width: 1.5"/>
    <path d="M 111.668281 107.049313 
L 109.654148 108.308141 
L 107.636886 109.751724 
L 105.614182 111.260298 
L 103.570756 112.156479 
L 101.525592 113.307845 
L 99.481911 114.828952 
L 97.430397 116.314378 
L 95.399132 118.874811 
L 93.377868 122.034441 
L 91.346976 125.014971 
L 89.300605 127.617884 
L 87.232218 129.639915 
L 85.142881 131.161294 
L 83.040427 132.484288 
L 80.93233 133.871484 
L 78.821043 135.3994 
L 76.700279 136.861522 
L 74.52899 136.99504 
L 72.360533 137.50101 
L 70.211477 138.847982 
L 68.065621 140.51554 
L 65.936624 142.87315 
L 63.791028 144.949868 
L 61.63264 146.867426 
L 59.470295 148.872562 
L 57.307031 151.041059 
L 55.134459 153.149208 
L 52.958671 155.355261 
L 50.748017 156.87131 
L 48.511164 157.946958 
L 46.242412 158.471225 
" clip-path="url(#p96ba07ae39)" style="fill: none; stroke: #f5c4ac; stroke-width: 1.5"/>
    <path d="M 111.597158 103.498089 
L 109.582387 104.839356 
L 107.581469 107.156151 
L 105.579552 109.687358 
L 103.563703 111.845591 
L 101.547196 114.232811 
L 99.516356 116.262359 
L 97.471034 117.959047 
L 95.413916 119.457113 
L 93.366231 121.5881 
L 91.310865 123.665406 
L 89.232369 125.13174 
L 87.143385 126.482932 
L 85.038281 127.533622 
L 82.923068 128.510324 
L 80.773788 128.627515 
L 78.624943 129.06084 
L 76.494464 130.357681 
L 74.374965 132.234686 
L 72.246929 134.065691 
L 70.112419 135.916088 
L 67.978481 137.990242 
L 65.841316 140.167857 
L 63.666028 141.473507 
L 61.476757 142.618418 
L 59.300251 144.328355 
L 57.13288 146.476959 
L 54.976229 149.081234 
L 52.816767 151.77542 
L 50.619177 153.681123 
L 48.38675 154.922533 
L 46.114811 155.425119 
" clip-path="url(#p96ba07ae39)" style="fill: none; stroke: #f4987a; stroke-width: 1.5"/>
    <path d="M 111.585159 102.89901 
L 109.593616 105.382143 
L 107.588592 107.489758 
L 105.590972 110.206039 
L 103.598525 113.380606 
L 101.5887 116.009796 
L 99.558266 118.006397 
L 97.519136 119.905919 
L 95.459414 121.249238 
L 93.394971 122.690442 
L 91.316965 123.893375 
L 89.239664 125.397533 
L 87.145225 126.548324 
L 85.02872 127.201999 
L 82.911948 128.133786 
L 80.778791 128.792995 
L 78.633218 129.328327 
L 76.495948 130.404584 
L 74.34755 131.387392 
L 72.198856 132.612013 
L 70.02291 133.266871 
L 67.822847 133.480006 
L 65.629661 134.160095 
L 63.438931 135.157698 
L 61.227047 135.811901 
L 59.057144 137.83168 
L 56.922828 140.971973 
L 54.781617 144.077896 
L 52.602913 146.380493 
L 50.398024 148.205201 
L 48.201605 150.421786 
L 45.987361 152.382629 
" clip-path="url(#p96ba07ae39)" style="fill: none; stroke: #dd5f4b; stroke-width: 1.5"/>
    <path clip-path="url(#p96ba07ae39)" style="fill: none; stroke: #b40426; stroke-width: 1.5"/>
   </g>
   <g id="Poly3DCollection_1">
    <path d="M 147.791902 121.551969 
L 151.518942 122.139756 
L 155.259086 123.400778 
L 157.215677 121.563626 
L 153.478564 120.169395 
L 149.747584 118.648628 
z
" clip-path="url(#p96ba07ae39)" style="fill: #1c6aa1; fill-opacity: 0.3; stroke: #4169e1; stroke-width: 0.5"/>
    <path d="M 155.259086 123.400778 
L 159.007067 124.73412 
L 162.760639 125.568312 
L 164.709937 123.858187 
L 160.95973 122.908443 
L 157.215677 121.563626 
z
" clip-path="url(#p96ba07ae39)" style="fill: #175987; fill-opacity: 0.3; stroke: #4169e1; stroke-width: 0.5"/>
    <path d="M 143.856107 126.343601 
L 147.591749 127.292612 
L 151.333373 127.925831 
L 153.297658 125.447099 
L 155.259086 123.400778 
L 151.518942 122.139756 
L 147.791902 121.551969 
L 145.826237 123.887782 
z
" clip-path="url(#p96ba07ae39)" style="fill: #1d6ea7; fill-opacity: 0.3; stroke: #4169e1; stroke-width: 0.5"/>
    <path d="M 162.760639 125.568312 
L 166.521405 125.790141 
L 170.292757 126.426617 
L 172.235156 125.530812 
L 168.46772 124.378803 
L 164.709937 123.858187 
z
" clip-path="url(#p96ba07ae39)" style="fill: #1b679c; fill-opacity: 0.3; stroke: #4169e1; stroke-width: 0.5"/>
    <path d="M 151.333373 127.925831 
L 155.084897 128.695974 
L 158.842325 128.867385 
L 160.803606 126.948946 
L 162.760639 125.568312 
L 159.007067 124.73412 
L 155.259086 123.400778 
L 153.297658 125.447099 
z
" clip-path="url(#p96ba07ae39)" style="fill: #1c6ba2; fill-opacity: 0.3; stroke: #4169e1; stroke-width: 0.5"/>
    <path d="M 139.90082 131.394683 
L 143.645943 132.729182 
L 147.397543 133.957817 
L 149.369849 131.193761 
L 151.333373 127.925831 
L 147.591749 127.292612 
L 143.856107 126.343601 
L 141.88179 128.927245 
z
" clip-path="url(#p96ba07ae39)" style="fill: #1b669b; fill-opacity: 0.3; stroke: #4169e1; stroke-width: 0.5"/>
    <path d="M 170.292757 126.426617 
L 174.073257 127.157267 
L 177.860625 129.394493 
L 179.789735 129.771776 
L 176.009953 127.318835 
L 172.235156 125.530812 
z
" clip-path="url(#p96ba07ae39)" style="fill: #103d5d; fill-opacity: 0.3; stroke: #4169e1; stroke-width: 0.5"/>
    <path d="M 158.842325 128.867385 
L 162.610683 129.218653 
L 166.389602 129.85774 
L 168.343985 127.914733 
L 170.292757 126.426617 
L 166.521405 125.790141 
L 162.760639 125.568312 
L 160.803606 126.948946 
z
" clip-path="url(#p96ba07ae39)" style="fill: #1c6aa0; fill-opacity: 0.3; stroke: #4169e1; stroke-width: 0.5"/>
    <path d="M 147.397543 133.957817 
L 151.152273 134.566125 
L 154.913158 134.670053 
L 156.87882 131.512215 
L 158.842325 128.867385 
L 155.084897 128.695974 
L 151.333373 127.925831 
L 149.369849 131.193761 
z
" clip-path="url(#p96ba07ae39)" style="fill: #1e74af; fill-opacity: 0.3; stroke: #4169e1; stroke-width: 0.5"/>
    <path d="M 135.918829 136.059293 
L 139.671652 137.48284 
L 143.427693 138.500755 
L 145.415695 136.246062 
L 147.397543 133.957817 
L 143.645943 132.729182 
L 139.90082 131.394683 
L 137.914873 133.912443 
z
" clip-path="url(#p96ba07ae39)" style="fill: #1a6497; fill-opacity: 0.3; stroke: #4169e1; stroke-width: 0.5"/>
    <path d="M 177.860625 129.394493 
L 181.651029 132.483794 
L 185.448193 134.650914 
L 187.364064 134.543802 
L 183.573239 132.529005 
L 179.789735 129.771776 
z
" clip-path="url(#p96ba07ae39)" style="fill: #0c2f47; fill-opacity: 0.3; stroke: #4169e1; stroke-width: 0.5"/>
    <path d="M 166.389602 129.85774 
L 170.17721 130.018367 
L 173.975192 130.719936 
L 175.922035 129.696153 
L 177.860625 129.394493 
L 174.073257 127.157267 
L 170.292757 126.426617 
L 168.343985 127.914733 
z
" clip-path="url(#p96ba07ae39)" style="fill: #1b669a; fill-opacity: 0.3; stroke: #4169e1; stroke-width: 0.5"/>
    <path d="M 185.448193 134.650914 
L 189.256453 135.724235 
L 193.075173 136.450515 
L 194.987009 135.176665 
L 191.169223 135.080039 
L 187.364064 134.543802 
z
" clip-path="url(#p96ba07ae39)" style="fill: #124669; fill-opacity: 0.3; stroke: #4169e1; stroke-width: 0.5"/>
    <path d="M 154.913158 134.670053 
L 158.684024 134.665302 
L 162.468651 135.470888 
L 164.431533 132.622126 
L 166.389602 129.85774 
L 162.610683 129.218653 
L 158.842325 128.867385 
L 156.87882 131.512215 
z
" clip-path="url(#p96ba07ae39)" style="fill: #1e74af; fill-opacity: 0.3; stroke: #4169e1; stroke-width: 0.5"/>
    <path d="M 143.427693 138.500755 
L 147.190427 139.339154 
L 150.959071 139.79782 
L 152.940372 137.460674 
L 154.913158 134.670053 
L 151.152273 134.566125 
L 147.397543 133.957817 
L 145.415695 136.246062 
z
" clip-path="url(#p96ba07ae39)" style="fill: #1d6fa8; fill-opacity: 0.3; stroke: #4169e1; stroke-width: 0.5"/>
    <path d="M 131.891973 139.13917 
L 135.657134 140.848208 
L 139.428034 142.482785 
L 141.433001 140.681021 
L 143.427693 138.500755 
L 139.671652 137.48284 
L 135.918829 136.059293 
L 133.91349 137.956733 
z
" clip-path="url(#p96ba07ae39)" style="fill: #144d74; fill-opacity: 0.3; stroke: #4169e1; stroke-width: 0.5"/>
    <path d="M 173.975192 130.719936 
L 177.779827 133.239481 
L 181.588327 136.062311 
L 183.52329 134.979525 
L 185.448193 134.650914 
L 181.651029 132.483794 
L 177.860625 129.394493 
L 175.922035 129.696153 
z
" clip-path="url(#p96ba07ae39)" style="fill: #0d324c; fill-opacity: 0.3; stroke: #4169e1; stroke-width: 0.5"/>
    <path d="M 193.075173 136.450515 
L 196.901216 137.417351 
L 200.739165 138.010699 
L 202.645795 136.308904 
L 198.810611 135.865219 
L 194.987009 135.176665 
z
" clip-path="url(#p96ba07ae39)" style="fill: #185b89; fill-opacity: 0.3; stroke: #4169e1; stroke-width: 0.5"/>
    <path d="M 162.468651 135.470888 
L 166.262602 136.469872 
L 170.064714 137.241854 
L 172.02211 133.818704 
L 173.975192 130.719936 
L 170.17721 130.018367 
L 166.389602 129.85774 
L 164.431533 132.622126 
z
" clip-path="url(#p96ba07ae39)" style="fill: #1d6fa7; fill-opacity: 0.3; stroke: #4169e1; stroke-width: 0.5"/>
    <path d="M 150.959071 139.79782 
L 154.735939 140.017799 
L 158.523852 140.383436 
L 160.499323 137.992181 
L 162.468651 135.470888 
L 158.684024 134.665302 
L 154.913158 134.670053 
L 152.940372 137.460674 
z
" clip-path="url(#p96ba07ae39)" style="fill: #1e74b0; fill-opacity: 0.3; stroke: #4169e1; stroke-width: 0.5"/>
    <path d="M 181.588327 136.062311 
L 185.405691 137.605691 
L 189.23341 138.521271 
L 191.158312 137.410308 
L 193.075173 136.450515 
L 189.256453 135.724235 
L 185.448193 134.650914 
L 183.52329 134.979525 
z
" clip-path="url(#p96ba07ae39)" style="fill: #124467; fill-opacity: 0.3; stroke: #4169e1; stroke-width: 0.5"/>
    <path d="M 139.428034 142.482785 
L 143.198815 143.423276 
L 146.97454 143.952616 
L 148.970341 141.931137 
L 150.959071 139.79782 
L 147.190427 139.339154 
L 143.427693 138.500755 
L 141.433001 140.681021 
z
" clip-path="url(#p96ba07ae39)" style="fill: #1b699f; fill-opacity: 0.3; stroke: #4169e1; stroke-width: 0.5"/>
    <path d="M 127.809286 140.348133 
L 131.600321 143.102314 
L 135.384917 145.017174 
L 137.412102 143.914918 
L 139.428034 142.482785 
L 135.657134 140.848208 
L 131.891973 139.13917 
L 129.855551 139.799023 
z
" clip-path="url(#p96ba07ae39)" style="fill: #0e3754; fill-opacity: 0.3; stroke: #4169e1; stroke-width: 0.5"/>
    <path d="M 170.064714 137.241854 
L 173.875826 138.233081 
L 177.695028 139.539654 
L 179.645885 137.292249 
L 181.588327 136.062311 
L 177.779827 133.239481 
L 173.975192 130.719936 
L 172.02211 133.818704 
z
" clip-path="url(#p96ba07ae39)" style="fill: #1b689e; fill-opacity: 0.3; stroke: #4169e1; stroke-width: 0.5"/>
    <path d="M 200.739165 138.010699 
L 204.591048 138.173185 
L 208.458753 137.886222 
L 210.343654 137.386574 
L 206.490521 136.786954 
L 202.645795 136.308904 
z
" clip-path="url(#p96ba07ae39)" style="fill: #196193; fill-opacity: 0.3; stroke: #4169e1; stroke-width: 0.5"/>
    <path d="M 189.23341 138.521271 
L 193.067766 139.768362 
L 196.911249 140.861387 
L 198.82688 139.637039 
L 200.739165 138.010699 
L 196.901216 137.417351 
L 193.075173 136.450515 
L 191.158312 137.410308 
z
" clip-path="url(#p96ba07ae39)" style="fill: #144c73; fill-opacity: 0.3; stroke: #4169e1; stroke-width: 0.5"/>
    <path d="M 158.523852 140.383436 
L 162.323313 141.167028 
L 166.131523 141.842399 
L 168.101381 139.750776 
L 170.064714 137.241854 
L 166.262602 136.469872 
L 162.468651 135.470888 
L 160.499323 137.992181 
z
" clip-path="url(#p96ba07ae39)" style="fill: #1d6ea6; fill-opacity: 0.3; stroke: #4169e1; stroke-width: 0.5"/>
    <path d="M 146.97454 143.952616 
L 150.760686 144.594308 
L 154.555856 145.184721 
L 156.544096 143.030546 
L 158.523852 140.383436 
L 154.735939 140.017799 
L 150.959071 139.79782 
L 148.970341 141.931137 
z
" clip-path="url(#p96ba07ae39)" style="fill: #1d6fa8; fill-opacity: 0.3; stroke: #4169e1; stroke-width: 0.5"/>
    <path d="M 135.384917 145.017174 
L 139.168809 146.324055 
L 142.960722 147.664701 
L 144.971614 145.884296 
L 146.97454 143.952616 
L 143.198815 143.423276 
L 139.428034 142.482785 
L 137.412102 143.914918 
z
" clip-path="url(#p96ba07ae39)" style="fill: #155079; fill-opacity: 0.3; stroke: #4169e1; stroke-width: 0.5"/>
    <path d="M 177.695028 139.539654 
L 181.521679 140.965812 
L 185.35812 141.796581 
L 187.299961 139.948853 
L 189.23341 138.521271 
L 185.405691 137.605691 
L 181.588327 136.062311 
L 179.645885 137.292249 
z
" clip-path="url(#p96ba07ae39)" style="fill: #175783; fill-opacity: 0.3; stroke: #4169e1; stroke-width: 0.5"/>
    <path d="M 166.131523 141.842399 
L 169.949354 142.770143 
L 173.775882 144.233594 
L 175.738297 141.899684 
L 177.695028 139.539654 
L 173.875826 138.233081 
L 170.064714 137.241854 
L 168.101381 139.750776 
z
" clip-path="url(#p96ba07ae39)" style="fill: #1b669a; fill-opacity: 0.3; stroke: #4169e1; stroke-width: 0.5"/>
    <path d="M 196.911249 140.861387 
L 200.771226 141.041883 
L 204.654267 140.00786 
L 206.560293 138.925385 
L 208.458753 137.886222 
L 204.591048 138.173185 
L 200.739165 138.010699 
L 198.82688 139.637039 
z
" clip-path="url(#p96ba07ae39)" style="fill: #1a6396; fill-opacity: 0.3; stroke: #4169e1; stroke-width: 0.5"/>
    <path d="M 208.458753 137.886222 
L 212.339664 137.494783 
L 216.220118 138.011661 
L 218.099558 137.156577 
L 214.220042 136.957871 
L 210.343654 137.386574 
z
" clip-path="url(#p96ba07ae39)" style="fill: #185d8c; fill-opacity: 0.3; stroke: #4169e1; stroke-width: 0.5"/>
    <path d="M 154.555856 145.184721 
L 158.362831 146.235108 
L 162.177843 147.18724 
L 164.157688 144.61822 
L 166.131523 141.842399 
L 162.323313 141.167028 
L 158.523852 140.383436 
L 156.544096 143.030546 
z
" clip-path="url(#p96ba07ae39)" style="fill: #1c6ba2; fill-opacity: 0.3; stroke: #4169e1; stroke-width: 0.5"/>
    <path d="M 123.705446 142.298985 
L 127.508987 145.082467 
L 131.303469 146.920378 
L 133.351611 146.233023 
L 135.384917 145.017174 
L 131.600321 143.102314 
L 127.809286 140.348133 
L 125.756996 141.048411 
z
" clip-path="url(#p96ba07ae39)" style="fill: #0e3652; fill-opacity: 0.3; stroke: #4169e1; stroke-width: 0.5"/>
    <path d="M 142.960722 147.664701 
L 146.759188 148.882446 
L 150.563834 149.862989 
L 152.562652 147.503478 
L 154.555856 145.184721 
L 150.760686 144.594308 
L 146.97454 143.952616 
L 144.971614 145.884296 
z
" clip-path="url(#p96ba07ae39)" style="fill: #1a6497; fill-opacity: 0.3; stroke: #4169e1; stroke-width: 0.5"/>
    <path d="M 185.35812 141.796581 
L 189.20458 142.433106 
L 193.062335 142.796952 
L 194.992151 141.587334 
L 196.911249 140.861387 
L 193.067766 139.768362 
L 189.23341 138.521271 
L 187.299961 139.948853 
z
" clip-path="url(#p96ba07ae39)" style="fill: #185d8d; fill-opacity: 0.3; stroke: #4169e1; stroke-width: 0.5"/>
    <path d="M 173.775882 144.233594 
L 177.610239 145.388405 
L 181.454608 145.853716 
L 183.409659 143.74834 
L 185.35812 141.796581 
L 181.521679 140.965812 
L 177.695028 139.539654 
L 175.738297 141.899684 
z
" clip-path="url(#p96ba07ae39)" style="fill: #1b699f; fill-opacity: 0.3; stroke: #4169e1; stroke-width: 0.5"/>
    <path d="M 131.303469 146.920378 
L 135.099162 148.346978 
L 138.905977 150.096367 
L 140.940779 149.224505 
L 142.960722 147.664701 
L 139.168809 146.324055 
L 135.384917 145.017174 
L 133.351611 146.233023 
z
" clip-path="url(#p96ba07ae39)" style="fill: #114265; fill-opacity: 0.3; stroke: #4169e1; stroke-width: 0.5"/>
    <path d="M 162.177843 147.18724 
L 166.000707 147.802868 
L 169.833415 148.641913 
L 171.807689 146.536647 
L 173.775882 144.233594 
L 169.949354 142.770143 
L 166.131523 141.842399 
L 164.157688 144.61822 
z
" clip-path="url(#p96ba07ae39)" style="fill: #1d70a9; fill-opacity: 0.3; stroke: #4169e1; stroke-width: 0.5"/>
    <path d="M 216.220118 138.011661 
L 220.102559 139.05136 
L 223.996571 139.913689 
L 225.880462 138.156898 
L 221.980584 137.936992 
L 218.099558 137.156577 
z
" clip-path="url(#p96ba07ae39)" style="fill: #144e77; fill-opacity: 0.3; stroke: #4169e1; stroke-width: 0.5"/>
    <path d="M 204.654267 140.00786 
L 208.550216 139.056905 
L 212.436893 139.914294 
L 214.334424 138.789428 
L 216.220118 138.011661 
L 212.339664 137.494783 
L 208.458753 137.886222 
L 206.560293 138.925385 
z
" clip-path="url(#p96ba07ae39)" style="fill: #1a6395; fill-opacity: 0.3; stroke: #4169e1; stroke-width: 0.5"/>
    <path d="M 150.563834 149.862989 
L 154.375743 150.631568 
L 158.198811 151.794389 
L 160.190469 149.303529 
L 162.177843 147.18724 
L 158.362831 146.235108 
L 154.555856 145.184721 
L 152.562652 147.503478 
z
" clip-path="url(#p96ba07ae39)" style="fill: #1c6aa0; fill-opacity: 0.3; stroke: #4169e1; stroke-width: 0.5"/>
    <path d="M 193.062335 142.796952 
L 196.933905 142.699553 
L 200.819727 142.294036 
L 202.739666 141.242924 
L 204.654267 140.00786 
L 200.771226 141.041883 
L 196.911249 140.861387 
L 194.992151 141.587334 
z
" clip-path="url(#p96ba07ae39)" style="fill: #185b8a; fill-opacity: 0.3; stroke: #4169e1; stroke-width: 0.5"/>
    <path d="M 138.905977 150.096367 
L 142.722986 152.192809 
L 146.543795 154.059402 
L 148.561854 152.556773 
L 150.563834 149.862989 
L 146.759188 148.882446 
L 142.960722 147.664701 
L 140.940779 149.224505 
z
" clip-path="url(#p96ba07ae39)" style="fill: #124569; fill-opacity: 0.3; stroke: #4169e1; stroke-width: 0.5"/>
    <path d="M 119.578871 144.755767 
L 123.383902 146.928205 
L 127.187381 148.630106 
L 129.247326 147.627058 
L 131.303469 146.920378 
L 127.508987 145.082467 
L 123.705446 142.298985 
L 121.648624 143.683336 
z
" clip-path="url(#p96ba07ae39)" style="fill: #0f3a57; fill-opacity: 0.3; stroke: #4169e1; stroke-width: 0.5"/>
    <path d="M 181.454608 145.853716 
L 185.308694 146.395367 
L 189.173886 146.693539 
L 191.123302 144.379832 
L 193.062335 142.796952 
L 189.20458 142.433106 
L 185.35812 141.796581 
L 183.409659 143.74834 
z
" clip-path="url(#p96ba07ae39)" style="fill: #1c6ca4; fill-opacity: 0.3; stroke: #4169e1; stroke-width: 0.5"/>
    <path d="M 169.833415 148.641913 
L 173.675173 149.486234 
L 177.526009 150.328186 
L 179.492935 148.259921 
L 181.454608 145.853716 
L 177.610239 145.388405 
L 173.775882 144.233594 
L 171.807689 146.536647 
z
" clip-path="url(#p96ba07ae39)" style="fill: #1b699e; fill-opacity: 0.3; stroke: #4169e1; stroke-width: 0.5"/>
    <path d="M 223.996571 139.913689 
L 227.909338 140.234726 
L 231.839237 140.211326 
L 233.715357 138.451631 
L 229.789606 138.457392 
L 225.880462 138.156898 
z
" clip-path="url(#p96ba07ae39)" style="fill: #1b699e; fill-opacity: 0.3; stroke: #4169e1; stroke-width: 0.5"/>
    <path d="M 212.436893 139.914294 
L 216.316193 141.953167 
L 220.209275 143.492409 
L 222.104274 141.812016 
L 223.996571 139.913689 
L 220.102559 139.05136 
L 216.220118 138.011661 
L 214.334424 138.789428 
z
" clip-path="url(#p96ba07ae39)" style="fill: #124366; fill-opacity: 0.3; stroke: #4169e1; stroke-width: 0.5"/>
    <path d="M 158.198811 151.794389 
L 162.029386 152.770056 
L 165.867866 153.421957 
L 167.853469 150.992884 
L 169.833415 148.641913 
L 166.000707 147.802868 
L 162.177843 147.18724 
L 160.190469 149.303529 
z
" clip-path="url(#p96ba07ae39)" style="fill: #1c6da5; fill-opacity: 0.3; stroke: #4169e1; stroke-width: 0.5"/>
    <path d="M 127.187381 148.630106 
L 130.993725 150.05031 
L 134.804324 151.213195 
L 136.860231 150.724304 
L 138.905977 150.096367 
L 135.099162 148.346978 
L 131.303469 146.920378 
L 129.247326 147.627058 
z
" clip-path="url(#p96ba07ae39)" style="fill: #114365; fill-opacity: 0.3; stroke: #4169e1; stroke-width: 0.5"/>
    <path d="M 146.543795 154.059402 
L 150.362874 154.854769 
L 154.190126 155.494793 
L 156.197544 153.60435 
L 158.198811 151.794389 
L 154.375743 150.631568 
L 150.563834 149.862989 
L 148.561854 152.556773 
z
" clip-path="url(#p96ba07ae39)" style="fill: #1c6ba2; fill-opacity: 0.3; stroke: #4169e1; stroke-width: 0.5"/>
    <path d="M 200.819727 142.294036 
L 204.714561 142.215348 
L 208.618066 142.388546 
L 210.530554 141.184833 
L 212.436893 139.914294 
L 208.550216 139.056905 
L 204.654267 140.00786 
L 202.739666 141.242924 
z
" clip-path="url(#p96ba07ae39)" style="fill: #1c6aa0; fill-opacity: 0.3; stroke: #4169e1; stroke-width: 0.5"/>
    <path d="M 189.173886 146.693539 
L 193.056907 145.846676 
L 196.952316 145.143402 
L 198.890787 143.555903 
L 200.819727 142.294036 
L 196.933905 142.699553 
L 193.062335 142.796952 
L 191.123302 144.379832 
z
" clip-path="url(#p96ba07ae39)" style="fill: #1c6ba3; fill-opacity: 0.3; stroke: #4169e1; stroke-width: 0.5"/>
    <path d="M 177.526009 150.328186 
L 181.385523 151.343065 
L 185.258499 151.121451 
L 187.219443 148.84328 
L 189.173886 146.693539 
L 185.308694 146.395367 
L 181.454608 145.853716 
L 179.492935 148.259921 
z
" clip-path="url(#p96ba07ae39)" style="fill: #1d70a9; fill-opacity: 0.3; stroke: #4169e1; stroke-width: 0.5"/>
    <path d="M 220.209275 143.492409 
L 224.117821 144.54847 
L 228.047195 144.927254 
L 229.945978 142.567354 
L 231.839237 140.211326 
L 227.909338 140.234726 
L 223.996571 139.913689 
L 222.104274 141.812016 
z
" clip-path="url(#p96ba07ae39)" style="fill: #1c6aa0; fill-opacity: 0.3; stroke: #4169e1; stroke-width: 0.5"/>
    <path d="M 134.804324 151.213195 
L 138.631427 153.099025 
L 142.466103 155.096446 
L 144.510283 154.691105 
L 146.543795 154.059402 
L 142.722986 152.192809 
L 138.905977 150.096367 
L 136.860231 150.724304 
z
" clip-path="url(#p96ba07ae39)" style="fill: #0e3753; fill-opacity: 0.3; stroke: #4169e1; stroke-width: 0.5"/>
    <path d="M 165.867866 153.421957 
L 169.715875 154.032578 
L 173.573612 155.009849 
L 175.552666 152.779339 
L 177.526009 150.328186 
L 173.675173 149.486234 
L 169.833415 148.641913 
L 167.853469 150.992884 
z
" clip-path="url(#p96ba07ae39)" style="fill: #1c6da5; fill-opacity: 0.3; stroke: #4169e1; stroke-width: 0.5"/>
    <path d="M 231.839237 140.211326 
L 235.78329 140.057585 
L 239.739137 139.908295 
L 241.596488 138.65072 
L 237.650562 138.539764 
L 233.715357 138.451631 
z
" clip-path="url(#p96ba07ae39)" style="fill: #1b699e; fill-opacity: 0.3; stroke: #4169e1; stroke-width: 0.5"/>
    <path d="M 115.405573 146.372781 
L 119.215131 148.137096 
L 123.021219 149.289334 
L 125.113017 149.226902 
L 127.187381 148.630106 
L 123.383902 146.928205 
L 119.578871 144.755767 
L 117.499254 145.720873 
z
" clip-path="url(#p96ba07ae39)" style="fill: #103c5b; fill-opacity: 0.3; stroke: #4169e1; stroke-width: 0.5"/>
    <path d="M 154.190126 155.494793 
L 158.029551 156.639489 
L 161.878789 158.161566 
L 163.876269 155.787709 
L 165.867866 153.421957 
L 162.029386 152.770056 
L 158.198811 151.794389 
L 156.197544 153.60435 
z
" clip-path="url(#p96ba07ae39)" style="fill: #185d8c; fill-opacity: 0.3; stroke: #4169e1; stroke-width: 0.5"/>
    <path d="M 208.618066 142.388546 
L 212.515568 143.892855 
L 216.409213 146.21284 
L 218.314835 144.702203 
L 220.209275 143.492409 
L 216.316193 141.953167 
L 212.436893 139.914294 
L 210.530554 141.184833 
z
" clip-path="url(#p96ba07ae39)" style="fill: #103f5f; fill-opacity: 0.3; stroke: #4169e1; stroke-width: 0.5"/>
    <path d="M 142.466103 155.096446 
L 146.305903 156.976337 
L 150.153263 158.993178 
L 152.174985 157.225922 
L 154.190126 155.494793 
L 150.362874 154.854769 
L 146.543795 154.059402 
L 144.510283 154.691105 
z
" clip-path="url(#p96ba07ae39)" style="fill: #103d5c; fill-opacity: 0.3; stroke: #4169e1; stroke-width: 0.5"/>
    <path d="M 123.021219 149.289334 
L 126.849424 151.346796 
L 130.677131 152.942503 
L 132.74375 151.998123 
L 134.804324 151.213195 
L 130.993725 150.05031 
L 127.187381 148.630106 
L 125.113017 149.226902 
z
" clip-path="url(#p96ba07ae39)" style="fill: #0f3855; fill-opacity: 0.3; stroke: #4169e1; stroke-width: 0.5"/>
    <path d="M 196.952316 145.143402 
L 200.846941 146.003186 
L 204.75472 146.478722 
L 206.686393 144.712059 
L 208.618066 142.388546 
L 204.714561 142.215348 
L 200.819727 142.294036 
L 198.890787 143.555903 
z
" clip-path="url(#p96ba07ae39)" style="fill: #1b679c; fill-opacity: 0.3; stroke: #4169e1; stroke-width: 0.5"/>
    <path d="M 173.573612 155.009849 
L 177.439939 156.183264 
L 181.316247 156.726737 
L 183.289793 153.988099 
L 185.258499 151.121451 
L 181.385523 151.343065 
L 177.526009 150.328186 
L 175.552666 152.779339 
z
" clip-path="url(#p96ba07ae39)" style="fill: #1c6ba2; fill-opacity: 0.3; stroke: #4169e1; stroke-width: 0.5"/>
    <path d="M 185.258499 151.121451 
L 189.147245 150.144574 
L 193.044357 150.03343 
L 195.004276 147.143252 
L 196.952316 145.143402 
L 193.056907 145.846676 
L 189.173886 146.693539 
L 187.219443 148.84328 
z
" clip-path="url(#p96ba07ae39)" style="fill: #1e73af; fill-opacity: 0.3; stroke: #4169e1; stroke-width: 0.5"/>
    <path d="M 228.047195 144.927254 
L 231.990549 145.125888 
L 235.947251 145.211958 
L 237.852248 142.250583 
L 239.739137 139.908295 
L 235.78329 140.057585 
L 231.839237 140.211326 
L 229.945978 142.567354 
z
" clip-path="url(#p96ba07ae39)" style="fill: #1e74af; fill-opacity: 0.3; stroke: #4169e1; stroke-width: 0.5"/>
    <path d="M 161.878789 158.161566 
L 165.73384 159.052929 
L 169.597832 159.840895 
L 171.588579 157.330744 
L 173.573612 155.009849 
L 169.715875 154.032578 
L 165.867866 153.421957 
L 163.876269 155.787709 
z
" clip-path="url(#p96ba07ae39)" style="fill: #1d6ea6; fill-opacity: 0.3; stroke: #4169e1; stroke-width: 0.5"/>
    <path d="M 239.739137 139.908295 
L 243.705402 139.82503 
L 247.642332 141.439947 
L 249.492505 140.062665 
L 245.551768 138.840951 
L 241.596488 138.65072 
z
" clip-path="url(#p96ba07ae39)" style="fill: #1b669a; fill-opacity: 0.3; stroke: #4169e1; stroke-width: 0.5"/>
    <path d="M 216.409213 146.21284 
L 220.31851 147.871754 
L 224.245677 148.891763 
L 226.151662 146.779918 
L 228.047195 144.927254 
L 224.117821 144.54847 
L 220.209275 143.492409 
L 218.314835 144.702203 
z
" clip-path="url(#p96ba07ae39)" style="fill: #15517a; fill-opacity: 0.3; stroke: #4169e1; stroke-width: 0.5"/>
    <path d="M 150.153263 158.993178 
L 154.007001 161.040005 
L 157.864848 162.695059 
L 159.875199 160.498668 
L 161.878789 158.161566 
L 158.029551 156.639489 
L 154.190126 155.494793 
L 152.174985 157.225922 
z
" clip-path="url(#p96ba07ae39)" style="fill: #15527b; fill-opacity: 0.3; stroke: #4169e1; stroke-width: 0.5"/>
    <path d="M 130.677131 152.942503 
L 134.508004 154.224412 
L 138.356596 156.344742 
L 140.415108 155.676437 
L 142.466103 155.096446 
L 138.631427 153.099025 
L 134.804324 151.213195 
L 132.74375 151.998123 
z
" clip-path="url(#p96ba07ae39)" style="fill: #103c5b; fill-opacity: 0.3; stroke: #4169e1; stroke-width: 0.5"/>
    <path d="M 111.181134 147.125477 
L 115.005277 149.005308 
L 118.82613 150.342501 
L 120.922647 149.501975 
L 123.021219 149.289334 
L 119.215131 148.137096 
L 115.405573 146.372781 
L 113.295066 146.607395 
z
" clip-path="url(#p96ba07ae39)" style="fill: #0f3957; fill-opacity: 0.3; stroke: #4169e1; stroke-width: 0.5"/>
    <path d="M 204.75472 146.478722 
L 208.66763 147.400207 
L 212.581801 148.938759 
L 214.501812 147.361576 
L 216.409213 146.21284 
L 212.515568 143.892855 
L 208.618066 142.388546 
L 206.686393 144.712059 
z
" clip-path="url(#p96ba07ae39)" style="fill: #185d8d; fill-opacity: 0.3; stroke: #4169e1; stroke-width: 0.5"/>
    <path d="M 247.642332 141.439947 
L 251.550391 144.476837 
L 255.473014 147.110745 
L 257.356825 144.054227 
L 253.425696 141.895719 
L 249.492505 140.062665 
z
" clip-path="url(#p96ba07ae39)" style="fill: #13476c; fill-opacity: 0.3; stroke: #4169e1; stroke-width: 0.5"/>
    <path d="M 181.316247 156.726737 
L 185.205224 156.578772 
L 189.103992 156.832483 
L 191.077224 153.291958 
L 193.044357 150.03343 
L 189.147245 150.144574 
L 185.258499 151.121451 
L 183.289793 153.988099 
z
" clip-path="url(#p96ba07ae39)" style="fill: #1f76b2; fill-opacity: 0.3; stroke: #4169e1; stroke-width: 0.5"/>
    <path d="M 235.947251 145.211958 
L 239.904648 145.790205 
L 243.851423 147.27056 
L 245.761696 143.828822 
L 247.642332 141.439947 
L 243.705402 139.82503 
L 239.739137 139.908295 
L 237.852248 142.250583 
z
" clip-path="url(#p96ba07ae39)" style="fill: #1c6da5; fill-opacity: 0.3; stroke: #4169e1; stroke-width: 0.5"/>
    <path d="M 169.597832 159.840895 
L 173.471205 160.595486 
L 177.354557 160.97021 
L 179.338363 158.923755 
L 181.316247 156.726737 
L 177.439939 156.183264 
L 173.573612 155.009849 
L 171.588579 157.330744 
z
" clip-path="url(#p96ba07ae39)" style="fill: #1d6da6; fill-opacity: 0.3; stroke: #4169e1; stroke-width: 0.5"/>
    <path d="M 193.044357 150.03343 
L 196.947824 150.624374 
L 200.853922 152.036256 
L 202.807164 149.231713 
L 204.75472 146.478722 
L 200.846941 146.003186 
L 196.952316 145.143402 
L 195.004276 147.143252 
z
" clip-path="url(#p96ba07ae39)" style="fill: #1c6ba2; fill-opacity: 0.3; stroke: #4169e1; stroke-width: 0.5"/>
    <path d="M 224.245677 148.891763 
L 228.183119 149.837459 
L 232.138005 150.352883 
L 234.044208 147.835293 
L 235.947251 145.211958 
L 231.990549 145.125888 
L 228.047195 144.927254 
L 226.151662 146.779918 
z
" clip-path="url(#p96ba07ae39)" style="fill: #1c6da5; fill-opacity: 0.3; stroke: #4169e1; stroke-width: 0.5"/>
    <path d="M 138.356596 156.344742 
L 142.219796 159.305602 
L 146.082444 161.78178 
L 148.123106 160.572314 
L 150.153263 158.993178 
L 146.305903 156.976337 
L 142.466103 155.096446 
L 140.415108 155.676437 
z
" clip-path="url(#p96ba07ae39)" style="fill: #0e3652; fill-opacity: 0.3; stroke: #4169e1; stroke-width: 0.5"/>
    <path d="M 157.864848 162.695059 
L 161.727664 163.7891 
L 165.598415 164.621888 
L 167.601278 162.322552 
L 169.597832 159.840895 
L 165.73384 159.052929 
L 161.878789 158.161566 
L 159.875199 160.498668 
z
" clip-path="url(#p96ba07ae39)" style="fill: #1c6aa0; fill-opacity: 0.3; stroke: #4169e1; stroke-width: 0.5"/>
    <path d="M 255.473014 147.110745 
L 259.419637 149.063488 
L 263.352235 151.71735 
L 265.228421 148.664681 
L 261.304353 145.852416 
L 257.356825 144.054227 
z
" clip-path="url(#p96ba07ae39)" style="fill: #185b8a; fill-opacity: 0.3; stroke: #4169e1; stroke-width: 0.5"/>
    <path d="M 118.82613 150.342501 
L 122.669059 152.531202 
L 126.520518 154.900054 
L 128.604476 154.028419 
L 130.677131 152.942503 
L 126.849424 151.346796 
L 123.021219 149.289334 
L 120.922647 149.501975 
z
" clip-path="url(#p96ba07ae39)" style="fill: #0e3551; fill-opacity: 0.3; stroke: #4169e1; stroke-width: 0.5"/>
    <path d="M 212.581801 148.938759 
L 216.499013 150.800839 
L 220.427976 152.340581 
L 222.337921 150.747443 
L 224.245677 148.891763 
L 220.31851 147.871754 
L 216.409213 146.21284 
L 214.501812 147.361576 
z
" clip-path="url(#p96ba07ae39)" style="fill: #12466a; fill-opacity: 0.3; stroke: #4169e1; stroke-width: 0.5"/>
    <path d="M 243.851423 147.27056 
L 247.78537 149.600025 
L 251.714464 152.338837 
L 253.59906 149.619067 
L 255.473014 147.110745 
L 251.550391 144.476837 
L 247.642332 141.439947 
L 245.761696 143.828822 
z
" clip-path="url(#p96ba07ae39)" style="fill: #144f77; fill-opacity: 0.3; stroke: #4169e1; stroke-width: 0.5"/>
    <path d="M 146.082444 161.78178 
L 149.947394 163.901016 
L 153.814092 165.365749 
L 155.844748 164.295164 
L 157.864848 162.695059 
L 154.007001 161.040005 
L 150.153263 158.993178 
L 148.123106 160.572314 
z
" clip-path="url(#p96ba07ae39)" style="fill: #114264; fill-opacity: 0.3; stroke: #4169e1; stroke-width: 0.5"/>
    <path d="M 263.352235 151.71735 
L 267.288596 154.405425 
L 269.163712 151.258678 
L 265.228421 148.664681 
z
" clip-path="url(#p96ba07ae39)" style="fill: #15527c; fill-opacity: 0.3; stroke: #4169e1; stroke-width: 0.5"/>
    <path d="M 200.853922 152.036256 
L 204.768289 153.41318 
L 208.689533 154.890465 
L 210.642953 151.518358 
L 212.581801 148.938759 
L 208.66763 147.400207 
L 204.75472 146.478722 
L 202.807164 149.231713 
z
" clip-path="url(#p96ba07ae39)" style="fill: #1b669a; fill-opacity: 0.3; stroke: #4169e1; stroke-width: 0.5"/>
    <path d="M 232.138005 150.352883 
L 236.099872 151.032033 
L 240.041367 153.100751 
L 241.937286 150.699235 
L 243.851423 147.27056 
L 239.904648 145.790205 
L 235.947251 145.211958 
L 234.044208 147.835293 
z
" clip-path="url(#p96ba07ae39)" style="fill: #1b679b; fill-opacity: 0.3; stroke: #4169e1; stroke-width: 0.5"/>
    <path d="M 189.103992 156.832483 
L 193.010124 157.633852 
L 196.925638 158.450194 
L 198.890512 155.43866 
L 200.853922 152.036256 
L 196.947824 150.624374 
L 193.044357 150.03343 
L 191.077224 153.291958 
z
" clip-path="url(#p96ba07ae39)" style="fill: #1d70a9; fill-opacity: 0.3; stroke: #4169e1; stroke-width: 0.5"/>
    <path d="M 126.520518 154.900054 
L 130.371275 156.845271 
L 134.229959 158.907802 
L 136.295467 157.491065 
L 138.356596 156.344742 
L 134.508004 154.224412 
L 130.677131 152.942503 
L 128.604476 154.028419 
z
" clip-path="url(#p96ba07ae39)" style="fill: #114061; fill-opacity: 0.3; stroke: #4169e1; stroke-width: 0.5"/>
    <path d="M 177.354557 160.97021 
L 181.248865 161.173928 
L 185.153039 161.678102 
L 187.130277 159.511072 
L 189.103992 156.832483 
L 185.205224 156.578772 
L 181.316247 156.726737 
L 179.338363 158.923755 
z
" clip-path="url(#p96ba07ae39)" style="fill: #1e72ac; fill-opacity: 0.3; stroke: #4169e1; stroke-width: 0.5"/>
    <path d="M 251.714464 152.338837 
L 255.641018 155.342265 
L 259.591452 157.639969 
L 261.466069 154.959219 
L 263.352235 151.71735 
L 259.419637 149.063488 
L 255.473014 147.110745 
L 253.59906 149.619067 
z
" clip-path="url(#p96ba07ae39)" style="fill: #15517a; fill-opacity: 0.3; stroke: #4169e1; stroke-width: 0.5"/>
    <path d="M 165.598415 164.621888 
L 169.477923 165.032024 
L 173.367845 164.864125 
L 175.364349 163.109041 
L 177.354557 160.97021 
L 173.471205 160.595486 
L 169.597832 159.840895 
L 167.601278 162.322552 
z
" clip-path="url(#p96ba07ae39)" style="fill: #1d70a9; fill-opacity: 0.3; stroke: #4169e1; stroke-width: 0.5"/>
    <path d="M 220.427976 152.340581 
L 224.368923 153.621219 
L 228.317814 154.92564 
L 230.227406 152.81888 
L 232.138005 150.352883 
L 228.183119 149.837459 
L 224.245677 148.891763 
L 222.337921 150.747443 
z
" clip-path="url(#p96ba07ae39)" style="fill: #185b8a; fill-opacity: 0.3; stroke: #4169e1; stroke-width: 0.5"/>
    <path d="M 106.891912 146.576814 
L 110.73843 148.853037 
L 114.601017 151.673123 
L 116.726211 151.451511 
L 118.82613 150.342501 
L 115.005277 149.005308 
L 111.181134 147.125477 
L 109.048615 147.184996 
z
" clip-path="url(#p96ba07ae39)" style="fill: #0d314a; fill-opacity: 0.3; stroke: #4169e1; stroke-width: 0.5"/>
    <path d="M 259.591452 157.639969 
L 263.56089 159.491883 
L 265.419281 157.21454 
L 267.288596 154.405425 
L 263.352235 151.71735 
L 261.466069 154.959219 
z
" clip-path="url(#p96ba07ae39)" style="fill: #15527c; fill-opacity: 0.3; stroke: #4169e1; stroke-width: 0.5"/>
    <path d="M 153.814092 165.365749 
L 157.686045 166.362672 
L 161.56621 167.176102 
L 163.586959 166.168389 
L 165.598415 164.621888 
L 161.727664 163.7891 
L 157.864848 162.695059 
L 155.844748 164.295164 
z
" clip-path="url(#p96ba07ae39)" style="fill: #16547f; fill-opacity: 0.3; stroke: #4169e1; stroke-width: 0.5"/>
    <path d="M 134.229959 158.907802 
L 138.095075 160.995299 
L 141.969446 163.385344 
L 144.029788 162.551178 
L 146.082444 161.78178 
L 142.219796 159.305602 
L 138.356596 156.344742 
L 136.295467 157.491065 
z
" clip-path="url(#p96ba07ae39)" style="fill: #0f3855; fill-opacity: 0.3; stroke: #4169e1; stroke-width: 0.5"/>
    <path d="M 240.041367 153.100751 
L 243.974713 155.796337 
L 247.921605 158.131535 
L 249.818795 155.301037 
L 251.714464 152.338837 
L 247.78537 149.600025 
L 243.851423 147.27056 
L 241.937286 150.699235 
z
" clip-path="url(#p96ba07ae39)" style="fill: #16537e; fill-opacity: 0.3; stroke: #4169e1; stroke-width: 0.5"/>
    <path d="M 208.689533 154.890465 
L 212.625675 155.815586 
L 216.573919 156.541221 
L 218.511191 153.950342 
L 220.427976 152.340581 
L 216.499013 150.800839 
L 212.581801 148.938759 
L 210.642953 151.518358 
z
" clip-path="url(#p96ba07ae39)" style="fill: #1d6ea6; fill-opacity: 0.3; stroke: #4169e1; stroke-width: 0.5"/>
    <path d="M 196.925638 158.450194 
L 200.849346 159.412154 
L 204.780953 160.497481 
L 206.735261 157.931472 
L 208.689533 154.890465 
L 204.768289 153.41318 
L 200.853922 152.036256 
L 198.890512 155.43866 
z
" clip-path="url(#p96ba07ae39)" style="fill: #1c6da5; fill-opacity: 0.3; stroke: #4169e1; stroke-width: 0.5"/>
    <path d="M 114.601017 151.673123 
L 118.467249 154.462429 
L 122.332201 156.92073 
L 124.43121 155.956744 
L 126.520518 154.900054 
L 122.669059 152.531202 
L 118.82613 150.342501 
L 116.726211 151.451511 
z
" clip-path="url(#p96ba07ae39)" style="fill: #0e3551; fill-opacity: 0.3; stroke: #4169e1; stroke-width: 0.5"/>
    <path d="M 185.153039 161.678102 
L 189.067599 162.162209 
L 192.99114 162.865559 
L 194.95936 160.950922 
L 196.925638 158.450194 
L 193.010124 157.633852 
L 189.103992 156.832483 
L 187.130277 159.511072 
z
" clip-path="url(#p96ba07ae39)" style="fill: #1d6fa9; fill-opacity: 0.3; stroke: #4169e1; stroke-width: 0.5"/>
    <path d="M 228.317814 154.92564 
L 232.273789 156.295411 
L 236.233911 157.862502 
L 238.141627 155.424218 
L 240.041367 153.100751 
L 236.099872 151.032033 
L 232.138005 150.352883 
L 230.227406 152.81888 
z
" clip-path="url(#p96ba07ae39)" style="fill: #1a6395; fill-opacity: 0.3; stroke: #4169e1; stroke-width: 0.5"/>
    <path d="M 247.921605 158.131535 
L 251.875302 160.42405 
L 255.833203 162.777088 
L 257.712583 160.292976 
L 259.591452 157.639969 
L 255.641018 155.342265 
L 251.714464 152.338837 
L 249.818795 155.301037 
z
" clip-path="url(#p96ba07ae39)" style="fill: #155079; fill-opacity: 0.3; stroke: #4169e1; stroke-width: 0.5"/>
    <path d="M 141.969446 163.385344 
L 145.846099 165.438674 
L 149.726504 167.175065 
L 151.774871 166.339782 
L 153.814092 165.365749 
L 149.947394 163.901016 
L 146.082444 161.78178 
L 144.029788 162.551178 
z
" clip-path="url(#p96ba07ae39)" style="fill: #0f3956; fill-opacity: 0.3; stroke: #4169e1; stroke-width: 0.5"/>
    <path d="M 173.367845 164.864125 
L 177.269923 164.558618 
L 181.183458 164.627687 
L 183.17107 163.387166 
L 185.153039 161.678102 
L 181.248865 161.173928 
L 177.354557 160.97021 
L 175.364349 163.109041 
z
" clip-path="url(#p96ba07ae39)" style="fill: #1c6ca4; fill-opacity: 0.3; stroke: #4169e1; stroke-width: 0.5"/>
    <path d="M 122.332201 156.92073 
L 126.198164 159.113476 
L 130.065914 161.022881 
L 132.151415 159.923014 
L 134.229959 158.907802 
L 130.371275 156.845271 
L 126.520518 154.900054 
L 124.43121 155.956744 
z
" clip-path="url(#p96ba07ae39)" style="fill: #0f3b5a; fill-opacity: 0.3; stroke: #4169e1; stroke-width: 0.5"/>
    <path d="M 161.56621 167.176102 
L 165.454299 167.420621 
L 169.352884 167.335368 
L 171.364258 166.258225 
L 173.367845 164.864125 
L 169.477923 165.032024 
L 165.598415 164.621888 
L 163.586959 166.168389 
z
" clip-path="url(#p96ba07ae39)" style="fill: #185e8e; fill-opacity: 0.3; stroke: #4169e1; stroke-width: 0.5"/>
    <path d="M 216.573919 156.541221 
L 220.528306 157.506519 
L 224.486416 158.802468 
L 226.410746 156.545223 
L 228.317814 154.92564 
L 224.368923 153.621219 
L 220.427976 152.340581 
L 218.511191 153.950342 
z
" clip-path="url(#p96ba07ae39)" style="fill: #196294; fill-opacity: 0.3; stroke: #4169e1; stroke-width: 0.5"/>
    <path d="M 255.833203 162.777088 
L 259.804947 164.843987 
L 261.687982 162.080451 
L 263.56089 159.491883 
L 259.591452 157.639969 
L 257.712583 160.292976 
z
" clip-path="url(#p96ba07ae39)" style="fill: #175986; fill-opacity: 0.3; stroke: #4169e1; stroke-width: 0.5"/>
    <path d="M 236.233911 157.862502 
L 240.18968 159.980668 
L 244.146263 162.335205 
L 246.03485 160.317608 
L 247.921605 158.131535 
L 243.974713 155.796337 
L 240.041367 153.100751 
L 238.141627 155.424218 
z
" clip-path="url(#p96ba07ae39)" style="fill: #144b72; fill-opacity: 0.3; stroke: #4169e1; stroke-width: 0.5"/>
    <path d="M 204.780953 160.497481 
L 208.722714 161.473144 
L 212.682598 161.756794 
L 214.628826 159.308761 
L 216.573919 156.541221 
L 212.625675 155.815586 
L 208.689533 154.890465 
L 206.735261 157.931472 
z
" clip-path="url(#p96ba07ae39)" style="fill: #1d71ab; fill-opacity: 0.3; stroke: #4169e1; stroke-width: 0.5"/>
    <path d="M 149.726504 167.175065 
L 153.611048 168.464937 
L 157.501795 169.366971 
L 159.538421 168.376184 
L 161.56621 167.176102 
L 157.686045 166.362672 
L 153.814092 165.365749 
L 151.774871 166.339782 
z
" clip-path="url(#p96ba07ae39)" style="fill: #13496f; fill-opacity: 0.3; stroke: #4169e1; stroke-width: 0.5"/>
    <path d="M 192.99114 162.865559 
L 196.925453 163.450287 
L 200.87195 163.815868 
L 202.827929 162.353761 
L 204.780953 160.497481 
L 200.849346 159.412154 
L 196.925638 158.450194 
L 194.95936 160.950922 
z
" clip-path="url(#p96ba07ae39)" style="fill: #1c6ca3; fill-opacity: 0.3; stroke: #4169e1; stroke-width: 0.5"/>
    <path d="M 102.576978 146.664664 
L 106.424704 148.358055 
L 110.320706 152.035914 
L 112.462496 151.698747 
L 114.601017 151.673123 
L 110.73843 148.853037 
L 106.891912 146.576814 
L 104.728107 146.123715 
z
" clip-path="url(#p96ba07ae39)" style="fill: #0d314a; fill-opacity: 0.3; stroke: #4169e1; stroke-width: 0.5"/>
    <path d="M 130.065914 161.022881 
L 133.937763 162.741567 
L 137.816561 164.447154 
L 139.895429 163.738122 
L 141.969446 163.385344 
L 138.095075 160.995299 
L 134.229959 158.907802 
L 132.151415 159.923014 
z
" clip-path="url(#p96ba07ae39)" style="fill: #103d5d; fill-opacity: 0.3; stroke: #4169e1; stroke-width: 0.5"/>
    <path d="M 244.146263 162.335205 
L 248.110459 164.612322 
L 252.072144 167.215832 
L 253.954491 165.035057 
L 255.833203 162.777088 
L 251.875302 160.42405 
L 247.921605 158.131535 
L 246.03485 160.317608 
z
" clip-path="url(#p96ba07ae39)" style="fill: #13496e; fill-opacity: 0.3; stroke: #4169e1; stroke-width: 0.5"/>
    <path d="M 224.486416 158.802468 
L 228.446573 160.452014 
L 232.426088 161.491775 
L 234.336553 159.507272 
L 236.233911 157.862502 
L 232.273789 156.295411 
L 228.317814 154.92564 
L 226.410746 156.545223 
z
" clip-path="url(#p96ba07ae39)" style="fill: #185a89; fill-opacity: 0.3; stroke: #4169e1; stroke-width: 0.5"/>
    <path d="M 181.183458 164.627687 
L 185.107253 165.018239 
L 189.039861 165.778953 
L 191.018313 164.452951 
L 192.99114 162.865559 
L 189.067599 162.162209 
L 185.153039 161.678102 
L 183.17107 163.387166 
z
" clip-path="url(#p96ba07ae39)" style="fill: #196193; fill-opacity: 0.3; stroke: #4169e1; stroke-width: 0.5"/>
    <path d="M 110.320706 152.035914 
L 114.218275 155.685776 
L 118.111957 159.002477 
L 120.225478 157.919539 
L 122.332201 156.92073 
L 118.467249 154.462429 
L 114.601017 151.673123 
L 112.462496 151.698747 
z
" clip-path="url(#p96ba07ae39)" style="fill: #0d3049; fill-opacity: 0.3; stroke: #4169e1; stroke-width: 0.5"/>
    <path d="M 169.352884 167.335368 
L 173.263357 167.575353 
L 177.185544 167.271657 
L 179.188797 165.634303 
L 181.183458 164.627687 
L 177.269923 164.558618 
L 173.367845 164.864125 
L 171.364258 166.258225 
z
" clip-path="url(#p96ba07ae39)" style="fill: #1a6497; fill-opacity: 0.3; stroke: #4169e1; stroke-width: 0.5"/>
    <path d="M 252.072144 167.215832 
L 256.045144 169.591021 
L 257.926021 167.28097 
L 259.804947 164.843987 
L 255.833203 162.777088 
L 253.954491 165.035057 
z
" clip-path="url(#p96ba07ae39)" style="fill: #144b72; fill-opacity: 0.3; stroke: #4169e1; stroke-width: 0.5"/>
    <path d="M 137.816561 164.447154 
L 141.713379 167.18484 
L 145.612819 169.71245 
L 147.672821 168.359307 
L 149.726504 167.175065 
L 145.846099 165.438674 
L 141.969446 163.385344 
L 139.895429 163.738122 
z
" clip-path="url(#p96ba07ae39)" style="fill: #0e3550; fill-opacity: 0.3; stroke: #4169e1; stroke-width: 0.5"/>
    <path d="M 212.682598 161.756794 
L 216.660301 161.564403 
L 220.643448 161.818343 
L 222.560564 160.792465 
L 224.486416 158.802468 
L 220.528306 157.506519 
L 216.573919 156.541221 
L 214.628826 159.308761 
z
" clip-path="url(#p96ba07ae39)" style="fill: #1d71ab; fill-opacity: 0.3; stroke: #4169e1; stroke-width: 0.5"/>
    <path d="M 157.501795 169.366971 
L 161.40002 169.817336 
L 165.307533 169.823193 
L 167.334232 168.675876 
L 169.352884 167.335368 
L 165.454299 167.420621 
L 161.56621 167.176102 
L 159.538421 168.376184 
z
" clip-path="url(#p96ba07ae39)" style="fill: #185c8a; fill-opacity: 0.3; stroke: #4169e1; stroke-width: 0.5"/>
    <path d="M 118.111957 159.002477 
L 121.996198 161.584175 
L 125.875013 163.507618 
L 127.971874 162.094027 
L 130.065914 161.022881 
L 126.198164 159.113476 
L 122.332201 156.92073 
L 120.225478 157.919539 
z
" clip-path="url(#p96ba07ae39)" style="fill: #0f3a57; fill-opacity: 0.3; stroke: #4169e1; stroke-width: 0.5"/>
    <path d="M 200.87195 163.815868 
L 204.829661 164.144184 
L 208.804935 163.905178 
L 210.743539 163.154809 
L 212.682598 161.756794 
L 208.722714 161.473144 
L 204.780953 160.497481 
L 202.827929 162.353761 
z
" clip-path="url(#p96ba07ae39)" style="fill: #196091; fill-opacity: 0.3; stroke: #4169e1; stroke-width: 0.5"/>
    <path d="M 232.426088 161.491775 
L 236.403682 163.068012 
L 240.379217 165.092171 
L 242.263215 163.843275 
L 244.146263 162.335205 
L 240.18968 159.980668 
L 236.233911 157.862502 
L 234.336553 159.507272 
z
" clip-path="url(#p96ba07ae39)" style="fill: #13496f; fill-opacity: 0.3; stroke: #4169e1; stroke-width: 0.5"/>
    <path d="M 189.039861 165.778953 
L 192.982169 166.552587 
L 196.941199 166.427262 
L 198.910223 165.121962 
L 200.87195 163.815868 
L 196.925453 163.450287 
L 192.99114 162.865559 
L 191.018313 164.452951 
z
" clip-path="url(#p96ba07ae39)" style="fill: #196091; fill-opacity: 0.3; stroke: #4169e1; stroke-width: 0.5"/>
    <path d="M 145.612819 169.71245 
L 149.509432 171.2404 
L 153.409225 172.087865 
L 155.459281 170.721283 
L 157.501795 169.366971 
L 153.611048 168.464937 
L 149.726504 167.175065 
L 147.672821 168.359307 
z
" clip-path="url(#p96ba07ae39)" style="fill: #144d74; fill-opacity: 0.3; stroke: #4169e1; stroke-width: 0.5"/>
    <path d="M 240.379217 165.092171 
L 244.345947 167.778093 
L 248.311211 170.72257 
L 250.185546 169.336679 
L 252.072144 167.215832 
L 248.110459 164.612322 
L 244.146263 162.335205 
L 242.263215 163.843275 
z
" clip-path="url(#p96ba07ae39)" style="fill: #103d5c; fill-opacity: 0.3; stroke: #4169e1; stroke-width: 0.5"/>
    <path d="M 125.875013 163.507618 
L 129.764491 165.711091 
L 133.659524 167.885912 
L 135.739471 165.989424 
L 137.816561 164.447154 
L 133.937763 162.741567 
L 130.065914 161.022881 
L 127.971874 162.094027 
z
" clip-path="url(#p96ba07ae39)" style="fill: #114061; fill-opacity: 0.3; stroke: #4169e1; stroke-width: 0.5"/>
    <path d="M 220.643448 161.818343 
L 224.611777 163.622049 
L 228.592543 165.13705 
L 230.514002 163.234935 
L 232.426088 161.491775 
L 228.446573 160.452014 
L 224.486416 158.802468 
L 222.560564 160.792465 
z
" clip-path="url(#p96ba07ae39)" style="fill: #13496f; fill-opacity: 0.3; stroke: #4169e1; stroke-width: 0.5"/>
    <path d="M 98.345144 151.707536 
L 102.170261 152.1346 
L 106.043709 154.275769 
L 108.161385 151.992634 
L 110.320706 152.035914 
L 106.424704 148.358055 
L 102.576978 146.664664 
L 100.445294 148.396398 
z
" clip-path="url(#p96ba07ae39)" style="fill: #1a6396; fill-opacity: 0.3; stroke: #4169e1; stroke-width: 0.5"/>
    <path d="M 177.185544 167.271657 
L 181.118202 167.794619 
L 185.060117 168.627625 
L 187.054153 167.084122 
L 189.039861 165.778953 
L 185.107253 165.018239 
L 181.183458 164.627687 
L 179.188797 165.634303 
z
" clip-path="url(#p96ba07ae39)" style="fill: #185e8e; fill-opacity: 0.3; stroke: #4169e1; stroke-width: 0.5"/>
    <path d="M 248.311211 170.72257 
L 252.3027 172.82245 
L 254.166702 171.599494 
L 256.045144 169.591021 
L 252.072144 167.215832 
L 250.185546 169.336679 
z
" clip-path="url(#p96ba07ae39)" style="fill: #114060; fill-opacity: 0.3; stroke: #4169e1; stroke-width: 0.5"/>
    <path d="M 106.043709 154.275769 
L 109.950841 157.738492 
L 113.86752 161.548601 
L 115.990686 160.11295 
L 118.111957 159.002477 
L 114.218275 155.685776 
L 110.320706 152.035914 
L 108.161385 151.992634 
z
" clip-path="url(#p96ba07ae39)" style="fill: #0e344f; fill-opacity: 0.3; stroke: #4169e1; stroke-width: 0.5"/>
    <path d="M 208.804935 163.905178 
L 212.787253 164.089591 
L 216.774123 164.758862 
L 218.707564 163.604492 
L 220.643448 161.818343 
L 216.660301 161.564403 
L 212.682598 161.756794 
L 210.743539 163.154809 
z
" clip-path="url(#p96ba07ae39)" style="fill: #196091; fill-opacity: 0.3; stroke: #4169e1; stroke-width: 0.5"/>
    <path d="M 165.307533 169.823193 
L 169.22675 169.831874 
L 173.157719 169.884089 
L 175.175256 168.862473 
L 177.185544 167.271657 
L 173.263357 167.575353 
L 169.352884 167.335368 
L 167.334232 168.675876 
z
" clip-path="url(#p96ba07ae39)" style="fill: #195f8f; fill-opacity: 0.3; stroke: #4169e1; stroke-width: 0.5"/>
    <path d="M 133.659524 167.885912 
L 137.559027 169.929423 
L 141.469926 172.443954 
L 143.544965 171.050377 
L 145.612819 169.71245 
L 141.713379 167.18484 
L 137.816561 164.447154 
L 135.739471 165.989424 
z
" clip-path="url(#p96ba07ae39)" style="fill: #103f5f; fill-opacity: 0.3; stroke: #4169e1; stroke-width: 0.5"/>
    <path d="M 113.86752 161.548601 
L 117.771607 164.57377 
L 121.679161 167.576518 
L 123.781069 165.572667 
L 125.875013 163.507618 
L 121.996198 161.584175 
L 118.111957 159.002477 
L 115.990686 160.11295 
z
" clip-path="url(#p96ba07ae39)" style="fill: #0f3a57; fill-opacity: 0.3; stroke: #4169e1; stroke-width: 0.5"/>
    <path d="M 228.592543 165.13705 
L 232.591894 166.108067 
L 236.590719 167.560255 
L 238.491805 166.172424 
L 240.379217 165.092171 
L 236.403682 163.068012 
L 232.426088 161.491775 
L 230.514002 163.234935 
z
" clip-path="url(#p96ba07ae39)" style="fill: #175783; fill-opacity: 0.3; stroke: #4169e1; stroke-width: 0.5"/>
    <path d="M 153.409225 172.087865 
L 157.315634 172.397389 
L 161.233847 172.91807 
L 163.274071 171.284889 
L 165.307533 169.823193 
L 161.40002 169.817336 
L 157.501795 169.366971 
L 155.459281 170.721283 
z
" clip-path="url(#p96ba07ae39)" style="fill: #195f8f; fill-opacity: 0.3; stroke: #4169e1; stroke-width: 0.5"/>
    <path d="M 196.941199 166.427262 
L 200.917906 165.693565 
L 204.905818 165.215385 
L 206.857311 164.753902 
L 208.804935 163.905178 
L 204.829661 164.144184 
L 200.87195 163.815868 
L 198.910223 165.121962 
z
" clip-path="url(#p96ba07ae39)" style="fill: #195e8f; fill-opacity: 0.3; stroke: #4169e1; stroke-width: 0.5"/>
    <path d="M 94.146618 159.001511 
L 97.995086 160.268406 
L 101.86558 162.118994 
L 103.956061 158.163091 
L 106.043709 154.275769 
L 102.170261 152.1346 
L 98.345144 151.707536 
L 96.255703 155.646549 
z
" clip-path="url(#p96ba07ae39)" style="fill: #1b689d; fill-opacity: 0.3; stroke: #4169e1; stroke-width: 0.5"/>
    <path d="M 185.060117 168.627625 
L 189.010525 169.691129 
L 192.976501 169.746399 
L 194.962168 168.108549 
L 196.941199 166.427262 
L 192.982169 166.552587 
L 189.039861 165.778953 
L 187.054153 167.084122 
z
" clip-path="url(#p96ba07ae39)" style="fill: #185c8b; fill-opacity: 0.3; stroke: #4169e1; stroke-width: 0.5"/>
    <path d="M 141.469926 172.443954 
L 145.379928 174.303374 
L 149.293045 175.68814 
L 151.351659 173.474896 
L 153.409225 172.087865 
L 149.509432 171.2404 
L 145.612819 169.71245 
L 143.544965 171.050377 
z
" clip-path="url(#p96ba07ae39)" style="fill: #13486c; fill-opacity: 0.3; stroke: #4169e1; stroke-width: 0.5"/>
    <path d="M 121.679161 167.576518 
L 125.588922 170.470733 
L 129.488104 172.349218 
L 131.576278 170.055135 
L 133.659524 167.885912 
L 129.764491 165.711091 
L 125.875013 163.507618 
L 123.781069 165.572667 
z
" clip-path="url(#p96ba07ae39)" style="fill: #13486d; fill-opacity: 0.3; stroke: #4169e1; stroke-width: 0.5"/>
    <path d="M 216.774123 164.758862 
L 220.760965 166.087215 
L 224.753914 167.558855 
L 226.67459 166.477146 
L 228.592543 165.13705 
L 224.611777 163.622049 
L 220.643448 161.818343 
L 218.707564 163.604492 
z
" clip-path="url(#p96ba07ae39)" style="fill: #13496f; fill-opacity: 0.3; stroke: #4169e1; stroke-width: 0.5"/>
    <path d="M 236.590719 167.560255 
L 240.589352 169.393541 
L 244.590145 171.444105 
L 246.446821 171.412222 
L 248.311211 170.72257 
L 244.345947 167.778093 
L 240.379217 165.092171 
L 238.491805 166.172424 
z
" clip-path="url(#p96ba07ae39)" style="fill: #0f3a58; fill-opacity: 0.3; stroke: #4169e1; stroke-width: 0.5"/>
    <path d="M 173.157719 169.884089 
L 177.099861 170.376652 
L 181.053303 170.580811 
L 183.060909 169.534835 
L 185.060117 168.627625 
L 181.118202 167.794619 
L 177.185544 167.271657 
L 175.175256 168.862473 
z
" clip-path="url(#p96ba07ae39)" style="fill: #185d8c; fill-opacity: 0.3; stroke: #4169e1; stroke-width: 0.5"/>
    <path d="M 101.86558 162.118994 
L 105.748084 164.202473 
L 109.631238 166.020796 
L 111.74794 163.54733 
L 113.86752 161.548601 
L 109.950841 157.738492 
L 106.043709 154.275769 
L 103.956061 158.163091 
z
" clip-path="url(#p96ba07ae39)" style="fill: #185e8e; fill-opacity: 0.3; stroke: #4169e1; stroke-width: 0.5"/>
    <path d="M 244.590145 171.444105 
L 248.602788 173.28735 
L 250.453885 173.172451 
L 252.3027 172.82245 
L 248.311211 170.72257 
L 246.446821 171.412222 
z
" clip-path="url(#p96ba07ae39)" style="fill: #0e3550; fill-opacity: 0.3; stroke: #4169e1; stroke-width: 0.5"/>
    <path d="M 129.488104 172.349218 
L 133.390378 173.945172 
L 137.306803 176.086673 
L 139.389657 174.060761 
L 141.469926 172.443954 
L 137.559027 169.929423 
L 133.659524 167.885912 
L 131.576278 170.055135 
z
" clip-path="url(#p96ba07ae39)" style="fill: #15527c; fill-opacity: 0.3; stroke: #4169e1; stroke-width: 0.5"/>
    <path d="M 161.233847 172.91807 
L 165.160477 172.710005 
L 169.099201 172.304006 
L 171.132444 171.206773 
L 173.157719 169.884089 
L 169.22675 169.831874 
L 165.307533 169.823193 
L 163.274071 171.284889 
z
" clip-path="url(#p96ba07ae39)" style="fill: #1a669a; fill-opacity: 0.3; stroke: #4169e1; stroke-width: 0.5"/>
    <path d="M 89.873788 164.302997 
L 93.754389 166.5557 
L 97.632935 168.494802 
L 99.755802 165.462215 
L 101.86558 162.118994 
L 97.995086 160.268406 
L 94.146618 159.001511 
L 92.019133 161.867109 
z
" clip-path="url(#p96ba07ae39)" style="fill: #185a89; fill-opacity: 0.3; stroke: #4169e1; stroke-width: 0.5"/>
    <path d="M 204.905818 165.215385 
L 208.898661 165.450237 
L 212.900965 165.835397 
L 214.835233 165.769762 
L 216.774123 164.758862 
L 212.787253 164.089591 
L 208.804935 163.905178 
L 206.857311 164.753902 
z
" clip-path="url(#p96ba07ae39)" style="fill: #16537e; fill-opacity: 0.3; stroke: #4169e1; stroke-width: 0.5"/>
    <path d="M 109.631238 166.020796 
L 113.517836 167.662408 
L 117.421141 169.804489 
L 119.5528 168.6045 
L 121.679161 167.576518 
L 117.771607 164.57377 
L 113.86752 161.548601 
L 111.74794 163.54733 
z
" clip-path="url(#p96ba07ae39)" style="fill: #13486d; fill-opacity: 0.3; stroke: #4169e1; stroke-width: 0.5"/>
    <path d="M 149.293045 175.68814 
L 153.209697 176.382763 
L 157.134591 176.751312 
L 159.18684 174.65578 
L 161.233847 172.91807 
L 157.315634 172.397389 
L 153.409225 172.087865 
L 151.351659 173.474896 
z
" clip-path="url(#p96ba07ae39)" style="fill: #1c6aa0; fill-opacity: 0.3; stroke: #4169e1; stroke-width: 0.5"/>
    <path d="M 224.753914 167.558855 
L 228.769158 168.255791 
L 232.796376 168.866388 
L 234.698429 168.167472 
L 236.590719 167.560255 
L 232.591894 166.108067 
L 228.592543 165.13705 
L 226.67459 166.477146 
z
" clip-path="url(#p96ba07ae39)" style="fill: #16547f; fill-opacity: 0.3; stroke: #4169e1; stroke-width: 0.5"/>
    <path d="M 192.976501 169.746399 
L 196.960444 169.002522 
L 200.958891 168.198186 
L 202.934852 166.817923 
L 204.905818 165.215385 
L 200.917906 165.693565 
L 196.941199 166.427262 
L 194.962168 168.108549 
z
" clip-path="url(#p96ba07ae39)" style="fill: #1c6ba2; fill-opacity: 0.3; stroke: #4169e1; stroke-width: 0.5"/>
    <path d="M 137.306803 176.086673 
L 141.229584 178.239845 
L 145.154497 179.958046 
L 147.229303 178.070103 
L 149.293045 175.68814 
L 145.379928 174.303374 
L 141.469926 172.443954 
L 139.389657 174.060761 
z
" clip-path="url(#p96ba07ae39)" style="fill: #134b71; fill-opacity: 0.3; stroke: #4169e1; stroke-width: 0.5"/>
    <path d="M 117.421141 169.804489 
L 121.351148 173.135168 
L 125.27899 176.132695 
L 127.384704 174.079908 
L 129.488104 172.349218 
L 125.588922 170.470733 
L 121.679161 167.576518 
L 119.5528 168.6045 
z
" clip-path="url(#p96ba07ae39)" style="fill: #0e3652; fill-opacity: 0.3; stroke: #4169e1; stroke-width: 0.5"/>
    <path d="M 181.053303 170.580811 
L 185.018985 170.560174 
L 188.997187 170.443997 
L 190.99192 169.974628 
L 192.976501 169.746399 
L 189.010525 169.691129 
L 185.060117 168.627625 
L 183.060909 169.534835 
z
" clip-path="url(#p96ba07ae39)" style="fill: #16537d; fill-opacity: 0.3; stroke: #4169e1; stroke-width: 0.5"/>
    <path d="M 97.632935 168.494802 
L 101.513531 170.241528 
L 105.393297 171.634227 
L 107.516892 168.900463 
L 109.631238 166.020796 
L 105.748084 164.202473 
L 101.86558 162.118994 
L 99.755802 165.462215 
z
" clip-path="url(#p96ba07ae39)" style="fill: #1a6396; fill-opacity: 0.3; stroke: #4169e1; stroke-width: 0.5"/>
    <path d="M 212.900965 165.835397 
L 216.906122 166.794954 
L 220.911394 168.360813 
L 222.840108 167.758893 
L 224.753914 167.558855 
L 220.760965 166.087215 
L 216.774123 164.758862 
L 214.835233 165.769762 
z
" clip-path="url(#p96ba07ae39)" style="fill: #114061; fill-opacity: 0.3; stroke: #4169e1; stroke-width: 0.5"/>
    <path d="M 85.574051 169.554384 
L 89.461763 171.785785 
L 93.342898 173.546449 
L 95.497136 171.250604 
L 97.632935 168.494802 
L 93.754389 166.5557 
L 89.873788 164.302997 
L 87.724794 166.845814 
z
" clip-path="url(#p96ba07ae39)" style="fill: #165581; fill-opacity: 0.3; stroke: #4169e1; stroke-width: 0.5"/>
    <path d="M 169.099201 172.304006 
L 173.05109 173.060811 
L 177.013086 173.701015 
L 179.0369 172.108964 
L 181.053303 170.580811 
L 177.099861 170.376652 
L 173.157719 169.884089 
L 171.132444 171.206773 
z
" clip-path="url(#p96ba07ae39)" style="fill: #175987; fill-opacity: 0.3; stroke: #4169e1; stroke-width: 0.5"/>
    <path d="M 232.796376 168.866388 
L 236.807567 170.750242 
L 240.818694 172.960769 
L 242.713889 171.957405 
L 244.590145 171.444105 
L 240.589352 169.393541 
L 236.590719 167.560255 
L 234.698429 168.167472 
z
" clip-path="url(#p96ba07ae39)" style="fill: #0f3855; fill-opacity: 0.3; stroke: #4169e1; stroke-width: 0.5"/>
    <path d="M 125.27899 176.132695 
L 129.200044 178.393957 
L 133.126688 180.62846 
L 135.221356 178.457618 
L 137.306803 176.086673 
L 133.390378 173.945172 
L 129.488104 172.349218 
L 127.384704 174.079908 
z
" clip-path="url(#p96ba07ae39)" style="fill: #144c73; fill-opacity: 0.3; stroke: #4169e1; stroke-width: 0.5"/>
    <path d="M 157.134591 176.751312 
L 161.070537 177.153814 
L 165.016987 177.426233 
L 167.060297 174.481479 
L 169.099201 172.304006 
L 165.160477 172.710005 
L 161.233847 172.91807 
L 159.18684 174.65578 
z
" clip-path="url(#p96ba07ae39)" style="fill: #1d70a9; fill-opacity: 0.3; stroke: #4169e1; stroke-width: 0.5"/>
    <path d="M 105.393297 171.634227 
L 109.276706 172.818105 
L 113.172799 174.203783 
L 115.293762 171.657767 
L 117.421141 169.804489 
L 113.517836 167.662408 
L 109.631238 166.020796 
L 107.516892 168.900463 
z
" clip-path="url(#p96ba07ae39)" style="fill: #1b679b; fill-opacity: 0.3; stroke: #4169e1; stroke-width: 0.5"/>
    <path d="M 145.154497 179.958046 
L 149.081219 180.989295 
L 153.015401 181.763891 
L 155.079731 179.521912 
L 157.134591 176.751312 
L 153.209697 176.382763 
L 149.293045 175.68814 
L 147.229303 178.070103 
z
" clip-path="url(#p96ba07ae39)" style="fill: #1c6aa0; fill-opacity: 0.3; stroke: #4169e1; stroke-width: 0.5"/>
    <path d="M 240.818694 172.960769 
L 244.834013 175.262886 
L 246.732416 173.849474 
L 248.602788 173.28735 
L 244.590145 171.444105 
L 242.713889 171.957405 
z
" clip-path="url(#p96ba07ae39)" style="fill: #103d5c; fill-opacity: 0.3; stroke: #4169e1; stroke-width: 0.5"/>
    <path d="M 200.958891 168.198186 
L 204.969053 167.631841 
L 208.992835 167.065133 
L 210.960939 165.646144 
L 212.900965 165.835397 
L 208.898661 165.450237 
L 204.905818 165.215385 
L 202.934852 166.817923 
z
" clip-path="url(#p96ba07ae39)" style="fill: #1a6294; fill-opacity: 0.3; stroke: #4169e1; stroke-width: 0.5"/>
    <path d="M 93.342898 173.546449 
L 97.217593 174.769635 
L 101.099466 175.936139 
L 103.254191 173.968228 
L 105.393297 171.634227 
L 101.513531 170.241528 
L 97.632935 168.494802 
L 95.497136 171.250604 
z
" clip-path="url(#p96ba07ae39)" style="fill: #1a6497; fill-opacity: 0.3; stroke: #4169e1; stroke-width: 0.5"/>
    <path d="M 220.911394 168.360813 
L 224.923882 169.973659 
L 228.946914 171.443233 
L 230.870513 170.405565 
L 232.796376 168.866388 
L 228.769158 168.255791 
L 224.753914 167.558855 
L 222.840108 167.758893 
z
" clip-path="url(#p96ba07ae39)" style="fill: #113f60; fill-opacity: 0.3; stroke: #4169e1; stroke-width: 0.5"/>
    <path d="M 188.997187 170.443997 
L 192.98789 170.302734 
L 196.98514 170.926572 
L 198.976696 169.446201 
L 200.958891 168.198186 
L 196.960444 169.002522 
L 192.976501 169.746399 
L 190.99192 169.974628 
z
" clip-path="url(#p96ba07ae39)" style="fill: #165682; fill-opacity: 0.3; stroke: #4169e1; stroke-width: 0.5"/>
    <path d="M 133.126688 180.62846 
L 137.054057 182.423482 
L 140.985007 183.882467 
L 143.07456 182.045084 
L 145.154497 179.958046 
L 141.229584 178.239845 
L 137.306803 176.086673 
L 135.221356 178.457618 
z
" clip-path="url(#p96ba07ae39)" style="fill: #165580; fill-opacity: 0.3; stroke: #4169e1; stroke-width: 0.5"/>
    <path d="M 113.172799 174.203783 
L 117.104111 177.036345 
L 121.042826 180.036366 
L 123.164681 178.093382 
L 125.27899 176.132695 
L 121.351148 173.135168 
L 117.421141 169.804489 
L 115.293762 171.657767 
z
" clip-path="url(#p96ba07ae39)" style="fill: #114061; fill-opacity: 0.3; stroke: #4169e1; stroke-width: 0.5"/>
    <path d="M 177.013086 173.701015 
L 180.987013 173.685891 
L 184.972325 173.860715 
L 186.989922 171.785606 
L 188.997187 170.443997 
L 185.018985 170.560174 
L 181.053303 170.580811 
L 179.0369 172.108964 
z
" clip-path="url(#p96ba07ae39)" style="fill: #1b679d; fill-opacity: 0.3; stroke: #4169e1; stroke-width: 0.5"/>
    <path d="M 165.016987 177.426233 
L 168.975 177.89606 
L 172.943748 178.083081 
L 174.981751 175.762156 
L 177.013086 173.701015 
L 173.05109 173.060811 
L 169.099201 172.304006 
L 167.060297 174.481479 
z
" clip-path="url(#p96ba07ae39)" style="fill: #1e71ab; fill-opacity: 0.3; stroke: #4169e1; stroke-width: 0.5"/>
    <path d="M 121.042826 180.036366 
L 124.978839 182.615704 
L 128.912412 184.680649 
L 131.024171 182.729693 
L 133.126688 180.62846 
L 129.200044 178.393957 
L 125.27899 176.132695 
L 123.164681 178.093382 
z
" clip-path="url(#p96ba07ae39)" style="fill: #12476b; fill-opacity: 0.3; stroke: #4169e1; stroke-width: 0.5"/>
    <path d="M 153.015401 181.763891 
L 156.958463 182.349457 
L 160.909805 182.415822 
L 162.966821 180.008207 
L 165.016987 177.426233 
L 161.070537 177.153814 
L 157.134591 176.751312 
L 155.079731 179.521912 
z
" clip-path="url(#p96ba07ae39)" style="fill: #1e72ad; fill-opacity: 0.3; stroke: #4169e1; stroke-width: 0.5"/>
    <path d="M 101.099466 175.936139 
L 104.999351 177.511961 
L 108.911062 179.279938 
L 111.053937 177.16418 
L 113.172799 174.203783 
L 109.276706 172.818105 
L 105.393297 171.634227 
L 103.254191 173.968228 
z
" clip-path="url(#p96ba07ae39)" style="fill: #185b89; fill-opacity: 0.3; stroke: #4169e1; stroke-width: 0.5"/>
    <path d="M 228.946914 171.443233 
L 232.974694 173.095936 
L 236.995085 175.476931 
L 238.902772 174.576728 
L 240.818694 172.960769 
L 236.807567 170.750242 
L 232.796376 168.866388 
L 230.870513 170.405565 
z
" clip-path="url(#p96ba07ae39)" style="fill: #114061; fill-opacity: 0.3; stroke: #4169e1; stroke-width: 0.5"/>
    <path d="M 208.992835 167.065133 
L 213.012792 167.843367 
L 217.033556 169.272987 
L 218.978135 168.720212 
L 220.911394 168.360813 
L 216.906122 166.794954 
L 212.900965 165.835397 
L 210.960939 165.646144 
z
" clip-path="url(#p96ba07ae39)" style="fill: #124569; fill-opacity: 0.3; stroke: #4169e1; stroke-width: 0.5"/>
    <path d="M 140.985007 183.882467 
L 144.91687 184.58333 
L 148.861269 185.576301 
L 150.942022 183.684753 
L 153.015401 181.763891 
L 149.081219 180.989295 
L 145.154497 179.958046 
L 143.07456 182.045084 
z
" clip-path="url(#p96ba07ae39)" style="fill: #1a6497; fill-opacity: 0.3; stroke: #4169e1; stroke-width: 0.5"/>
    <path d="M 236.995085 175.476931 
L 241.016734 178.068453 
L 242.921848 176.972379 
L 244.834013 175.262886 
L 240.818694 172.960769 
L 238.902772 174.576728 
z
" clip-path="url(#p96ba07ae39)" style="fill: #0f3855; fill-opacity: 0.3; stroke: #4169e1; stroke-width: 0.5"/>
    <path d="M 196.98514 170.926572 
L 200.992903 171.547792 
L 205.021132 171.213956 
L 207.010536 169.11102 
L 208.992835 167.065133 
L 204.969053 167.631841 
L 200.958891 168.198186 
L 198.976696 169.446201 
z
" clip-path="url(#p96ba07ae39)" style="fill: #1b699f; fill-opacity: 0.3; stroke: #4169e1; stroke-width: 0.5"/>
    <path d="M 128.912412 184.680649 
L 132.845783 186.246836 
L 136.782661 187.455755 
L 138.886398 185.568813 
L 140.985007 183.882467 
L 137.054057 182.423482 
L 133.126688 180.62846 
L 131.024171 182.729693 
z
" clip-path="url(#p96ba07ae39)" style="fill: #165683; fill-opacity: 0.3; stroke: #4169e1; stroke-width: 0.5"/>
    <path d="M 108.911062 179.279938 
L 112.84182 181.633745 
L 116.77718 183.925394 
L 118.915896 182.102911 
L 121.042826 180.036366 
L 117.104111 177.036345 
L 113.172799 174.203783 
L 111.053937 177.16418 
z
" clip-path="url(#p96ba07ae39)" style="fill: #144c73; fill-opacity: 0.3; stroke: #4169e1; stroke-width: 0.5"/>
    <path d="M 184.972325 173.860715 
L 188.96739 174.408846 
L 192.972628 175.041665 
L 194.982873 172.886999 
L 196.98514 170.926572 
L 192.98789 170.302734 
L 188.997187 170.443997 
L 186.989922 171.785606 
z
" clip-path="url(#p96ba07ae39)" style="fill: #1c6ca3; fill-opacity: 0.3; stroke: #4169e1; stroke-width: 0.5"/>
    <path d="M 217.033556 169.272987 
L 221.04603 171.770306 
L 225.074577 173.654236 
L 227.018883 172.301974 
L 228.946914 171.443233 
L 224.923882 169.973659 
L 220.911394 168.360813 
L 218.978135 168.720212 
z
" clip-path="url(#p96ba07ae39)" style="fill: #0e3753; fill-opacity: 0.3; stroke: #4169e1; stroke-width: 0.5"/>
    <path d="M 172.943748 178.083081 
L 176.924081 178.274564 
L 180.91544 178.71516 
L 182.946048 176.592393 
L 184.972325 173.860715 
L 180.987013 173.685891 
L 177.013086 173.701015 
L 174.981751 175.762156 
z
" clip-path="url(#p96ba07ae39)" style="fill: #1e71ac; fill-opacity: 0.3; stroke: #4169e1; stroke-width: 0.5"/>
    <path d="M 160.909805 182.415822 
L 164.873432 182.624341 
L 168.848681 182.875719 
L 170.899245 180.311563 
L 172.943748 178.083081 
L 168.975 177.89606 
L 165.016987 177.426233 
L 162.966821 180.008207 
z
" clip-path="url(#p96ba07ae39)" style="fill: #1e72ac; fill-opacity: 0.3; stroke: #4169e1; stroke-width: 0.5"/>
    <path d="M 148.861269 185.576301 
L 152.814979 186.552991 
L 156.774153 186.805335 
L 158.84633 184.811227 
L 160.909805 182.415822 
L 156.958463 182.349457 
L 153.015401 181.763891 
L 150.942022 183.684753 
z
" clip-path="url(#p96ba07ae39)" style="fill: #1b699e; fill-opacity: 0.3; stroke: #4169e1; stroke-width: 0.5"/>
    <path d="M 116.77718 183.925394 
L 120.724365 186.551303 
L 124.667402 188.606918 
L 126.792825 186.596263 
L 128.912412 184.680649 
L 124.978839 182.615704 
L 121.042826 180.036366 
L 118.915896 182.102911 
z
" clip-path="url(#p96ba07ae39)" style="fill: #124366; fill-opacity: 0.3; stroke: #4169e1; stroke-width: 0.5"/>
    <path d="M 136.782661 187.455755 
L 140.721348 188.020384 
L 144.672269 188.758142 
L 146.771125 187.224209 
L 148.861269 185.576301 
L 144.91687 184.58333 
L 140.985007 183.882467 
L 138.886398 185.568813 
z
" clip-path="url(#p96ba07ae39)" style="fill: #1a6598; fill-opacity: 0.3; stroke: #4169e1; stroke-width: 0.5"/>
    <path d="M 225.074577 173.654236 
L 229.111568 175.47625 
L 233.154772 177.363851 
L 235.079565 176.382377 
L 236.995085 175.476931 
L 232.974694 173.095936 
L 228.946914 171.443233 
L 227.018883 172.301974 
z
" clip-path="url(#p96ba07ae39)" style="fill: #114061; fill-opacity: 0.3; stroke: #4169e1; stroke-width: 0.5"/>
    <path d="M 205.021132 171.213956 
L 209.057514 171.305703 
L 213.090811 172.557361 
L 215.068505 170.709641 
L 217.033556 169.272987 
L 213.012792 167.843367 
L 208.992835 167.065133 
L 207.010536 169.11102 
z
" clip-path="url(#p96ba07ae39)" style="fill: #1c6aa0; fill-opacity: 0.3; stroke: #4169e1; stroke-width: 0.5"/>
    <path d="M 192.972628 175.041665 
L 196.989301 175.558915 
L 201.017795 175.974431 
L 203.020721 173.78171 
L 205.021132 171.213956 
L 200.992903 171.547792 
L 196.98514 170.926572 
L 194.982873 172.886999 
z
" clip-path="url(#p96ba07ae39)" style="fill: #1c6ba2; fill-opacity: 0.3; stroke: #4169e1; stroke-width: 0.5"/>
    <path d="M 124.667402 188.606918 
L 128.594811 189.173745 
L 132.529845 189.52631 
L 134.660847 188.513199 
L 136.782661 187.455755 
L 132.845783 186.246836 
L 128.912412 184.680649 
L 126.792825 186.596263 
z
" clip-path="url(#p96ba07ae39)" style="fill: #195f90; fill-opacity: 0.3; stroke: #4169e1; stroke-width: 0.5"/>
    <path d="M 180.91544 178.71516 
L 184.917823 179.15559 
L 188.931129 179.625889 
L 190.953102 177.676053 
L 192.972628 175.041665 
L 188.96739 174.408846 
L 184.972325 173.860715 
L 182.946048 176.592393 
z
" clip-path="url(#p96ba07ae39)" style="fill: #1d71ab; fill-opacity: 0.3; stroke: #4169e1; stroke-width: 0.5"/>
    <path d="M 233.154772 177.363851 
L 237.18899 180.027217 
L 239.106405 179.061042 
L 241.016734 178.068453 
L 236.995085 175.476931 
L 235.079565 176.382377 
z
" clip-path="url(#p96ba07ae39)" style="fill: #0e3651; fill-opacity: 0.3; stroke: #4169e1; stroke-width: 0.5"/>
    <path d="M 168.848681 182.875719 
L 172.835322 182.716483 
L 176.834743 182.423386 
L 178.878749 180.502916 
L 180.91544 178.71516 
L 176.924081 178.274564 
L 172.943748 178.083081 
L 170.899245 180.311563 
z
" clip-path="url(#p96ba07ae39)" style="fill: #1d71ab; fill-opacity: 0.3; stroke: #4169e1; stroke-width: 0.5"/>
    <path d="M 156.774153 186.805335 
L 160.744825 187.066001 
L 164.726621 187.201839 
L 166.791509 185.248711 
L 168.848681 182.875719 
L 164.873432 182.624341 
L 160.909805 182.415822 
L 158.84633 184.811227 
z
" clip-path="url(#p96ba07ae39)" style="fill: #1d70a9; fill-opacity: 0.3; stroke: #4169e1; stroke-width: 0.5"/>
    <path d="M 213.090811 172.557361 
L 217.127185 174.220587 
L 221.166372 176.20929 
L 223.120402 175.163371 
L 225.074577 173.654236 
L 221.04603 171.770306 
L 217.033556 169.272987 
L 215.068505 170.709641 
z
" clip-path="url(#p96ba07ae39)" style="fill: #114264; fill-opacity: 0.3; stroke: #4169e1; stroke-width: 0.5"/>
    <path d="M 144.672269 188.758142 
L 148.635462 189.750128 
L 152.6081 190.728365 
L 154.694633 188.755014 
L 156.774153 186.805335 
L 152.814979 186.552991 
L 148.861269 185.576301 
L 146.771125 187.224209 
z
" clip-path="url(#p96ba07ae39)" style="fill: #185a89; fill-opacity: 0.3; stroke: #4169e1; stroke-width: 0.5"/>
    <path d="M 201.017795 175.974431 
L 205.065488 175.623837 
L 209.130104 174.967522 
L 211.112278 173.925194 
L 213.090811 172.557361 
L 209.057514 171.305703 
L 205.021132 171.213956 
L 203.020721 173.78171 
z
" clip-path="url(#p96ba07ae39)" style="fill: #1d70a9; fill-opacity: 0.3; stroke: #4169e1; stroke-width: 0.5"/>
    <path d="M 132.529845 189.52631 
L 136.478839 190.10617 
L 140.442062 191.014206 
L 142.564607 190.197508 
L 144.672269 188.758142 
L 140.721348 188.020384 
L 136.782661 187.455755 
L 134.660847 188.513199 
z
" clip-path="url(#p96ba07ae39)" style="fill: #16547e; fill-opacity: 0.3; stroke: #4169e1; stroke-width: 0.5"/>
    <path d="M 188.931129 179.625889 
L 192.958311 179.655221 
L 197.005602 178.675085 
L 199.010935 177.867714 
L 201.017795 175.974431 
L 196.989301 175.558915 
L 192.972628 175.041665 
L 190.953102 177.676053 
z
" clip-path="url(#p96ba07ae39)" style="fill: #1c6ca3; fill-opacity: 0.3; stroke: #4169e1; stroke-width: 0.5"/>
    <path d="M 221.166372 176.20929 
L 225.223579 177.55902 
L 229.290908 178.840269 
L 231.221794 178.368992 
L 233.154772 177.363851 
L 229.111568 175.47625 
L 225.074577 173.654236 
L 223.120402 175.163371 
z
" clip-path="url(#p96ba07ae39)" style="fill: #12466a; fill-opacity: 0.3; stroke: #4169e1; stroke-width: 0.5"/>
    <path d="M 176.834743 182.423386 
L 180.846147 182.572868 
L 184.869129 182.816387 
L 186.904224 181.133138 
L 188.931129 179.625889 
L 184.917823 179.15559 
L 180.91544 178.71516 
L 178.878749 180.502916 
z
" clip-path="url(#p96ba07ae39)" style="fill: #1b699e; fill-opacity: 0.3; stroke: #4169e1; stroke-width: 0.5"/>
    <path d="M 164.726621 187.201839 
L 168.720105 187.221631 
L 172.72576 186.997188 
L 174.78356 184.679613 
L 176.834743 182.423386 
L 172.835322 182.716483 
L 168.848681 182.875719 
L 166.791509 185.248711 
z
" clip-path="url(#p96ba07ae39)" style="fill: #1d71aa; fill-opacity: 0.3; stroke: #4169e1; stroke-width: 0.5"/>
    <path d="M 152.6081 190.728365 
L 156.587017 191.11493 
L 160.575469 191.108389 
L 162.656055 189.549238 
L 164.726621 187.201839 
L 160.744825 187.066001 
L 156.774153 186.805335 
L 154.694633 188.755014 
z
" clip-path="url(#p96ba07ae39)" style="fill: #1c6ca3; fill-opacity: 0.3; stroke: #4169e1; stroke-width: 0.5"/>
    <path d="M 229.290908 178.840269 
L 233.349171 181.037832 
L 235.269237 180.729576 
L 237.18899 180.027217 
L 233.154772 177.363851 
L 231.221794 178.368992 
z
" clip-path="url(#p96ba07ae39)" style="fill: #0e344f; fill-opacity: 0.3; stroke: #4169e1; stroke-width: 0.5"/>
    <path d="M 140.442062 191.014206 
L 144.415399 191.955008 
L 148.39568 192.560355 
L 150.508705 191.963263 
L 152.6081 190.728365 
L 148.635462 189.750128 
L 144.672269 188.758142 
L 142.564607 190.197508 
z
" clip-path="url(#p96ba07ae39)" style="fill: #15517a; fill-opacity: 0.3; stroke: #4169e1; stroke-width: 0.5"/>
    <path d="M 209.130104 174.967522 
L 213.194176 175.437104 
L 217.262411 176.396016 
L 219.211432 176.79932 
L 221.166372 176.20929 
L 217.127185 174.220587 
L 213.090811 172.557361 
L 211.112278 173.925194 
z
" clip-path="url(#p96ba07ae39)" style="fill: #144d74; fill-opacity: 0.3; stroke: #4169e1; stroke-width: 0.5"/>
    <path d="M 197.005602 178.675085 
L 201.074221 177.004486 
L 205.150669 176.20909 
L 207.141292 175.892089 
L 209.130104 174.967522 
L 205.065488 175.623837 
L 201.017795 175.974431 
L 199.010935 177.867714 
z
" clip-path="url(#p96ba07ae39)" style="fill: #1a6294; fill-opacity: 0.3; stroke: #4169e1; stroke-width: 0.5"/>
    <path d="M 184.869129 182.816387 
L 188.905368 182.759784 
L 192.960109 181.783459 
L 194.990155 179.725582 
L 197.005602 178.675085 
L 192.958311 179.655221 
L 188.931129 179.625889 
L 186.904224 181.133138 
z
" clip-path="url(#p96ba07ae39)" style="fill: #1a6599; fill-opacity: 0.3; stroke: #4169e1; stroke-width: 0.5"/>
    <path d="M 172.72576 186.997188 
L 176.743977 187.139174 
L 180.773513 187.577329 
L 182.824809 185.111649 
L 184.869129 182.816387 
L 180.846147 182.572868 
L 176.834743 182.423386 
L 174.78356 184.679613 
z
" clip-path="url(#p96ba07ae39)" style="fill: #1e71ab; fill-opacity: 0.3; stroke: #4169e1; stroke-width: 0.5"/>
    <path d="M 160.575469 191.108389 
L 164.57659 191.213709 
L 168.589139 190.919153 
L 170.66131 189.260023 
L 172.72576 186.997188 
L 168.720105 187.221631 
L 164.726621 187.201839 
L 162.656055 189.549238 
z
" clip-path="url(#p96ba07ae39)" style="fill: #1c6ca4; fill-opacity: 0.3; stroke: #4169e1; stroke-width: 0.5"/>
    <path d="M 217.262411 176.396016 
L 221.325293 178.323566 
L 225.39572 180.241248 
L 227.346898 179.571454 
L 229.290908 178.840269 
L 225.223579 177.55902 
L 221.166372 176.20929 
L 219.211432 176.79932 
z
" clip-path="url(#p96ba07ae39)" style="fill: #0e3753; fill-opacity: 0.3; stroke: #4169e1; stroke-width: 0.5"/>
    <path d="M 148.39568 192.560355 
L 152.381196 192.392231 
L 156.378999 192.13486 
L 158.483508 191.947253 
L 160.575469 191.108389 
L 156.587017 191.11493 
L 152.6081 190.728365 
L 150.508705 191.963263 
z
" clip-path="url(#p96ba07ae39)" style="fill: #175784; fill-opacity: 0.3; stroke: #4169e1; stroke-width: 0.5"/>
    <path d="M 225.39572 180.241248 
L 229.477202 181.963767 
L 231.419106 181.414859 
L 233.349171 181.037832 
L 229.290908 178.840269 
L 227.346898 179.571454 
z
" clip-path="url(#p96ba07ae39)" style="fill: #0f3a57; fill-opacity: 0.3; stroke: #4169e1; stroke-width: 0.5"/>
    <path d="M 205.150669 176.20909 
L 209.220275 177.238481 
L 213.28783 179.169585 
L 215.289179 177.03702 
L 217.262411 176.396016 
L 213.194176 175.437104 
L 209.130104 174.967522 
L 207.141292 175.892089 
z
" clip-path="url(#p96ba07ae39)" style="fill: #124568; fill-opacity: 0.3; stroke: #4169e1; stroke-width: 0.5"/>
    <path d="M 180.773513 187.577329 
L 184.815648 187.664145 
L 188.87242 187.288194 
L 190.921735 184.101544 
L 192.960109 181.783459 
L 188.905368 182.759784 
L 184.869129 182.816387 
L 182.824809 185.111649 
z
" clip-path="url(#p96ba07ae39)" style="fill: #1e72ac; fill-opacity: 0.3; stroke: #4169e1; stroke-width: 0.5"/>
    <path d="M 168.589139 190.919153 
L 172.614913 190.639416 
L 176.652962 191.302519 
L 178.715912 189.998264 
L 180.773513 187.577329 
L 176.743977 187.139174 
L 172.72576 186.997188 
L 170.66131 189.260023 
z
" clip-path="url(#p96ba07ae39)" style="fill: #1c6da4; fill-opacity: 0.3; stroke: #4169e1; stroke-width: 0.5"/>
    <path d="M 192.960109 181.783459 
L 197.034486 180.22709 
L 201.119189 179.37654 
L 203.150728 176.556681 
L 205.150669 176.20909 
L 201.074221 177.004486 
L 197.005602 178.675085 
L 194.990155 179.725582 
z
" clip-path="url(#p96ba07ae39)" style="fill: #1c6ca4; fill-opacity: 0.3; stroke: #4169e1; stroke-width: 0.5"/>
    <path d="M 156.378999 192.13486 
L 160.394295 192.879823 
L 164.417966 192.936764 
L 166.508514 192.216862 
L 168.589139 190.919153 
L 164.57659 191.213709 
L 160.575469 191.108389 
L 158.483508 191.947253 
z
" clip-path="url(#p96ba07ae39)" style="fill: #155079; fill-opacity: 0.3; stroke: #4169e1; stroke-width: 0.5"/>
    <path d="M 213.28783 179.169585 
L 217.373695 180.349328 
L 221.458168 182.214318 
L 223.442323 180.539435 
L 225.39572 180.241248 
L 221.325293 178.323566 
L 217.262411 176.396016 
L 215.289179 177.03702 
z
" clip-path="url(#p96ba07ae39)" style="fill: #124569; fill-opacity: 0.3; stroke: #4169e1; stroke-width: 0.5"/>
    <path d="M 176.652962 191.302519 
L 180.700749 192.398283 
L 184.761191 192.684837 
L 186.818675 190.254949 
L 188.87242 187.288194 
L 184.815648 187.664145 
L 180.773513 187.577329 
L 178.715912 189.998264 
z
" clip-path="url(#p96ba07ae39)" style="fill: #1c6ba3; fill-opacity: 0.3; stroke: #4169e1; stroke-width: 0.5"/>
    <path d="M 221.458168 182.214318 
L 225.56565 183.18906 
L 227.536474 181.972029 
L 229.477202 181.963767 
L 225.39572 180.241248 
L 223.442323 180.539435 
z
" clip-path="url(#p96ba07ae39)" style="fill: #15517a; fill-opacity: 0.3; stroke: #4169e1; stroke-width: 0.5"/>
    <path d="M 201.119189 179.37654 
L 205.20206 180.125835 
L 209.275657 182.558275 
L 211.28968 180.517992 
L 213.28783 179.169585 
L 209.220275 177.238481 
L 205.150669 176.20909 
L 203.150728 176.556681 
z
" clip-path="url(#p96ba07ae39)" style="fill: #15527c; fill-opacity: 0.3; stroke: #4169e1; stroke-width: 0.5"/>
    <path d="M 188.87242 187.288194 
L 192.940554 187.259225 
L 197.023742 186.930062 
L 199.072414 183.311227 
L 201.119189 179.37654 
L 197.034486 180.22709 
L 192.960109 181.783459 
L 190.921735 184.101544 
z
" clip-path="url(#p96ba07ae39)" style="fill: #1f76b3; fill-opacity: 0.3; stroke: #4169e1; stroke-width: 0.5"/>
    <path d="M 164.417966 192.936764 
L 168.454315 193.174591 
L 172.502788 193.926141 
L 174.581845 192.886037 
L 176.652962 191.302519 
L 172.614913 190.639416 
L 168.589139 190.919153 
L 166.508514 192.216862 
z
" clip-path="url(#p96ba07ae39)" style="fill: #185e8e; fill-opacity: 0.3; stroke: #4169e1; stroke-width: 0.5"/>
    <path d="M 209.275657 182.558275 
L 213.361123 184.554533 
L 217.451282 186.731889 
L 219.462962 184.144118 
L 221.458168 182.214318 
L 217.373695 180.349328 
L 213.28783 179.169585 
L 211.28968 180.517992 
z
" clip-path="url(#p96ba07ae39)" style="fill: #144d75; fill-opacity: 0.3; stroke: #4169e1; stroke-width: 0.5"/>
    <path d="M 184.761191 192.684837 
L 188.837637 192.159125 
L 192.929441 191.445257 
L 194.97653 189.666679 
L 197.023742 186.930062 
L 192.940554 187.259225 
L 188.87242 187.288194 
L 186.818675 190.254949 
z
" clip-path="url(#p96ba07ae39)" style="fill: #1e72ad; fill-opacity: 0.3; stroke: #4169e1; stroke-width: 0.5"/>
    <path d="M 197.023742 186.930062 
L 201.118138 186.861527 
L 205.208304 188.427363 
L 207.242051 185.74064 
L 209.275657 182.558275 
L 205.20206 180.125835 
L 201.119189 179.37654 
L 199.072414 183.311227 
z
" clip-path="url(#p96ba07ae39)" style="fill: #1d71ab; fill-opacity: 0.3; stroke: #4169e1; stroke-width: 0.5"/>
    <path d="M 172.502788 193.926141 
L 176.562094 194.45094 
L 180.633982 194.417955 
L 182.701417 193.723937 
L 184.761191 192.684837 
L 180.700749 192.398283 
L 176.652962 191.302519 
L 174.581845 192.886037 
z
" clip-path="url(#p96ba07ae39)" style="fill: #165682; fill-opacity: 0.3; stroke: #4169e1; stroke-width: 0.5"/>
    <path d="M 217.451282 186.731889 
L 221.562009 188.049877 
L 223.572843 185.263769 
L 225.56565 183.18906 
L 221.458168 182.214318 
L 219.462962 184.144118 
z
" clip-path="url(#p96ba07ae39)" style="fill: #1c6ba2; fill-opacity: 0.3; stroke: #4169e1; stroke-width: 0.5"/>
    <path d="M 205.208304 188.427363 
L 209.301664 190.442742 
L 213.402329 192.460853 
L 215.425729 189.880441 
L 217.451282 186.731889 
L 213.361123 184.554533 
L 209.275657 182.558275 
L 207.242051 185.74064 
z
" clip-path="url(#p96ba07ae39)" style="fill: #185b89; fill-opacity: 0.3; stroke: #4169e1; stroke-width: 0.5"/>
    <path d="M 192.929441 191.445257 
L 197.030777 191.397358 
L 201.136582 192.277009 
L 203.180054 189.94038 
L 205.208304 188.427363 
L 201.118138 186.861527 
L 197.023742 186.930062 
L 194.97653 189.666679 
z
" clip-path="url(#p96ba07ae39)" style="fill: #1e72ac; fill-opacity: 0.3; stroke: #4169e1; stroke-width: 0.5"/>
    <path d="M 213.402329 192.460853 
L 217.506188 194.764212 
L 219.530008 191.841206 
L 221.562009 188.049877 
L 217.451282 186.731889 
L 215.425729 189.880441 
z
" clip-path="url(#p96ba07ae39)" style="fill: #165681; fill-opacity: 0.3; stroke: #4169e1; stroke-width: 0.5"/>
    <path d="M 180.633982 194.417955 
L 184.718877 194.340252 
L 188.815932 194.433073 
L 190.87729 192.819655 
L 192.929441 191.445257 
L 188.837637 192.159125 
L 184.761191 192.684837 
L 182.701417 193.723937 
z
" clip-path="url(#p96ba07ae39)" style="fill: #185d8d; fill-opacity: 0.3; stroke: #4169e1; stroke-width: 0.5"/>
    <path d="M 201.136582 192.277009 
L 205.236534 194.707036 
L 209.336267 197.681357 
L 211.3743 194.918878 
L 213.402329 192.460853 
L 209.301664 190.442742 
L 205.208304 188.427363 
L 203.180054 189.94038 
z
" clip-path="url(#p96ba07ae39)" style="fill: #12466a; fill-opacity: 0.3; stroke: #4169e1; stroke-width: 0.5"/>
    <path d="M 209.336267 197.681357 
L 213.450381 199.934864 
L 215.479805 197.46237 
L 217.506188 194.764212 
L 213.402329 192.460853 
L 211.3743 194.918878 
z
" clip-path="url(#p96ba07ae39)" style="fill: #155078; fill-opacity: 0.3; stroke: #4169e1; stroke-width: 0.5"/>
    <path d="M 188.815932 194.433073 
L 192.917653 195.760646 
L 197.023348 197.768416 
L 199.080254 195.34834 
L 201.136582 192.277009 
L 197.030777 191.397358 
L 192.929441 191.445257 
L 190.87729 192.819655 
z
" clip-path="url(#p96ba07ae39)" style="fill: #175a88; fill-opacity: 0.3; stroke: #4169e1; stroke-width: 0.5"/>
    <path d="M 197.023348 197.768416 
L 201.132707 200.189215 
L 205.241804 203.235646 
L 207.293418 200.337268 
L 209.336267 197.681357 
L 205.236534 194.707036 
L 201.136582 192.277009 
L 199.080254 195.34834 
z
" clip-path="url(#p96ba07ae39)" style="fill: #144f77; fill-opacity: 0.3; stroke: #4169e1; stroke-width: 0.5"/>
    <path d="M 205.241804 203.235646 
L 209.364492 205.53445 
L 211.411566 202.645045 
L 213.450381 199.934864 
L 209.336267 197.681357 
L 207.293418 200.337268 
z
" clip-path="url(#p96ba07ae39)" style="fill: #165581; fill-opacity: 0.3; stroke: #4169e1; stroke-width: 0.5"/>
   </g>
  </g>
 </g>
 <defs>
  <clipPath id="p96ba07ae39">
   <rect x="7.2" y="7.2" width="324" height="324"/>
  </clipPath>
 </defs>
</svg>
