<?xml version="1.0" encoding="utf-8" standalone="no"?>
<!DOCTYPE svg PUBLIC "-//W3C//DTD SVG 1.1//EN"
  "http://www.w3.org/Graphics/SVG/1.1/DTD/svg11.dtd">
<svg xmlns:xlink="http://www.w3.org/1999/xlink" width="338.4pt" height="338.4pt" viewBox="0 0 338.4 338.4" xmlns="http://www.w3.org/2000/svg" version="1.1">
 <metadata>
  <rdf:RDF xmlns:dc="http://purl.org/dc/elements/1.1/" xmlns:cc="http://creativecommons.org/ns#" xmlns:rdf="http://www.w3.org/1999/02/22-rdf-syntax-ns#">
   <cc:Work>
    <dc:type rdf:resource="http://purl.org/dc/dcmitype/StillImage"/>
    <dc:date>2025-10-09T11:09:54.683835</dc:date>
    <dc:format>image/svg+xml</dc:format>
    <dc:creator>
     <cc:Agent>
      <dc:title>Matplotlib v3.10.0, https://matplotlib.org/</dc:title>
     </cc:Agent>
    </dc:creator>
   </cc:Work>
  </rdf:RDF>
 </metadata>
 <defs>
  <style type="text/css">*{stroke-linejoin: round; stroke-linecap: butt}</style>
 </defs>
 <g id="figure_1">
  <g id="patch_1">
   <path d="M -0 338.4 
L 338.4 338.4 
L 338.4 0 
L -0 0 
z
" style="fill: #ffffff"/>
  </g>
  <g id="patch_2">
   <path d="M 7.2 331.2 
L 331.2 331.2 
L 331.2 7.2 
L 7.2 7.2 
z
" style="fill: #ffffff"/>
  </g>
  <g id="axes_1">
   <g id="Line3DCollection_1">
    <path d="M 164.416005 112.374291 
L 142.205663 106.279338 
" clip-path="url(#pd91b44f00d)" style="fill: none; stroke: #000000"/>
    <path d="M 164.416005 112.374291 
L 164.416005 112.374291 
" clip-path="url(#pd91b44f00d)" style="fill: none; stroke: #000000"/>
    <path d="M 164.416005 112.374291 
L 164.416005 112.374291 
" clip-path="url(#pd91b44f00d)" style="fill: none; stroke: #000000"/>
   </g>
   <g id="text_1">
    <!-- X -->
    <g transform="translate(158.982476 107.116555) scale(0.1 -0.1)">
     <defs>
      <path id="DejaVuSans-58" d="M 403 4666 
L 1081 4666 
L 2241 2931 
L 3406 4666 
L 4084 4666 
L 2584 2425 
L 4184 0 
L 3506 0 
L 2194 1984 
L 872 0 
L 191 0 
L 1856 2491 
L 403 4666 
z
" transform="scale(0.015625)"/>
     </defs>
     <use xlink:href="#DejaVuSans-58"/>
    </g>
   </g>
   <g id="text_2">
    <!-- Y -->
    <g transform="translate(122.693949 112.286219) scale(0.1 -0.1)">
     <defs>
      <path id="DejaVuSans-59" d="M -13 4666 
L 666 4666 
L 1959 2747 
L 3244 4666 
L 3922 4666 
L 2272 2222 
L 2272 0 
L 1638 0 
L 1638 2222 
L -13 4666 
z
" transform="scale(0.015625)"/>
     </defs>
     <use xlink:href="#DejaVuSans-59"/>
    </g>
   </g>
   <g id="text_3">
    <!-- Z -->
    <g transform="translate(139.078077 81.920075) scale(0.09 -0.09)">
     <defs>
      <path id="DejaVuSans-5a" d="M 359 4666 
L 4025 4666 
L 4025 4184 
L 1075 531 
L 4097 531 
L 4097 0 
L 288 0 
L 288 481 
L 3238 4134 
L 359 4134 
L 359 4666 
z
" transform="scale(0.015625)"/>
     </defs>
     <use xlink:href="#DejaVuSans-5a"/>
    </g>
   </g>
   <g id="Line3DCollection_2">
    <path d="M 141.993116 85.331549 
L 142.205663 106.279338 
" clip-path="url(#pd91b44f00d)" style="fill: none; stroke: #000000"/>
    <path d="M 141.993116 85.331549 
L 141.993116 85.331549 
" clip-path="url(#pd91b44f00d)" style="fill: none; stroke: #000000"/>
    <path d="M 141.993116 85.331549 
L 141.993116 85.331549 
" clip-path="url(#pd91b44f00d)" style="fill: none; stroke: #000000"/>
   </g>
   <g id="Line3DCollection_3">
    <path d="M 125.547941 119.514493 
L 142.205663 106.279338 
" clip-path="url(#pd91b44f00d)" style="fill: none; stroke: #000000"/>
    <path d="M 125.547941 119.514493 
L 125.547941 119.514493 
" clip-path="url(#pd91b44f00d)" style="fill: none; stroke: #000000"/>
    <path d="M 125.547941 119.514493 
L 125.547941 119.514493 
" clip-path="url(#pd91b44f00d)" style="fill: none; stroke: #000000"/>
   </g>
   <g id="QuadContourSet3D_1">
    <path d="M 179.387176 113.452485 
L 183.019722 118.038137 
L 186.670885 118.026571 
L 190.323962 119.501635 
L 194.027637 114.326197 
L 197.645081 123.033974 
L 201.285627 127.989339 
L 205.067485 118.951107 
L 208.696437 126.082359 
L 212.422492 124.976101 
L 216.12882 126.226706 
L 219.930593 121.623051 
L 223.674412 121.900981 
L 227.305768 129.15733 
L 231.037437 130.665521 
L 234.801425 130.89193 
L 238.532141 133.156653 
L 242.369377 130.89135 
L 246.173895 130.691943 
L 249.778278 138.973438 
L 253.619171 137.830354 
L 257.416534 138.769468 
L 261.194515 140.676979 
L 265.086249 138.981138 
L 268.649747 148.298885 
L 272.624206 144.555049 
L 276.586618 141.772544 
L 280.437831 142.684243 
L 284.377261 141.40101 
L 287.951972 150.218665 
L 292.018973 146.053211 
L 296.032939 143.754356 
" clip-path="url(#pd91b44f00d)" style="fill: none; stroke: #3b4cc0; stroke-width: 1.5"/>
    <path d="M 179.380726 116.877635 
L 183.012158 120.505865 
L 186.648322 123.334772 
L 190.33012 118.369526 
L 193.995053 119.240059 
L 197.662789 120.771251 
L 201.314374 124.803855 
L 205.035367 122.091913 
L 208.685922 127.002261 
L 212.391257 127.447371 
L 216.170808 123.195294 
L 219.84999 126.973074 
L 223.531005 130.707421 
L 227.355979 126.289105 
L 231.134353 125.491414 
L 234.751953 133.370538 
L 238.493445 134.982675 
L 242.321472 133.027408 
L 246.07644 134.809956 
L 249.97936 130.900383 
L 253.649538 136.669251 
L 257.293929 143.243635 
L 261.290827 137.315952 
L 265.066074 139.655625 
L 268.956829 138.447494 
L 272.597555 145.376727 
L 276.479584 144.948484 
L 280.3069 146.428138 
L 284.364715 141.747131 
L 288.090998 146.513651 
L 292.077241 144.551639 
L 295.89896 147.096312 
" clip-path="url(#pd91b44f00d)" style="fill: none; stroke: #6282ea; stroke-width: 1.5"/>
    <path d="M 179.380149 117.183892 
L 183.028287 115.243765 
L 186.674208 117.244681 
L 190.317454 120.69823 
L 193.968743 123.207913 
L 197.652557 122.07877 
L 201.350762 120.77173 
L 204.997837 125.761918 
L 208.665322 128.804359 
L 212.438854 123.681555 
L 216.16448 123.652186 
L 219.861598 126.20254 
L 223.604983 126.164538 
L 227.228875 133.549739 
L 231.087599 127.987504 
L 234.886902 126.609442 
L 238.568926 131.420788 
L 242.271346 135.262544 
L 246.172775 130.739253 
L 249.503381 150.010035 
L 253.79632 131.056943 
L 257.186344 147.169736 
L 261.30218 136.919744 
L 265.132854 137.423043 
L 268.781536 144.071015 
L 272.677585 142.909309 
L 276.482623 144.858297 
L 280.475359 141.611173 
L 284.196817 146.379311 
L 288.267551 141.808538 
L 291.827556 150.985991 
L 295.913358 146.737163 
" clip-path="url(#pd91b44f00d)" style="fill: none; stroke: #8db0fe; stroke-width: 1.5"/>
    <path d="M 179.382731 115.812717 
L 183.018767 118.349867 
L 186.679351 116.034683 
L 190.33088 118.229798 
L 193.995875 119.116174 
L 197.639964 123.687807 
L 201.340078 121.955578 
L 205.04051 121.589001 
L 208.68848 126.778492 
L 212.389449 127.590375 
L 216.074332 130.160615 
L 219.847467 127.14052 
L 223.572447 128.162519 
L 227.301176 129.419655 
L 230.911026 137.414244 
L 234.741861 133.876178 
L 238.588499 130.49717 
L 242.251171 136.162113 
L 245.076282 177.072106 
L 249.936503 132.621017 
L 253.572365 139.620009 
L 257.587867 132.51706 
L 261.235578 139.24399 
L 265.127773 137.592907 
L 268.971845 137.965772 
L 272.773995 139.936894 
L 276.542817 143.072225 
L 280.39439 143.926416 
L 284.215754 145.856854 
L 288.197136 143.68508 
L 292.184159 141.796388 
L 295.951677 145.781342 
" clip-path="url(#pd91b44f00d)" style="fill: none; stroke: #b9d0f9; stroke-width: 1.5"/>
    <path d="M 179.390856 111.498162 
L 183.027762 115.415244 
L 186.682595 115.27168 
L 190.327806 118.794967 
L 193.966163 123.596899 
L 197.649614 122.454784 
L 201.355974 120.194218 
L 205.008843 124.685711 
L 208.670835 128.322109 
L 212.422701 124.959574 
L 216.145943 124.990474 
L 219.876005 125.246278 
L 223.524541 131.104399 
L 227.348842 126.696811 
L 231.12786 125.83808 
L 234.734864 134.226718 
L 238.518407 133.804727 
L 242.302154 133.888807 
L 245.984069 138.713149 
L 249.891883 134.412436 
L 253.657701 136.357116 
L 257.393948 139.593694 
L 261.265852 138.187498 
L 265.041048 140.492285 
L 268.942048 138.921701 
L 272.744725 140.839309 
L 276.533084 143.361019 
L 280.498722 140.943114 
L 284.135192 148.079487 
L 288.066117 147.176718 
L 292.127507 143.256295 
L 295.709839 151.813735 
" clip-path="url(#pd91b44f00d)" style="fill: none; stroke: #dddcdc; stroke-width: 1.5"/>
    <path d="M 179.375985 119.395534 
L 183.026974 115.672247 
L 186.660585 120.449867 
L 190.327299 118.888092 
L 194.022615 115.083506 
L 197.666651 120.277757 
L 201.318538 124.342456 
L 205.002428 125.313036 
L 208.730744 123.081202 
L 212.442492 123.393751 
L 216.121969 126.721307 
L 219.814968 129.297651 
L 223.630286 124.610708 
L 227.341321 127.126428 
L 231.076316 128.589856 
L 234.707861 135.579621 
L 238.573725 131.194344 
L 242.417599 128.74116 
L 246.074077 134.909782 
L 249.832827 136.783394 
L 253.697343 134.841404 
L 257.412441 138.918817 
L 261.180164 141.177777 
L 265.00713 141.626207 
L 268.88299 140.816293 
L 272.769623 140.071678 
L 276.486715 144.736869 
L 280.5163 140.440491 
L 284.308993 143.284471 
L 288.144792 145.080046 
L 291.951417 147.794111 
L 295.917167 146.642143 
" clip-path="url(#pd91b44f00d)" style="fill: none; stroke: #f5c4ac; stroke-width: 1.5"/>
    <path d="M 179.381116 116.670587 
L 183.021068 117.599178 
L 186.667168 118.901045 
L 190.341271 116.319277 
L 193.969051 123.161397 
L 197.642534 123.359408 
L 201.335624 122.449113 
L 205.02448 123.15656 
L 208.704555 125.372221 
L 212.420013 125.172252 
L 216.151582 124.583364 
L 219.857194 126.494909 
L 223.621423 125.154981 
L 227.27678 130.813235 
L 231.035686 130.759025 
L 234.647803 138.588634 
L 238.513062 134.056956 
L 242.340496 132.179152 
L 246.100285 133.802352 
L 249.869315 135.318505 
L 253.63858 137.088217 
L 257.403553 139.243177 
L 261.266598 138.161466 
L 265.146699 136.960174 
L 268.705652 146.505434 
L 272.746968 140.770162 
L 276.584775 141.827226 
L 280.317868 146.114505 
L 284.18503 146.704493 
L 288.240191 142.537665 
L 291.906265 148.957688 
L 295.797236 149.633703 
" clip-path="url(#pd91b44f00d)" style="fill: none; stroke: #f4987a; stroke-width: 1.5"/>
    <path d="M 179.374153 120.36835 
L 183.032847 113.756132 
L 186.649272 123.111433 
L 190.325253 119.264276 
L 193.988631 120.208641 
L 197.654314 121.854205 
L 201.30833 125.4736 
L 205.027008 122.909344 
L 208.695879 126.131254 
L 212.417951 125.335396 
L 216.114652 127.249589 
L 219.80903 129.691759 
L 223.565321 128.600145 
L 227.299609 129.509161 
L 231.022925 131.440281 
L 234.746515 133.643015 
L 238.579163 130.937718 
L 242.22987 137.111907 
L 246.231404 128.261868 
L 249.905347 133.871866 
L 253.614582 138.005822 
L 257.460672 137.158743 
L 261.360912 134.870147 
L 265.098692 138.565129 
L 268.862307 141.479819 
L 272.712317 141.838478 
L 276.600494 141.360798 
L 280.224508 148.784063 
L 284.21982 145.744675 
L 288.261817 141.961361 
L 292.121117 143.420977 
L 295.834194 148.711831 
" clip-path="url(#pd91b44f00d)" style="fill: none; stroke: #dd5f4b; stroke-width: 1.5"/>
    <path clip-path="url(#pd91b44f00d)" style="fill: none; stroke: #b40426; stroke-width: 1.5"/>
   </g>
   <g id="QuadContourSet3D_2">
    <path d="M 112.144281 130.816207 
L 110.228191 136.055985 
L 108.199628 136.108827 
L 106.178365 136.885955 
L 104.219701 140.763451 
L 102.111015 138.372766 
L 100.122682 141.493764 
L 98.184692 146.842953 
L 95.971184 141.40716 
L 94.065568 148.412244 
L 91.745797 139.920126 
L 89.801501 145.867872 
L 87.959347 155.480957 
L 85.645322 148.586794 
L 83.699293 154.79461 
L 81.429874 150.328355 
L 79.27373 150.031655 
L 77.39351 158.767913 
L 75.244473 159.108004 
L 73.041851 158.103541 
L 71.131423 166.076077 
L 68.814175 162.208471 
L 66.896483 170.118453 
L 64.618787 167.970714 
L 62.569839 172.41332 
L 60.200036 168.373859 
L 58.352963 178.452566 
L 56.000534 175.41533 
L 53.755443 175.45558 
L 51.614461 178.325174 
L 49.463032 181.086274 
L 47.084979 178.585102 
" clip-path="url(#pd91b44f00d)" style="fill: none; stroke: #3b4cc0; stroke-width: 1.5"/>
    <path d="M 112.12478 129.842514 
L 110.206918 135.027674 
L 108.306138 141.097429 
L 106.046513 130.897112 
L 104.129758 136.798556 
L 102.201919 142.264793 
L 100.109629 140.950598 
L 98.117598 144.12745 
L 96.054588 144.692317 
L 93.977376 145.029498 
L 91.821276 142.741029 
L 89.664449 140.874439 
L 87.689004 145.873377 
L 85.703264 150.596315 
L 83.906731 161.818821 
L 81.661072 157.975513 
L 79.5208 158.017742 
L 77.255993 154.422316 
L 75.369145 162.961175 
L 73.10841 160.116236 
L 70.954425 160.837386 
L 69.24677 174.744957 
L 67.177417 178.092689 
L 64.791579 172.776256 
L 62.316778 165.515467 
L 60.218953 168.879401 
L 58.064554 170.894028 
L 55.910193 173.092714 
L 53.863644 178.185182 
L 51.812665 183.232857 
L 49.290089 176.882141 
L 46.982293 176.133764 
" clip-path="url(#pd91b44f00d)" style="fill: none; stroke: #6282ea; stroke-width: 1.5"/>
    <path d="M 112.116 129.404149 
L 110.171684 133.324593 
L 108.440339 147.38299 
L 106.051488 131.123095 
L 104.163586 138.289779 
L 102.096261 137.741073 
L 100.088926 140.089059 
L 98.090285 143.022001 
L 96.015674 143.159577 
L 94.027279 146.943623 
L 91.761847 140.519984 
L 89.870962 148.398669 
L 87.753344 148.15992 
L 85.632451 148.14041 
L 84.806936 192.301274 
L 81.72489 160.08638 
L 79.486631 156.913289 
L 77.532874 163.171895 
L 75.272353 159.969679 
L 73.200827 162.910839 
L 71.03426 163.200294 
L 68.732112 159.830292 
L 66.777207 166.732832 
L 64.789424 172.7163 
L 62.509943 170.780709 
L 60.305449 171.190863 
L 58.086502 171.46923 
L 56.035693 176.31922 
L 53.865456 178.230894 
L 51.549642 176.720197 
L 49.554522 183.31034 
L 47.218625 181.775512 
" clip-path="url(#pd91b44f00d)" style="fill: none; stroke: #8db0fe; stroke-width: 1.5"/>
    <path d="M 112.131549 130.180511 
L 110.151086 132.328922 
L 108.195755 135.927448 
L 106.26045 140.614297 
L 104.125909 136.628895 
L 102.173883 141.06446 
L 100.121289 141.435802 
L 98.021295 140.229793 
L 95.933072 139.905998 
L 94.028454 146.988678 
L 91.945927 147.399594 
L 89.79105 145.487107 
L 87.747181 147.940903 
L 85.793641 153.730749 
L 83.850016 159.898333 
L 81.529434 153.621426 
L 79.531872 158.375605 
L 77.291839 155.555073 
L 75.135107 155.727901 
L 73.156014 161.555745 
L 70.958311 160.952408 
L 68.800639 161.816197 
L 66.714829 164.962272 
L 64.542568 165.850989 
L 62.388081 167.45901 
L 60.206163 168.537594 
L 58.02436 169.840624 
L 56.038967 176.4034 
L 53.705088 174.18526 
L 51.606361 178.12461 
L 49.265228 176.277779 
L 46.938547 175.08944 
" clip-path="url(#pd91b44f00d)" style="fill: none; stroke: #b9d0f9; stroke-width: 1.5"/>
    <path d="M 112.088138 128.012958 
L 110.178028 133.631229 
L 108.098881 131.39013 
L 106.159999 136.051735 
L 104.122591 136.482612 
L 102.079156 137.008722 
L 100.055207 138.685879 
L 98.150958 145.477634 
L 96.117025 147.151655 
L 94.154116 151.808651 
L 91.876934 144.821114 
L 89.888735 149.046223 
L 87.825804 150.735036 
L 85.642044 148.473104 
L 83.677004 154.039872 
L 81.610503 156.302872 
L 79.519811 157.985763 
L 77.39549 158.83049 
L 75.417581 164.458166 
L 73.171527 162.024853 
L 70.971724 161.349387 
L 68.835422 162.824184 
L 66.772702 166.604953 
L 64.457272 163.478808 
L 62.478353 169.919629 
L 60.44706 174.975239 
L 58.246152 175.653305 
L 56.029427 176.158132 
L 54.063377 183.223887 
L 51.579541 177.460518 
L 49.380484 179.079572 
L 47.209957 181.568592 
" clip-path="url(#pd91b44f00d)" style="fill: none; stroke: #dddcdc; stroke-width: 1.5"/>
    <path d="M 112.055327 126.374715 
L 110.14096 131.839442 
L 108.110947 131.95529 
L 106.082804 132.545487 
L 104.111134 135.977585 
L 102.00975 134.037103 
L 100.100983 140.590785 
L 98.123947 144.384426 
L 95.977768 141.666482 
L 93.924998 143.020466 
L 92.641862 173.408795 
L 90.013058 153.575889 
L 87.687713 145.827505 
L 85.617767 147.63114 
L 83.676479 154.022104 
L 81.599709 155.945854 
L 79.349485 152.480299 
L 77.571442 164.390645 
L 75.203638 157.845949 
L 73.098159 159.806253 
L 71.009501 162.467483 
L 68.824672 162.512659 
L 66.749837 165.955962 
L 64.877881 175.176383 
L 62.678361 175.371396 
L 60.284098 170.620307 
L 58.097749 171.763982 
L 55.835765 171.179234 
L 53.776147 175.977872 
L 51.554241 176.834073 
L 49.635839 185.287088 
L 47.318401 184.157367 
" clip-path="url(#pd91b44f00d)" style="fill: none; stroke: #f5c4ac; stroke-width: 1.5"/>
    <path d="M 112.054776 126.347202 
L 110.042442 127.077317 
L 108.159517 134.230139 
L 106.210617 138.350875 
L 104.087894 134.953116 
L 102.190652 141.782428 
L 100.059038 138.845293 
L 98.086502 142.868918 
L 95.967736 141.271354 
L 93.950225 143.988115 
L 91.964494 148.093491 
L 89.89381 149.231133 
L 87.821486 150.581586 
L 85.653275 148.862619 
L 83.655095 153.297992 
L 81.545666 154.158323 
L 79.462433 156.131111 
L 77.350416 157.406118 
L 75.273547 160.006602 
L 73.005624 157.008056 
L 71.020612 162.796353 
L 68.713687 159.296349 
L 66.746112 165.850229 
L 64.548459 166.014836 
L 62.503617 170.60826 
L 60.261165 170.007447 
L 58.164056 173.501741 
L 55.934443 173.716179 
L 53.804173 176.684898 
L 51.573496 177.310834 
L 49.414134 179.897592 
L 47.263218 182.840039 
" clip-path="url(#pd91b44f00d)" style="fill: none; stroke: #f4987a; stroke-width: 1.5"/>
    <path d="M 112.163582 131.77992 
L 110.035296 126.731896 
L 108.148918 133.733741 
L 106.150445 135.617774 
L 104.226671 141.070717 
L 102.175506 141.133955 
L 100.34971 150.94124 
L 98.124245 144.396489 
L 96.048302 144.444757 
L 93.893817 141.82446 
L 91.936961 147.064521 
L 89.744979 143.80851 
L 87.700421 146.279121 
L 85.559219 145.600604 
L 83.646101 152.993441 
L 81.533025 153.74021 
L 79.329332 151.828896 
L 77.257744 154.477645 
L 75.21929 158.329692 
L 73.11177 160.217846 
L 71.059788 163.955862 
L 68.751137 160.381632 
L 66.771903 166.582288 
L 64.562777 166.413026 
L 62.317643 165.539046 
L 60.242414 169.506343 
L 58.134875 172.736986 
L 56.062449 177.007113 
L 53.672488 173.362847 
L 51.865149 184.532417 
L 49.590032 184.173554 
L 47.140023 179.899098 
" clip-path="url(#pd91b44f00d)" style="fill: none; stroke: #dd5f4b; stroke-width: 1.5"/>
    <path clip-path="url(#pd91b44f00d)" style="fill: none; stroke: #b40426; stroke-width: 1.5"/>
   </g>
   <g id="Poly3DCollection_1">
    <path d="M 148.003895 146.845807 
L 151.654146 140.993486 
L 155.355015 139.502137 
L 157.30095 137.597535 
L 153.616915 141.356384 
L 149.924754 141.543858 
z
" clip-path="url(#pd91b44f00d)" style="fill: #1c6ca4; fill-opacity: 0.3; stroke: #4169e1; stroke-width: 0.5"/>
    <path d="M 155.355015 139.502137 
L 159.147975 154.455758 
L 162.844061 149.263742 
L 164.770286 144.779298 
L 161.045034 143.698086 
L 157.30095 137.597535 
z
" clip-path="url(#pd91b44f00d)" style="fill: #114162; fill-opacity: 0.3; stroke: #4169e1; stroke-width: 0.5"/>
    <path d="M 144.06302 147.728807 
L 147.73358 144.053398 
L 151.458256 145.162538 
L 153.421049 144.142605 
L 155.355015 139.502137 
L 151.654146 140.993486 
L 148.003895 146.845807 
L 146.03417 146.922414 
z
" clip-path="url(#pd91b44f00d)" style="fill: #1c6ca4; fill-opacity: 0.3; stroke: #4169e1; stroke-width: 0.5"/>
    <path d="M 162.844061 149.263742 
L 166.566447 145.400222 
L 170.319141 151.093684 
L 172.244378 146.627225 
L 168.502116 145.066859 
L 164.770286 144.779298 
z
" clip-path="url(#pd91b44f00d)" style="fill: #1c6aa1; fill-opacity: 0.3; stroke: #4169e1; stroke-width: 0.5"/>
    <path d="M 151.458256 145.162538 
L 155.209058 149.304226 
L 158.921243 145.305238 
L 160.930455 157.445966 
L 162.844061 149.263742 
L 159.147975 154.455758 
L 155.355015 139.502137 
L 153.421049 144.142605 
z
" clip-path="url(#pd91b44f00d)" style="fill: #114264; fill-opacity: 0.3; stroke: #4169e1; stroke-width: 0.5"/>
    <path d="M 140.097156 149.274011 
L 143.785752 147.047621 
L 147.508997 147.002765 
L 149.56032 155.325131 
L 151.458256 145.162538 
L 147.73358 144.053398 
L 144.06302 147.728807 
L 142.116536 151.658776 
z
" clip-path="url(#pd91b44f00d)" style="fill: #1b699e; fill-opacity: 0.3; stroke: #4169e1; stroke-width: 0.5"/>
    <path d="M 170.319141 151.093684 
L 174.069465 150.69013 
L 177.827862 152.874268 
L 179.758762 145.072986 
L 175.985671 157.985823 
L 172.244378 146.627225 
z
" clip-path="url(#pd91b44f00d)" style="fill: #103d5c; fill-opacity: 0.3; stroke: #4169e1; stroke-width: 0.5"/>
    <path d="M 158.921243 145.305238 
L 162.680514 148.759144 
L 166.439041 150.95967 
L 168.390102 154.966083 
L 170.319141 151.093684 
L 166.566447 145.400222 
L 162.844061 149.263742 
L 160.930455 157.445966 
z
" clip-path="url(#pd91b44f00d)" style="fill: #144e76; fill-opacity: 0.3; stroke: #4169e1; stroke-width: 0.5"/>
    <path d="M 147.508997 147.002765 
L 151.28128 152.190029 
L 155.055872 158.094155 
L 156.990475 152.016802 
L 158.921243 145.305238 
L 155.209058 149.304226 
L 151.458256 145.162538 
L 149.56032 155.325131 
z
" clip-path="url(#pd91b44f00d)" style="fill: #114365; fill-opacity: 0.3; stroke: #4169e1; stroke-width: 0.5"/>
    <path d="M 166.439041 150.95967 
L 170.203709 153.923247 
L 173.972837 148.929344 
L 175.893975 166.434793 
L 177.827862 152.874268 
L 174.069465 150.69013 
L 170.319141 151.093684 
L 168.390102 154.966083 
z
" clip-path="url(#pd91b44f00d)" style="fill: #175987; fill-opacity: 0.3; stroke: #4169e1; stroke-width: 0.5"/>
    <path d="M 136.18688 157.855215 
L 139.896361 157.76738 
L 143.641631 160.211598 
L 145.550677 150.922077 
L 147.508997 147.002765 
L 143.785752 147.047621 
L 140.097156 149.274011 
L 138.130526 152.442153 
z
" clip-path="url(#pd91b44f00d)" style="fill: #1c6aa1; fill-opacity: 0.3; stroke: #4169e1; stroke-width: 0.5"/>
    <path d="M 177.827862 152.874268 
L 181.598619 152.387959 
L 185.384675 151.044862 
L 187.291236 150.729056 
L 183.511244 151.544998 
L 179.758762 145.072986 
z
" clip-path="url(#pd91b44f00d)" style="fill: #185e8e; fill-opacity: 0.3; stroke: #4169e1; stroke-width: 0.5"/>
    <path d="M 155.055872 158.094155 
L 158.779336 154.269901 
L 162.539565 155.020771 
L 164.505632 157.456718 
L 166.439041 150.95967 
L 162.680514 148.759144 
L 158.921243 145.305238 
L 156.990475 152.016802 
z
" clip-path="url(#pd91b44f00d)" style="fill: #1d71aa; fill-opacity: 0.3; stroke: #4169e1; stroke-width: 0.5"/>
    <path d="M 173.972837 148.929344 
L 177.74814 156.355666 
L 181.530559 158.14694 
L 183.452117 156.902585 
L 185.384675 151.044862 
L 181.598619 152.387959 
L 177.827862 152.874268 
L 175.893975 166.434793 
z
" clip-path="url(#pd91b44f00d)" style="fill: #114163; fill-opacity: 0.3; stroke: #4169e1; stroke-width: 0.5"/>
    <path d="M 185.384675 151.044862 
L 189.160946 154.380368 
L 192.949743 156.148162 
L 194.849505 154.85021 
L 191.080168 150.587655 
L 187.291236 150.729056 
z
" clip-path="url(#pd91b44f00d)" style="fill: #175987; fill-opacity: 0.3; stroke: #4169e1; stroke-width: 0.5"/>
    <path d="M 143.641631 160.211598 
L 147.326064 155.062351 
L 151.107819 159.910608 
L 153.067874 156.370413 
L 155.055872 158.094155 
L 151.28128 152.190029 
L 147.508997 147.002765 
L 145.550677 150.922077 
z
" clip-path="url(#pd91b44f00d)" style="fill: #1c6da4; fill-opacity: 0.3; stroke: #4169e1; stroke-width: 0.5"/>
    <path d="M 132.16922 159.484662 
L 135.872219 158.189471 
L 139.574832 155.618228 
L 141.581535 154.809164 
L 143.641631 160.211598 
L 139.896361 157.76738 
L 136.18688 157.855215 
L 134.10073 152.402955 
z
" clip-path="url(#pd91b44f00d)" style="fill: #195e8f; fill-opacity: 0.3; stroke: #4169e1; stroke-width: 0.5"/>
    <path d="M 162.539565 155.020771 
L 166.306923 155.019044 
L 170.088106 157.620272 
L 172.034702 158.614543 
L 173.972837 148.929344 
L 170.203709 153.923247 
L 166.439041 150.95967 
L 164.505632 157.456718 
z
" clip-path="url(#pd91b44f00d)" style="fill: #175783; fill-opacity: 0.3; stroke: #4169e1; stroke-width: 0.5"/>
    <path d="M 181.530559 158.14694 
L 185.337255 155.315595 
L 189.076439 169.200852 
L 191.035859 158.730703 
L 192.949743 156.148162 
L 189.160946 154.380368 
L 185.384675 151.044862 
L 183.452117 156.902585 
z
" clip-path="url(#pd91b44f00d)" style="fill: #155079; fill-opacity: 0.3; stroke: #4169e1; stroke-width: 0.5"/>
    <path d="M 151.107819 159.910608 
L 154.844904 157.703437 
L 158.61618 159.137087 
L 160.588426 158.84065 
L 162.539565 155.020771 
L 158.779336 154.269901 
L 155.055872 158.094155 
L 153.067874 156.370413 
z
" clip-path="url(#pd91b44f00d)" style="fill: #1b699e; fill-opacity: 0.3; stroke: #4169e1; stroke-width: 0.5"/>
    <path d="M 192.949743 156.148162 
L 196.765574 155.218646 
L 200.577153 156.264793 
L 202.474004 154.405248 
L 198.705744 148.592777 
L 194.849505 154.85021 
z
" clip-path="url(#pd91b44f00d)" style="fill: #1d6fa9; fill-opacity: 0.3; stroke: #4169e1; stroke-width: 0.5"/>
    <path d="M 139.574832 155.618228 
L 143.340957 157.716417 
L 147.119979 160.649895 
L 149.122948 160.884971 
L 151.107819 159.910608 
L 147.326064 155.062351 
L 143.641631 160.211598 
L 141.581535 154.809164 
z
" clip-path="url(#pd91b44f00d)" style="fill: #15517b; fill-opacity: 0.3; stroke: #4169e1; stroke-width: 0.5"/>
    <path d="M 170.088106 157.620272 
L 173.87415 155.472131 
L 177.665148 161.740716 
L 179.603437 158.706648 
L 181.530559 158.14694 
L 177.74814 156.355666 
L 173.972837 148.929344 
L 172.034702 158.614543 
z
" clip-path="url(#pd91b44f00d)" style="fill: #165580; fill-opacity: 0.3; stroke: #4169e1; stroke-width: 0.5"/>
    <path d="M 189.076439 169.200852 
L 192.917729 163.313784 
L 196.644606 175.800617 
L 198.723598 152.148588 
L 200.577153 156.264793 
L 196.765574 155.218646 
L 192.949743 156.148162 
L 191.035859 158.730703 
z
" clip-path="url(#pd91b44f00d)" style="fill: #1a6497; fill-opacity: 0.3; stroke: #4169e1; stroke-width: 0.5"/>
    <path d="M 200.577153 156.264793 
L 204.345461 162.405759 
L 208.211096 159.615371 
L 210.081143 159.241737 
L 206.335463 151.210336 
L 202.474004 154.405248 
z
" clip-path="url(#pd91b44f00d)" style="fill: #1b699f; fill-opacity: 0.3; stroke: #4169e1; stroke-width: 0.5"/>
    <path d="M 158.61618 159.137087 
L 162.392749 160.027311 
L 166.183555 163.197901 
L 168.134012 157.972877 
L 170.088106 157.620272 
L 166.306923 155.019044 
L 162.539565 155.020771 
L 160.588426 158.84065 
z
" clip-path="url(#pd91b44f00d)" style="fill: #185d8d; fill-opacity: 0.3; stroke: #4169e1; stroke-width: 0.5"/>
    <path d="M 177.665148 161.740716 
L 181.456963 165.874382 
L 185.273405 163.777198 
L 187.215385 158.799467 
L 189.076439 169.200852 
L 185.337255 155.315595 
L 181.530559 158.14694 
L 179.603437 158.706648 
z
" clip-path="url(#pd91b44f00d)" style="fill: #1b669b; fill-opacity: 0.3; stroke: #4169e1; stroke-width: 0.5"/>
    <path d="M 128.058075 156.970121 
L 131.798381 157.517096 
L 135.587616 161.221187 
L 137.59355 159.238646 
L 139.574832 155.618228 
L 135.872219 158.189471 
L 132.16922 159.484662 
L 130.015008 150.953193 
z
" clip-path="url(#pd91b44f00d)" style="fill: #144d74; fill-opacity: 0.3; stroke: #4169e1; stroke-width: 0.5"/>
    <path d="M 147.119979 160.649895 
L 150.881172 160.718785 
L 154.672276 163.86978 
L 156.640442 160.310783 
L 158.61618 159.137087 
L 154.844904 157.703437 
L 151.107819 159.910608 
L 149.122948 160.884971 
z
" clip-path="url(#pd91b44f00d)" style="fill: #185c8a; fill-opacity: 0.3; stroke: #4169e1; stroke-width: 0.5"/>
    <path d="M 196.644606 175.800617 
L 200.518669 169.436063 
L 204.474174 157.731182 
L 206.338734 159.476704 
L 208.211096 159.615371 
L 204.345461 162.405759 
L 200.577153 156.264793 
L 198.723598 152.148588 
z
" clip-path="url(#pd91b44f00d)" style="fill: #1d6ea6; fill-opacity: 0.3; stroke: #4169e1; stroke-width: 0.5"/>
    <path d="M 208.211096 159.615371 
L 212.146872 152.718394 
L 215.957318 156.871778 
L 217.67329 166.465041 
L 213.954865 156.932058 
L 210.081143 159.241737 
z
" clip-path="url(#pd91b44f00d)" style="fill: #1a6599; fill-opacity: 0.3; stroke: #4169e1; stroke-width: 0.5"/>
    <path d="M 185.273405 163.777198 
L 189.110767 160.778942 
L 192.94284 161.536075 
L 194.854256 161.270778 
L 196.644606 175.800617 
L 192.917729 163.313784 
L 189.076439 169.200852 
L 187.215385 158.799467 
z
" clip-path="url(#pd91b44f00d)" style="fill: #175a88; fill-opacity: 0.3; stroke: #4169e1; stroke-width: 0.5"/>
    <path d="M 166.183555 163.197901 
L 169.964778 155.756578 
L 173.774884 159.665993 
L 175.725148 160.506963 
L 177.665148 161.740716 
L 173.87415 155.472131 
L 170.088106 157.620272 
L 168.134012 157.972877 
z
" clip-path="url(#pd91b44f00d)" style="fill: #1d6ea7; fill-opacity: 0.3; stroke: #4169e1; stroke-width: 0.5"/>
    <path d="M 135.587616 161.221187 
L 139.332214 160.817167 
L 143.039202 155.484034 
L 145.085943 158.083298 
L 147.119979 160.649895 
L 143.340957 157.716417 
L 139.574832 155.618228 
L 137.59355 159.238646 
z
" clip-path="url(#pd91b44f00d)" style="fill: #1a6396; fill-opacity: 0.3; stroke: #4169e1; stroke-width: 0.5"/>
    <path d="M 154.672276 163.86978 
L 158.43376 160.4623 
L 162.25734 168.462473 
L 164.214702 163.09901 
L 166.183555 163.197901 
L 162.392749 160.027311 
L 158.61618 159.137087 
L 156.640442 160.310783 
z
" clip-path="url(#pd91b44f00d)" style="fill: #185b8a; fill-opacity: 0.3; stroke: #4169e1; stroke-width: 0.5"/>
    <path d="M 123.990389 159.758801 
L 127.726562 159.501855 
L 131.6084 168.929797 
L 133.613087 166.071293 
L 135.587616 161.221187 
L 131.798381 157.517096 
L 128.058075 156.970121 
L 126.157928 166.679814 
z
" clip-path="url(#pd91b44f00d)" style="fill: #154f78; fill-opacity: 0.3; stroke: #4169e1; stroke-width: 0.5"/>
    <path d="M 215.957318 156.871778 
L 219.775589 160.551333 
L 223.530265 168.199534 
L 225.56857 156.405084 
L 221.654013 158.585027 
L 217.67329 166.465041 
z
" clip-path="url(#pd91b44f00d)" style="fill: #144d74; fill-opacity: 0.3; stroke: #4169e1; stroke-width: 0.5"/>
    <path d="M 173.774884 159.665993 
L 177.582704 166.237603 
L 181.411999 162.3669 
L 183.342091 164.741223 
L 185.273405 163.777198 
L 181.456963 165.874382 
L 177.665148 161.740716 
L 175.725148 160.506963 
z
" clip-path="url(#pd91b44f00d)" style="fill: #124366; fill-opacity: 0.3; stroke: #4169e1; stroke-width: 0.5"/>
    <path d="M 143.039202 155.484034 
L 146.896105 164.450092 
L 150.715413 169.940383 
L 152.675983 163.955168 
L 154.672276 163.86978 
L 150.881172 160.718785 
L 147.119979 160.649895 
L 145.085943 158.083298 
z
" clip-path="url(#pd91b44f00d)" style="fill: #103c5b; fill-opacity: 0.3; stroke: #4169e1; stroke-width: 0.5"/>
    <path d="M 192.94284 161.536075 
L 196.788527 161.718985 
L 200.593502 167.672173 
L 202.528476 163.382182 
L 204.474174 157.731182 
L 200.518669 169.436063 
L 196.644606 175.800617 
L 194.854256 161.270778 
z
" clip-path="url(#pd91b44f00d)" style="fill: #103c5b; fill-opacity: 0.3; stroke: #4169e1; stroke-width: 0.5"/>
    <path d="M 204.474174 157.731182 
L 208.283644 162.375519 
L 212.185203 159.723428 
L 213.994961 164.272104 
L 215.957318 156.871778 
L 212.146872 152.718394 
L 208.211096 159.615371 
L 206.338734 159.476704 
z
" clip-path="url(#pd91b44f00d)" style="fill: #1a6396; fill-opacity: 0.3; stroke: #4169e1; stroke-width: 0.5"/>
    <path d="M 162.25734 168.462473 
L 166.037327 162.544446 
L 169.862073 171.978507 
L 171.81744 163.342198 
L 173.774884 159.665993 
L 169.964778 155.756578 
L 166.183555 163.197901 
L 164.214702 163.09901 
z
" clip-path="url(#pd91b44f00d)" style="fill: #1b699f; fill-opacity: 0.3; stroke: #4169e1; stroke-width: 0.5"/>
    <path d="M 131.6084 168.929797 
L 135.398265 172.054159 
L 139.077572 165.181745 
L 141.06538 160.864886 
L 143.039202 155.484034 
L 139.332214 160.817167 
L 135.587616 161.221187 
L 133.613087 166.071293 
z
" clip-path="url(#pd91b44f00d)" style="fill: #1d6fa8; fill-opacity: 0.3; stroke: #4169e1; stroke-width: 0.5"/>
    <path d="M 181.411999 162.3669 
L 185.200928 174.432693 
L 189.026783 175.476925 
L 190.984113 168.607086 
L 192.94284 161.536075 
L 189.110767 160.778942 
L 185.273405 163.777198 
L 183.342091 164.741223 
z
" clip-path="url(#pd91b44f00d)" style="fill: #134a70; fill-opacity: 0.3; stroke: #4169e1; stroke-width: 0.5"/>
    <path d="M 223.530265 168.199534 
L 227.509556 162.736478 
L 231.48866 158.61268 
L 233.162336 166.589593 
L 229.230564 168.888215 
L 225.56857 156.405084 
z
" clip-path="url(#pd91b44f00d)" style="fill: #155079; fill-opacity: 0.3; stroke: #4169e1; stroke-width: 0.5"/>
    <path d="M 150.715413 169.940383 
L 154.483643 167.756154 
L 158.281204 168.115278 
L 160.231886 158.735772 
L 162.25734 168.462473 
L 158.43376 160.4623 
L 154.672276 163.86978 
L 152.675983 163.955168 
z
" clip-path="url(#pd91b44f00d)" style="fill: #1d70a9; fill-opacity: 0.3; stroke: #4169e1; stroke-width: 0.5"/>
    <path d="M 212.185203 159.723428 
L 216.032736 162.223923 
L 219.839549 167.712904 
L 221.737683 164.902017 
L 223.530265 168.199534 
L 219.775589 160.551333 
L 215.957318 156.871778 
L 213.994961 164.272104 
z
" clip-path="url(#pd91b44f00d)" style="fill: #13496f; fill-opacity: 0.3; stroke: #4169e1; stroke-width: 0.5"/>
    <path d="M 119.876104 161.563312 
L 123.726278 167.741213 
L 127.344542 158.961452 
L 129.638176 174.523234 
L 131.6084 168.929797 
L 127.726562 159.501855 
L 123.990389 159.758801 
L 122.028671 166.038133 
z
" clip-path="url(#pd91b44f00d)" style="fill: #195f90; fill-opacity: 0.3; stroke: #4169e1; stroke-width: 0.5"/>
    <path d="M 169.862073 171.978507 
L 173.674565 168.624718 
L 177.497817 172.094719 
L 179.463637 163.368574 
L 181.411999 162.3669 
L 177.582704 166.237603 
L 173.774884 159.665993 
L 171.81744 163.342198 
z
" clip-path="url(#pd91b44f00d)" style="fill: #1b689d; fill-opacity: 0.3; stroke: #4169e1; stroke-width: 0.5"/>
    <path d="M 139.077572 165.181745 
L 142.95994 175.585013 
L 146.709576 172.726986 
L 148.685878 167.656393 
L 150.715413 169.940383 
L 146.896105 164.450092 
L 143.039202 155.484034 
L 141.06538 160.864886 
z
" clip-path="url(#pd91b44f00d)" style="fill: #144e76; fill-opacity: 0.3; stroke: #4169e1; stroke-width: 0.5"/>
    <path d="M 200.593502 167.672173 
L 204.4358 169.57585 
L 208.274077 172.38839 
L 210.302198 160.076812 
L 212.185203 159.723428 
L 208.283644 162.375519 
L 204.474174 157.731182 
L 202.528476 163.382182 
z
" clip-path="url(#pd91b44f00d)" style="fill: #195e8f; fill-opacity: 0.3; stroke: #4169e1; stroke-width: 0.5"/>
    <path d="M 127.344542 158.961452 
L 131.212065 165.679043 
L 135.103118 174.6937 
L 137.204604 179.306541 
L 139.077572 165.181745 
L 135.398265 172.054159 
L 131.6084 168.929797 
L 129.638176 174.523234 
z
" clip-path="url(#pd91b44f00d)" style="fill: #0d324c; fill-opacity: 0.3; stroke: #4169e1; stroke-width: 0.5"/>
    <path d="M 189.026783 175.476925 
L 192.90395 169.815941 
L 196.707837 177.077244 
L 198.703859 166.114336 
L 200.593502 167.672173 
L 196.788527 161.718985 
L 192.94284 161.536075 
L 190.984113 168.607086 
z
" clip-path="url(#pd91b44f00d)" style="fill: #1c6da5; fill-opacity: 0.3; stroke: #4169e1; stroke-width: 0.5"/>
    <path d="M 219.839549 167.712904 
L 223.659651 172.232141 
L 227.708339 163.922276 
L 229.297628 177.714358 
L 231.48866 158.61268 
L 227.509556 162.736478 
L 223.530265 168.199534 
L 221.737683 164.902017 
z
" clip-path="url(#pd91b44f00d)" style="fill: #1b689d; fill-opacity: 0.3; stroke: #4169e1; stroke-width: 0.5"/>
    <path d="M 158.281204 168.115278 
L 162.08298 166.902774 
L 165.923009 175.197673 
L 167.886009 168.313593 
L 169.862073 171.978507 
L 166.037327 162.544446 
L 162.25734 168.462473 
L 160.231886 158.735772 
z
" clip-path="url(#pd91b44f00d)" style="fill: #175a88; fill-opacity: 0.3; stroke: #4169e1; stroke-width: 0.5"/>
    <path d="M 231.48866 158.61268 
L 235.325459 162.566016 
L 239.227642 163.552651 
L 241.018525 164.648767 
L 237.178183 161.097806 
L 233.162336 166.589593 
z
" clip-path="url(#pd91b44f00d)" style="fill: #13486d; fill-opacity: 0.3; stroke: #4169e1; stroke-width: 0.5"/>
    <path d="M 177.497817 172.094719 
L 181.347246 166.281698 
L 185.176736 172.451924 
L 187.139112 166.801002 
L 189.026783 175.476925 
L 185.200928 174.432693 
L 181.411999 162.3669 
L 179.463637 163.368574 
z
" clip-path="url(#pd91b44f00d)" style="fill: #154f78; fill-opacity: 0.3; stroke: #4169e1; stroke-width: 0.5"/>
    <path d="M 146.709576 172.726986 
L 150.440651 165.050722 
L 154.274813 168.785403 
L 156.273309 166.876302 
L 158.281204 168.115278 
L 154.483643 167.756154 
L 150.715413 169.940383 
L 148.685878 167.656393 
z
" clip-path="url(#pd91b44f00d)" style="fill: #1b689d; fill-opacity: 0.3; stroke: #4169e1; stroke-width: 0.5"/>
    <path d="M 196.707837 177.077244 
L 200.605051 173.078597 
L 204.49094 172.299506 
L 206.393138 171.758868 
L 208.274077 172.38839 
L 204.4358 169.57585 
L 200.593502 167.672173 
L 198.703859 166.114336 
z
" clip-path="url(#pd91b44f00d)" style="fill: #1c6da5; fill-opacity: 0.3; stroke: #4169e1; stroke-width: 0.5"/>
    <path d="M 208.274077 172.38839 
L 212.281089 162.286145 
L 216.046753 172.041005 
L 217.938051 170.420162 
L 219.839549 167.712904 
L 216.032736 162.223923 
L 212.185203 159.723428 
L 210.302198 160.076812 
z
" clip-path="url(#pd91b44f00d)" style="fill: #1d6fa8; fill-opacity: 0.3; stroke: #4169e1; stroke-width: 0.5"/>
    <path d="M 135.103118 174.6937 
L 138.857691 172.814829 
L 142.623487 170.490537 
L 144.610472 165.18131 
L 146.709576 172.726986 
L 142.95994 175.585013 
L 139.077572 165.181745 
L 137.204604 179.306541 
z
" clip-path="url(#pd91b44f00d)" style="fill: #175784; fill-opacity: 0.3; stroke: #4169e1; stroke-width: 0.5"/>
    <path d="M 165.923009 175.197673 
L 169.735071 169.162554 
L 173.573635 169.501109 
L 175.543215 167.359123 
L 177.497817 172.094719 
L 173.674565 168.624718 
L 169.862073 171.978507 
L 167.886009 168.313593 
z
" clip-path="url(#pd91b44f00d)" style="fill: #1c6ba2; fill-opacity: 0.3; stroke: #4169e1; stroke-width: 0.5"/>
    <path d="M 185.176736 172.451924 
L 188.965418 185.742958 
L 192.889558 174.273833 
L 194.837225 170.931793 
L 196.707837 177.077244 
L 192.90395 169.815941 
L 189.026783 175.476925 
L 187.139112 166.801002 
z
" clip-path="url(#pd91b44f00d)" style="fill: #185d8d; fill-opacity: 0.3; stroke: #4169e1; stroke-width: 0.5"/>
    <path d="M 115.858167 170.116869 
L 119.570885 168.097116 
L 123.409169 172.685537 
L 125.474642 171.977207 
L 127.344542 158.961452 
L 123.726278 167.741213 
L 119.876104 161.563312 
L 117.78527 161.289465 
z
" clip-path="url(#pd91b44f00d)" style="fill: #185b8a; fill-opacity: 0.3; stroke: #4169e1; stroke-width: 0.5"/>
    <path d="M 227.708339 163.922276 
L 231.39089 176.469252 
L 235.468259 168.659263 
L 237.239582 171.380733 
L 239.227642 163.552651 
L 235.325459 162.566016 
L 231.48866 158.61268 
L 229.297628 177.714358 
z
" clip-path="url(#pd91b44f00d)" style="fill: #16547f; fill-opacity: 0.3; stroke: #4169e1; stroke-width: 0.5"/>
    <path d="M 239.227642 163.552651 
L 243.082251 167.002288 
L 246.922895 171.132983 
L 248.808419 167.620955 
L 244.997465 162.402995 
L 241.018525 164.648767 
z
" clip-path="url(#pd91b44f00d)" style="fill: #175a88; fill-opacity: 0.3; stroke: #4169e1; stroke-width: 0.5"/>
    <path d="M 142.623487 170.490537 
L 146.487669 177.24587 
L 150.322702 180.97688 
L 152.660272 226.176157 
L 154.274813 168.785403 
L 150.440651 165.050722 
L 146.709576 172.726986 
L 144.610472 165.18131 
z
" clip-path="url(#pd91b44f00d)" style="fill: #16547f; fill-opacity: 0.3; stroke: #4169e1; stroke-width: 0.5"/>
    <path d="M 216.046753 172.041005 
L 219.970583 170.578362 
L 223.735466 179.598292 
L 225.796301 167.405896 
L 227.708339 163.922276 
L 223.659651 172.232141 
L 219.839549 167.712904 
L 217.938051 170.420162 
z
" clip-path="url(#pd91b44f00d)" style="fill: #144b72; fill-opacity: 0.3; stroke: #4169e1; stroke-width: 0.5"/>
    <path d="M 173.573635 169.501109 
L 177.414085 176.550623 
L 181.260545 178.6218 
L 183.166176 192.738463 
L 185.176736 172.451924 
L 181.347246 166.281698 
L 177.497817 172.094719 
L 175.543215 167.359123 
z
" clip-path="url(#pd91b44f00d)" style="fill: #15527c; fill-opacity: 0.3; stroke: #4169e1; stroke-width: 0.5"/>
    <path d="M 154.274813 168.785403 
L 158.103719 171.147965 
L 161.947613 176.045212 
L 163.917842 168.824533 
L 165.923009 175.197673 
L 162.08298 166.902774 
L 158.281204 168.115278 
L 156.273309 166.876302 
z
" clip-path="url(#pd91b44f00d)" style="fill: #15517b; fill-opacity: 0.3; stroke: #4169e1; stroke-width: 0.5"/>
    <path d="M 123.409169 172.685537 
L 127.190985 173.617885 
L 130.910909 169.537022 
L 133.03573 173.779781 
L 135.103118 174.6937 
L 131.212065 165.679043 
L 127.344542 158.961452 
L 125.474642 171.977207 
z
" clip-path="url(#pd91b44f00d)" style="fill: #1c6da4; fill-opacity: 0.3; stroke: #4169e1; stroke-width: 0.5"/>
    <path d="M 246.922895 171.132983 
L 251.000249 166.023127 
L 254.809298 171.838757 
L 256.5832 172.25722 
L 252.644718 171.789611 
L 248.808419 167.620955 
z
" clip-path="url(#pd91b44f00d)" style="fill: #16537d; fill-opacity: 0.3; stroke: #4169e1; stroke-width: 0.5"/>
    <path d="M 204.49094 172.299506 
L 208.310823 178.422927 
L 212.264792 173.722694 
L 214.153827 173.304252 
L 216.046753 172.041005 
L 212.281089 162.286145 
L 208.274077 172.38839 
L 206.393138 171.758868 
z
" clip-path="url(#pd91b44f00d)" style="fill: #1c6ca3; fill-opacity: 0.3; stroke: #4169e1; stroke-width: 0.5"/>
    <path d="M 235.468259 168.659263 
L 239.32241 172.585898 
L 243.285094 171.85836 
L 245.014063 175.464782 
L 246.922895 171.132983 
L 243.082251 167.002288 
L 239.227642 163.552651 
L 237.239582 171.380733 
z
" clip-path="url(#pd91b44f00d)" style="fill: #175884; fill-opacity: 0.3; stroke: #4169e1; stroke-width: 0.5"/>
    <path d="M 150.322702 180.97688 
L 154.089887 173.902767 
L 157.924137 174.148584 
L 159.924307 171.384988 
L 161.947613 176.045212 
L 158.103719 171.147965 
L 154.274813 168.785403 
L 152.660272 226.176157 
z
" clip-path="url(#pd91b44f00d)" style="fill: #1d71aa; fill-opacity: 0.3; stroke: #4169e1; stroke-width: 0.5"/>
    <path d="M 192.889558 174.273833 
L 196.731811 178.79474 
L 200.669642 172.617211 
L 202.585727 172.331051 
L 204.49094 172.299506 
L 200.605051 173.078597 
L 196.707837 177.077244 
L 194.837225 170.931793 
z
" clip-path="url(#pd91b44f00d)" style="fill: #185c8b; fill-opacity: 0.3; stroke: #4169e1; stroke-width: 0.5"/>
    <path d="M 181.260545 178.6218 
L 185.121439 178.497589 
L 189.005273 176.171334 
L 190.9754 171.0103 
L 192.889558 174.273833 
L 188.965418 185.742958 
L 185.176736 172.451924 
L 183.166176 192.738463 
z
" clip-path="url(#pd91b44f00d)" style="fill: #13486d; fill-opacity: 0.3; stroke: #4169e1; stroke-width: 0.5"/>
    <path d="M 223.735466 179.598292 
L 227.642265 180.031659 
L 231.708948 172.684378 
L 233.514571 174.554703 
L 235.468259 168.659263 
L 231.39089 176.469252 
L 227.708339 163.922276 
L 225.796301 167.405896 
z
" clip-path="url(#pd91b44f00d)" style="fill: #196294; fill-opacity: 0.3; stroke: #4169e1; stroke-width: 0.5"/>
    <path d="M 111.638675 169.498522 
L 115.454165 172.373888 
L 119.157301 168.777856 
L 121.289731 170.756029 
L 123.409169 172.685537 
L 119.570885 168.097116 
L 115.858167 170.116869 
L 113.766753 170.484985 
z
" clip-path="url(#pd91b44f00d)" style="fill: #185c8b; fill-opacity: 0.3; stroke: #4169e1; stroke-width: 0.5"/>
    <path d="M 161.947613 176.045212 
L 165.785067 178.899719 
L 169.620615 177.231022 
L 171.5962 168.977712 
L 173.573635 169.501109 
L 169.735071 169.162554 
L 165.923009 175.197673 
L 163.917842 168.824533 
z
" clip-path="url(#pd91b44f00d)" style="fill: #1b689e; fill-opacity: 0.3; stroke: #4169e1; stroke-width: 0.5"/>
    <path d="M 130.910909 169.537022 
L 134.701117 169.270118 
L 138.592761 176.740996 
L 140.584674 171.233377 
L 142.623487 170.490537 
L 138.857691 172.814829 
L 135.103118 174.6937 
L 133.03573 173.779781 
z
" clip-path="url(#pd91b44f00d)" style="fill: #124466; fill-opacity: 0.3; stroke: #4169e1; stroke-width: 0.5"/>
    <path d="M 254.809298 171.838757 
L 258.798558 171.12497 
L 262.436071 182.807972 
L 264.569656 170.58457 
L 260.659573 168.287334 
L 256.5832 172.25722 
z
" clip-path="url(#pd91b44f00d)" style="fill: #185c8c; fill-opacity: 0.3; stroke: #4169e1; stroke-width: 0.5"/>
    <path d="M 212.264792 173.722694 
L 216.201911 171.895669 
L 220.002962 179.972747 
L 221.982664 172.95122 
L 223.735466 179.598292 
L 219.970583 170.578362 
L 216.046753 172.041005 
L 214.153827 173.304252 
z
" clip-path="url(#pd91b44f00d)" style="fill: #165682; fill-opacity: 0.3; stroke: #4169e1; stroke-width: 0.5"/>
    <path d="M 243.285094 171.85836 
L 247.142487 176.011621 
L 251.097233 176.39985 
L 253.058547 170.211569 
L 254.809298 171.838757 
L 251.000249 166.023127 
L 246.922895 171.132983 
L 245.014063 175.464782 
z
" clip-path="url(#pd91b44f00d)" style="fill: #196091; fill-opacity: 0.3; stroke: #4169e1; stroke-width: 0.5"/>
    <path d="M 262.436071 182.807972 
L 266.28899 186.874091 
L 268.56943 170.202722 
L 264.569656 170.58457 
z
" clip-path="url(#pd91b44f00d)" style="fill: #1b669b; fill-opacity: 0.3; stroke: #4169e1; stroke-width: 0.5"/>
    <path d="M 119.157301 168.777856 
L 123.040798 174.770977 
L 126.847235 176.029689 
L 128.980195 179.460339 
L 130.910909 169.537022 
L 127.190985 173.617885 
L 123.409169 172.685537 
L 121.289731 170.756029 
z
" clip-path="url(#pd91b44f00d)" style="fill: #114061; fill-opacity: 0.3; stroke: #4169e1; stroke-width: 0.5"/>
    <path d="M 138.592761 176.740996 
L 142.419122 178.622205 
L 146.290927 184.805356 
L 148.267975 177.860116 
L 150.322702 180.97688 
L 146.487669 177.24587 
L 142.623487 170.490537 
L 140.584674 171.233377 
z
" clip-path="url(#pd91b44f00d)" style="fill: #134a70; fill-opacity: 0.3; stroke: #4169e1; stroke-width: 0.5"/>
    <path d="M 200.669642 172.617211 
L 204.545486 175.163753 
L 208.447905 175.834337 
L 210.339004 176.503105 
L 212.264792 173.722694 
L 208.310823 178.422927 
L 204.49094 172.299506 
L 202.585727 172.331051 
z
" clip-path="url(#pd91b44f00d)" style="fill: #124366; fill-opacity: 0.3; stroke: #4169e1; stroke-width: 0.5"/>
    <path d="M 231.708948 172.684378 
L 235.601189 175.337196 
L 239.463317 179.585414 
L 241.41314 174.06653 
L 243.285094 171.85836 
L 239.32241 172.585898 
L 235.468259 168.659263 
L 233.514571 174.554703 
z
" clip-path="url(#pd91b44f00d)" style="fill: #144d74; fill-opacity: 0.3; stroke: #4169e1; stroke-width: 0.5"/>
    <path d="M 196.766522 179.166972 
L 200.609058 186.187795 
L 204.512722 186.611312 
L 205.689189 253.851045 
L 208.447905 175.834337 
L 204.545486 175.163753 
L 200.669642 172.617211 
L 198.729615 174.780383 
z
" clip-path="url(#pd91b44f00d)" style="fill: #165682; fill-opacity: 0.3; stroke: #4169e1; stroke-width: 0.5"/>
    <path d="M 220.002962 179.972747 
L 223.967578 177.679799 
L 227.779325 184.863756 
L 229.732819 179.407752 
L 231.708948 172.684378 
L 227.642265 180.031659 
L 223.735466 179.598292 
L 221.982664 172.95122 
z
" clip-path="url(#pd91b44f00d)" style="fill: #154f78; fill-opacity: 0.3; stroke: #4169e1; stroke-width: 0.5"/>
    <path d="M 251.097233 176.39985 
L 254.995765 179.268436 
L 258.893233 182.322411 
L 260.887476 174.994202 
L 262.436071 182.807972 
L 258.798558 171.12497 
L 254.809298 171.838757 
L 253.058547 170.211569 
z
" clip-path="url(#pd91b44f00d)" style="fill: #185c8b; fill-opacity: 0.3; stroke: #4169e1; stroke-width: 0.5"/>
    <path d="M 169.620615 177.231022 
L 173.471582 171.282915 
L 177.33785 174.407891 
L 179.31688 170.259294 
L 181.260545 178.6218 
L 177.414085 176.550623 
L 173.573635 169.501109 
L 171.5962 168.977712 
z
" clip-path="url(#pd91b44f00d)" style="fill: #185b89; fill-opacity: 0.3; stroke: #4169e1; stroke-width: 0.5"/>
    <path d="M 107.484314 173.686018 
L 111.346358 178.353575 
L 115.099021 177.398378 
L 117.255234 179.802715 
L 119.157301 168.777856 
L 115.454165 172.373888 
L 111.638675 169.498522 
L 109.690977 177.556861 
z
" clip-path="url(#pd91b44f00d)" style="fill: #165681; fill-opacity: 0.3; stroke: #4169e1; stroke-width: 0.5"/>
    <path d="M 157.924137 174.148584 
L 161.776767 176.362504 
L 165.635583 178.751783 
L 167.651109 187.63298 
L 169.620615 177.231022 
L 165.785067 178.899719 
L 161.947613 176.045212 
L 159.924307 171.384988 
z
" clip-path="url(#pd91b44f00d)" style="fill: #124366; fill-opacity: 0.3; stroke: #4169e1; stroke-width: 0.5"/>
    <path d="M 258.893233 182.322411 
L 262.981893 179.044931 
L 264.895431 174.560258 
L 266.28899 186.874091 
L 262.436071 182.807972 
L 260.887476 174.994202 
z
" clip-path="url(#pd91b44f00d)" style="fill: #1b669b; fill-opacity: 0.3; stroke: #4169e1; stroke-width: 0.5"/>
    <path d="M 126.847235 176.029689 
L 130.740819 182.857953 
L 134.463845 176.973543 
L 136.547139 178.017186 
L 138.592761 176.740996 
L 134.701117 169.270118 
L 130.910909 169.537022 
L 128.980195 179.460339 
z
" clip-path="url(#pd91b44f00d)" style="fill: #1b699e; fill-opacity: 0.3; stroke: #4169e1; stroke-width: 0.5"/>
    <path d="M 189.005273 176.171334 
L 192.927252 170.601304 
L 196.766522 179.166972 
L 198.729615 174.780383 
L 200.669642 172.617211 
L 196.731811 178.79474 
L 192.889558 174.273833 
L 190.9754 171.0103 
z
" clip-path="url(#pd91b44f00d)" style="fill: #134b71; fill-opacity: 0.3; stroke: #4169e1; stroke-width: 0.5"/>
    <path d="M 239.463317 179.585414 
L 243.366585 182.079004 
L 247.369208 180.720697 
L 249.233897 178.645841 
L 251.097233 176.39985 
L 247.142487 176.011621 
L 243.285094 171.85836 
L 241.41314 174.06653 
z
" clip-path="url(#pd91b44f00d)" style="fill: #196192; fill-opacity: 0.3; stroke: #4169e1; stroke-width: 0.5"/>
    <path d="M 146.290927 184.805356 
L 150.048732 176.913359 
L 153.89708 178.100577 
L 155.92541 178.095189 
L 157.924137 174.148584 
L 154.089887 173.902767 
L 150.322702 180.97688 
L 148.267975 177.860116 
z
" clip-path="url(#pd91b44f00d)" style="fill: #1e72ac; fill-opacity: 0.3; stroke: #4169e1; stroke-width: 0.5"/>
    <path d="M 208.447905 175.834337 
L 212.320698 179.578366 
L 216.247985 179.599357 
L 218.185239 176.034399 
L 220.002962 179.972747 
L 216.201911 171.895669 
L 212.264792 173.722694 
L 210.339004 176.503105 
z
" clip-path="url(#pd91b44f00d)" style="fill: #185d8d; fill-opacity: 0.3; stroke: #4169e1; stroke-width: 0.5"/>
    <path d="M 204.512722 186.611312 
L 208.476519 182.746527 
L 212.413212 182.675015 
L 214.344598 180.35 
L 216.247985 179.599357 
L 212.320698 179.578366 
L 208.447905 175.834337 
L 205.689189 253.851045 
z
" clip-path="url(#pd91b44f00d)" style="fill: #1c6ca4; fill-opacity: 0.3; stroke: #4169e1; stroke-width: 0.5"/>
    <path d="M 115.099021 177.398378 
L 118.908106 178.810975 
L 122.930371 192.420632 
L 124.766455 176.708986 
L 126.847235 176.029689 
L 123.040798 174.770977 
L 119.157301 168.777856 
L 117.255234 179.802715 
z
" clip-path="url(#pd91b44f00d)" style="fill: #134b71; fill-opacity: 0.3; stroke: #4169e1; stroke-width: 0.5"/>
    <path d="M 227.779325 184.863756 
L 231.780626 181.854138 
L 235.737281 181.961725 
L 237.576892 182.039849 
L 239.463317 179.585414 
L 235.601189 175.337196 
L 231.708948 172.684378 
L 229.732819 179.407752 
z
" clip-path="url(#pd91b44f00d)" style="fill: #1d70aa; fill-opacity: 0.3; stroke: #4169e1; stroke-width: 0.5"/>
    <path d="M 177.33785 174.407891 
L 181.201225 180.036686 
L 185.107172 173.710949 
L 187.05563 176.24932 
L 189.005273 176.171334 
L 185.121439 178.497589 
L 181.260545 178.6218 
L 179.31688 170.259294 
z
" clip-path="url(#pd91b44f00d)" style="fill: #144c73; fill-opacity: 0.3; stroke: #4169e1; stroke-width: 0.5"/>
    <path d="M 134.463845 176.973543 
L 138.29247 177.891658 
L 142.192664 184.817172 
L 144.188366 178.842775 
L 146.290927 184.805356 
L 142.419122 178.622205 
L 138.592761 176.740996 
L 136.547139 178.017186 
z
" clip-path="url(#pd91b44f00d)" style="fill: #13476c; fill-opacity: 0.3; stroke: #4169e1; stroke-width: 0.5"/>
    <path d="M 103.341982 179.543964 
L 107.083829 178.293279 
L 110.922588 181.019904 
L 113.116348 184.292472 
L 115.099021 177.398378 
L 111.346358 178.353575 
L 107.484314 173.686018 
L 105.530228 181.681657 
z
" clip-path="url(#pd91b44f00d)" style="fill: #175986; fill-opacity: 0.3; stroke: #4169e1; stroke-width: 0.5"/>
    <path d="M 216.247985 179.599357 
L 220.181893 179.942201 
L 224.075597 183.330312 
L 225.89954 185.976778 
L 227.779325 184.863756 
L 223.967578 177.679799 
L 220.002962 179.972747 
L 218.185239 176.034399 
z
" clip-path="url(#pd91b44f00d)" style="fill: #175784; fill-opacity: 0.3; stroke: #4169e1; stroke-width: 0.5"/>
    <path d="M 165.635583 178.751783 
L 169.492947 176.146081 
L 173.368708 177.301098 
L 175.356071 177.177463 
L 177.33785 174.407891 
L 173.471582 171.282915 
L 169.620615 177.231022 
L 167.651109 187.63298 
z
" clip-path="url(#pd91b44f00d)" style="fill: #1c6da4; fill-opacity: 0.3; stroke: #4169e1; stroke-width: 0.5"/>
    <path d="M 247.369208 180.720697 
L 251.318169 182.040141 
L 255.364979 180.05611 
L 257.300006 175.190507 
L 258.893233 182.322411 
L 254.995765 179.268436 
L 251.097233 176.39985 
L 249.233897 178.645841 
z
" clip-path="url(#pd91b44f00d)" style="fill: #185c8b; fill-opacity: 0.3; stroke: #4169e1; stroke-width: 0.5"/>
    <path d="M 122.930371 192.420632 
L 126.458824 175.833099 
L 130.368932 182.173922 
L 132.472202 183.450138 
L 134.463845 176.973543 
L 130.740819 182.857953 
L 126.847235 176.029689 
L 124.766455 176.708986 
z
" clip-path="url(#pd91b44f00d)" style="fill: #1d6ea6; fill-opacity: 0.3; stroke: #4169e1; stroke-width: 0.5"/>
    <path d="M 110.922588 181.019904 
L 114.771827 184.05867 
L 118.668281 189.485931 
L 120.879382 195.182445 
L 122.930371 192.420632 
L 118.908106 178.810975 
L 115.099021 177.398378 
L 113.116348 184.292472 
z
" clip-path="url(#pd91b44f00d)" style="fill: #155079; fill-opacity: 0.3; stroke: #4169e1; stroke-width: 0.5"/>
    <path d="M 235.737281 181.961725 
L 239.624261 185.770531 
L 243.662064 183.166028 
L 245.518103 181.98365 
L 247.369208 180.720697 
L 243.366585 182.079004 
L 239.463317 179.585414 
L 237.576892 182.039849 
z
" clip-path="url(#pd91b44f00d)" style="fill: #165580; fill-opacity: 0.3; stroke: #4169e1; stroke-width: 0.5"/>
    <path d="M 153.89708 178.100577 
L 157.747214 178.032321 
L 161.621269 181.069438 
L 163.653772 186.444045 
L 165.635583 178.751783 
L 161.776767 176.362504 
L 157.924137 174.148584 
L 155.92541 178.095189 
z
" clip-path="url(#pd91b44f00d)" style="fill: #175885; fill-opacity: 0.3; stroke: #4169e1; stroke-width: 0.5"/>
    <path d="M 185.107172 173.710949 
L 188.983511 178.644573 
L 192.844157 185.847964 
L 194.8197 180.790518 
L 196.766522 179.166972 
L 192.927252 170.601304 
L 189.005273 176.171334 
L 187.05563 176.24932 
z
" clip-path="url(#pd91b44f00d)" style="fill: #144e76; fill-opacity: 0.3; stroke: #4169e1; stroke-width: 0.5"/>
    <path d="M 142.192664 184.817172 
L 146.01096 183.467846 
L 149.914845 191.109364 
L 151.872215 179.87605 
L 153.89708 178.100577 
L 150.048732 176.913359 
L 146.290927 184.805356 
L 144.188366 178.842775 
z
" clip-path="url(#pd91b44f00d)" style="fill: #195f90; fill-opacity: 0.3; stroke: #4169e1; stroke-width: 0.5"/>
    <path d="M 224.075597 183.330312 
L 228.049787 182.420276 
L 231.832183 192.139439 
L 233.912925 180.694504 
L 235.737281 181.961725 
L 231.780626 181.854138 
L 227.779325 184.863756 
L 225.89954 185.976778 
z
" clip-path="url(#pd91b44f00d)" style="fill: #144e76; fill-opacity: 0.3; stroke: #4169e1; stroke-width: 0.5"/>
    <path d="M 173.368708 177.301098 
L 177.244081 185.795541 
L 181.134451 184.176189 
L 183.107191 183.596679 
L 185.107172 173.710949 
L 181.201225 180.036686 
L 177.33785 174.407891 
L 175.356071 177.177463 
z
" clip-path="url(#pd91b44f00d)" style="fill: #124569; fill-opacity: 0.3; stroke: #4169e1; stroke-width: 0.5"/>
    <path d="M 255.364979 180.05611 
L 259.355877 180.642064 
L 261.112895 181.897402 
L 262.981893 179.044931 
L 258.893233 182.322411 
L 257.300006 175.190507 
z
" clip-path="url(#pd91b44f00d)" style="fill: #144c73; fill-opacity: 0.3; stroke: #4169e1; stroke-width: 0.5"/>
    <path d="M 192.844157 185.847964 
L 196.806087 178.966348 
L 200.700793 182.844751 
L 202.692597 176.400286 
L 204.512722 186.611312 
L 200.609058 186.187795 
L 196.766522 179.166972 
L 194.8197 180.790518 
z
" clip-path="url(#pd91b44f00d)" style="fill: #175885; fill-opacity: 0.3; stroke: #4169e1; stroke-width: 0.5"/>
    <path d="M 130.368932 182.173922 
L 134.202312 182.999583 
L 137.988977 179.073786 
L 140.122468 184.192205 
L 142.192664 184.817172 
L 138.29247 177.891658 
L 134.463845 176.973543 
L 132.472202 183.450138 
z
" clip-path="url(#pd91b44f00d)" style="fill: #1a669a; fill-opacity: 0.3; stroke: #4169e1; stroke-width: 0.5"/>
    <path d="M 161.621269 181.069438 
L 165.49811 183.764993 
L 169.375589 183.622124 
L 171.372316 177.293035 
L 173.368708 177.301098 
L 169.492947 176.146081 
L 165.635583 178.751783 
L 163.653772 186.444045 
z
" clip-path="url(#pd91b44f00d)" style="fill: #1a6294; fill-opacity: 0.3; stroke: #4169e1; stroke-width: 0.5"/>
    <path d="M 118.668281 189.485931 
L 122.418873 186.467249 
L 126.173993 182.527779 
L 128.303893 184.197524 
L 130.368932 182.173922 
L 126.458824 175.833099 
L 122.930371 192.420632 
L 120.879382 195.182445 
z
" clip-path="url(#pd91b44f00d)" style="fill: #1e74b0; fill-opacity: 0.3; stroke: #4169e1; stroke-width: 0.5"/>
    <path d="M 99.043888 180.002926 
L 102.900315 183.277145 
L 106.771454 187.07728 
L 108.775876 180.607527 
L 110.922588 181.019904 
L 107.083829 178.293279 
L 103.341982 179.543964 
L 101.300153 184.046421 
z
" clip-path="url(#pd91b44f00d)" style="fill: #15517b; fill-opacity: 0.3; stroke: #4169e1; stroke-width: 0.5"/>
    <path d="M 212.413212 182.675015 
L 216.313281 186.024566 
L 220.249398 187.24074 
L 222.153724 186.021223 
L 224.075597 183.330312 
L 220.181893 179.942201 
L 216.247985 179.599357 
L 214.344598 180.35 
z
" clip-path="url(#pd91b44f00d)" style="fill: #175886; fill-opacity: 0.3; stroke: #4169e1; stroke-width: 0.5"/>
    <path d="M 243.662064 183.166028 
L 247.636393 183.907969 
L 251.687827 182.056227 
L 253.52591 181.208748 
L 255.364979 180.05611 
L 251.318169 182.040141 
L 247.369208 180.720697 
L 245.518103 181.98365 
z
" clip-path="url(#pd91b44f00d)" style="fill: #185b8a; fill-opacity: 0.3; stroke: #4169e1; stroke-width: 0.5"/>
    <path d="M 181.134451 184.176189 
L 185.044458 181.53962 
L 188.922453 188.806209 
L 190.915742 182.29601 
L 192.844157 185.847964 
L 188.983511 178.644573 
L 185.107172 173.710949 
L 183.107191 183.596679 
z
" clip-path="url(#pd91b44f00d)" style="fill: #195f90; fill-opacity: 0.3; stroke: #4169e1; stroke-width: 0.5"/>
    <path d="M 149.914845 191.109364 
L 153.744799 188.759849 
L 157.582444 184.561611 
L 159.584264 178.26921 
L 161.621269 181.069438 
L 157.747214 178.032321 
L 153.89708 178.100577 
L 151.872215 179.87605 
z
" clip-path="url(#pd91b44f00d)" style="fill: #1e74b0; fill-opacity: 0.3; stroke: #4169e1; stroke-width: 0.5"/>
    <path d="M 231.832183 192.139439 
L 235.986578 183.218941 
L 240.020651 181.373197 
L 241.736275 187.122818 
L 243.662064 183.166028 
L 239.624261 185.770531 
L 235.737281 181.961725 
L 233.912925 180.694504 
z
" clip-path="url(#pd91b44f00d)" style="fill: #1b679c; fill-opacity: 0.3; stroke: #4169e1; stroke-width: 0.5"/>
    <path d="M 137.988977 179.073786 
L 141.899557 184.89449 
L 145.801499 190.145544 
L 147.802352 183.509085 
L 149.914845 191.109364 
L 146.01096 183.467846 
L 142.192664 184.817172 
L 140.122468 184.192205 
z
" clip-path="url(#pd91b44f00d)" style="fill: #103f5f; fill-opacity: 0.3; stroke: #4169e1; stroke-width: 0.5"/>
    <path d="M 200.700793 182.844751 
L 204.64471 182.100624 
L 208.548738 185.973487 
L 210.421587 189.447075 
L 212.413212 182.675015 
L 208.476519 182.746527 
L 204.512722 186.611312 
L 202.692597 176.400286 
z
" clip-path="url(#pd91b44f00d)" style="fill: #16537d; fill-opacity: 0.3; stroke: #4169e1; stroke-width: 0.5"/>
    <path d="M 169.375589 183.622124 
L 173.265539 188.564214 
L 177.16228 186.819769 
L 179.14887 187.216333 
L 181.134451 184.176189 
L 177.244081 185.795541 
L 173.368708 177.301098 
L 171.372316 177.293035 
z
" clip-path="url(#pd91b44f00d)" style="fill: #144c73; fill-opacity: 0.3; stroke: #4169e1; stroke-width: 0.5"/>
    <path d="M 220.249398 187.24074 
L 224.204245 187.855419 
L 228.047055 195.211643 
L 230.127754 183.824332 
L 231.832183 192.139439 
L 228.049787 182.420276 
L 224.075597 183.330312 
L 222.153724 186.021223 
z
" clip-path="url(#pd91b44f00d)" style="fill: #175783; fill-opacity: 0.3; stroke: #4169e1; stroke-width: 0.5"/>
    <path d="M 106.771454 187.07728 
L 110.696706 193.380477 
L 114.303727 183.732725 
L 116.383241 180.822838 
L 118.668281 189.485931 
L 114.771827 184.05867 
L 110.922588 181.019904 
L 108.775876 180.607527 
z
" clip-path="url(#pd91b44f00d)" style="fill: #196294; fill-opacity: 0.3; stroke: #4169e1; stroke-width: 0.5"/>
    <path d="M 188.922453 188.806209 
L 192.846866 187.692768 
L 196.749094 191.357015 
L 198.698636 190.456514 
L 200.700793 182.844751 
L 196.806087 178.966348 
L 192.844157 185.847964 
L 190.915742 182.29601 
z
" clip-path="url(#pd91b44f00d)" style="fill: #1b699f; fill-opacity: 0.3; stroke: #4169e1; stroke-width: 0.5"/>
    <path d="M 251.687827 182.056227 
L 255.601195 185.895416 
L 257.520167 181.865025 
L 259.355877 180.642064 
L 255.364979 180.05611 
L 253.52591 181.208748 
z
" clip-path="url(#pd91b44f00d)" style="fill: #175886; fill-opacity: 0.3; stroke: #4169e1; stroke-width: 0.5"/>
    <path d="M 94.882316 187.151072 
L 98.75046 190.62982 
L 102.635495 194.715162 
L 104.535593 183.468633 
L 106.771454 187.07728 
L 102.900315 183.277145 
L 99.043888 180.002926 
L 97.133423 190.184368 
z
" clip-path="url(#pd91b44f00d)" style="fill: #165681; fill-opacity: 0.3; stroke: #4169e1; stroke-width: 0.5"/>
    <path d="M 157.582444 184.561611 
L 161.486486 191.319321 
L 165.371886 193.386378 
L 167.374074 188.00638 
L 169.375589 183.622124 
L 165.49811 183.764993 
L 161.621269 181.069438 
L 159.584264 178.26921 
z
" clip-path="url(#pd91b44f00d)" style="fill: #144c73; fill-opacity: 0.3; stroke: #4169e1; stroke-width: 0.5"/>
    <path d="M 126.173993 182.527779 
L 130.099307 188.885075 
L 134.012049 194.647159 
L 136.003473 187.145488 
L 137.988977 179.073786 
L 134.202312 182.999583 
L 130.368932 182.173922 
L 128.303893 184.197524 
z
" clip-path="url(#pd91b44f00d)" style="fill: #12466b; fill-opacity: 0.3; stroke: #4169e1; stroke-width: 0.5"/>
    <path d="M 240.020651 181.373197 
L 243.898292 186.947979 
L 247.830729 190.187566 
L 249.644495 190.728882 
L 251.687827 182.056227 
L 247.636393 183.907969 
L 243.662064 183.166028 
L 241.736275 187.122818 
z
" clip-path="url(#pd91b44f00d)" style="fill: #124467; fill-opacity: 0.3; stroke: #4169e1; stroke-width: 0.5"/>
    <path d="M 177.16228 186.819769 
L 181.062613 190.137359 
L 184.997939 185.034157 
L 186.938704 193.052687 
L 188.922453 188.806209 
L 185.044458 181.53962 
L 181.134451 184.176189 
L 179.14887 187.216333 
z
" clip-path="url(#pd91b44f00d)" style="fill: #1b689d; fill-opacity: 0.3; stroke: #4169e1; stroke-width: 0.5"/>
    <path d="M 208.548738 185.973487 
L 212.506186 185.839785 
L 216.457987 186.960071 
L 218.369669 186.325791 
L 220.249398 187.24074 
L 216.313281 186.024566 
L 212.413212 182.675015 
L 210.421587 189.447075 
z
" clip-path="url(#pd91b44f00d)" style="fill: #165581; fill-opacity: 0.3; stroke: #4169e1; stroke-width: 0.5"/>
    <path d="M 145.801499 190.145544 
L 149.628953 186.271918 
L 153.506364 186.662577 
L 155.570841 189.361873 
L 157.582444 184.561611 
L 153.744799 188.759849 
L 149.914845 191.109364 
L 147.802352 183.509085 
z
" clip-path="url(#pd91b44f00d)" style="fill: #185d8d; fill-opacity: 0.3; stroke: #4169e1; stroke-width: 0.5"/>
    <path d="M 114.303727 183.732725 
L 118.1367 184.420404 
L 122.059148 189.765978 
L 124.219934 192.299716 
L 126.173993 182.527779 
L 122.418873 186.467249 
L 118.668281 189.485931 
L 116.383241 180.822838 
z
" clip-path="url(#pd91b44f00d)" style="fill: #12466a; fill-opacity: 0.3; stroke: #4169e1; stroke-width: 0.5"/>
    <path d="M 173.160288 188.372732 
L 177.069126 196.803684 
L 180.82477 263.146488 
L 183.005627 187.191908 
L 184.997939 185.034157 
L 181.062613 190.137359 
L 177.16228 186.819769 
L 175.163914 190.380738 
z
" clip-path="url(#pd91b44f00d)" style="fill: #114162; fill-opacity: 0.3; stroke: #4169e1; stroke-width: 0.5"/>
    <path d="M 196.749094 191.357015 
L 200.656455 194.694167 
L 204.682623 186.824519 
L 206.527213 194.84353 
L 208.548738 185.973487 
L 204.64471 182.100624 
L 200.700793 182.844751 
L 198.698636 190.456514 
z
" clip-path="url(#pd91b44f00d)" style="fill: #1d70aa; fill-opacity: 0.3; stroke: #4169e1; stroke-width: 0.5"/>
    <path d="M 165.371886 193.386378 
L 169.26116 193.778368 
L 173.160288 188.372732 
L 175.163914 190.380738 
L 177.16228 186.819769 
L 173.265539 188.564214 
L 169.375589 183.622124 
L 167.374074 188.00638 
z
" clip-path="url(#pd91b44f00d)" style="fill: #1b679b; fill-opacity: 0.3; stroke: #4169e1; stroke-width: 0.5"/>
    <path d="M 228.047055 195.211643 
L 232.223089 185.057418 
L 236.200678 186.319988 
L 238.007985 188.771459 
L 240.020651 181.373197 
L 235.986578 183.218941 
L 231.832183 192.139439 
L 230.127754 183.824332 
z
" clip-path="url(#pd91b44f00d)" style="fill: #1e72ad; fill-opacity: 0.3; stroke: #4169e1; stroke-width: 0.5"/>
    <path d="M 134.012049 194.647159 
L 137.762176 187.009125 
L 141.622018 186.776707 
L 143.789606 195.708802 
L 145.801499 190.145544 
L 141.899557 184.89449 
L 137.988977 179.073786 
L 136.003473 187.145488 
z
" clip-path="url(#pd91b44f00d)" style="fill: #1d70a9; fill-opacity: 0.3; stroke: #4169e1; stroke-width: 0.5"/>
    <path d="M 184.997939 185.034157 
L 188.90521 190.359257 
L 192.716986 210.262744 
L 194.836483 185.918532 
L 196.749094 191.357015 
L 192.846866 187.692768 
L 188.922453 188.806209 
L 186.938704 193.052687 
z
" clip-path="url(#pd91b44f00d)" style="fill: #114061; fill-opacity: 0.3; stroke: #4169e1; stroke-width: 0.5"/>
    <path d="M 247.830729 190.187566 
L 251.933477 187.011912 
L 253.664668 190.454357 
L 255.601195 185.895416 
L 251.687827 182.056227 
L 249.644495 190.728882 
z
" clip-path="url(#pd91b44f00d)" style="fill: #16547e; fill-opacity: 0.3; stroke: #4169e1; stroke-width: 0.5"/>
    <path d="M 102.635495 194.715162 
L 106.283506 188.151918 
L 110.125036 189.43555 
L 112.239395 187.668459 
L 114.303727 183.732725 
L 110.696706 193.380477 
L 106.771454 187.07728 
L 104.535593 183.468633 
z
" clip-path="url(#pd91b44f00d)" style="fill: #185d8d; fill-opacity: 0.3; stroke: #4169e1; stroke-width: 0.5"/>
    <path d="M 153.506364 186.662577 
L 157.403676 188.778505 
L 161.323972 195.005333 
L 163.374391 200.754534 
L 165.371886 193.386378 
L 161.486486 191.319321 
L 157.582444 184.561611 
L 155.570841 189.361873 
z
" clip-path="url(#pd91b44f00d)" style="fill: #114060; fill-opacity: 0.3; stroke: #4169e1; stroke-width: 0.5"/>
    <path d="M 216.457987 186.960071 
L 220.4232 187.793508 
L 224.390486 189.081587 
L 226.293897 188.214539 
L 228.047055 195.211643 
L 224.204245 187.855419 
L 220.249398 187.24074 
L 218.369669 186.325791 
z
" clip-path="url(#pd91b44f00d)" style="fill: #15517a; fill-opacity: 0.3; stroke: #4169e1; stroke-width: 0.5"/>
    <path d="M 90.58653 190.136971 
L 94.439137 192.562266 
L 98.3784 198.234267 
L 100.354573 190.061 
L 102.635495 194.715162 
L 98.75046 190.62982 
L 94.882316 187.151072 
L 92.70009 187.21856 
z
" clip-path="url(#pd91b44f00d)" style="fill: #134a70; fill-opacity: 0.3; stroke: #4169e1; stroke-width: 0.5"/>
    <path d="M 122.059148 189.765978 
L 125.912338 190.875895 
L 129.775152 192.049208 
L 131.856197 190.236252 
L 134.012049 194.647159 
L 130.099307 188.885075 
L 126.173993 182.527779 
L 124.219934 192.299716 
z
" clip-path="url(#pd91b44f00d)" style="fill: #175683; fill-opacity: 0.3; stroke: #4169e1; stroke-width: 0.5"/>
    <path d="M 180.82477 263.146488 
L 184.942781 190.727171 
L 188.858757 197.627777 
L 190.862539 192.474453 
L 192.716986 210.262744 
L 188.90521 190.359257 
L 184.997939 185.034157 
L 183.005627 187.191908 
z
" clip-path="url(#pd91b44f00d)" style="fill: #1e74b0; fill-opacity: 0.3; stroke: #4169e1; stroke-width: 0.5"/>
    <path d="M 236.200678 186.319988 
L 240.086475 192.123301 
L 244.073089 193.483094 
L 245.95446 191.864113 
L 247.830729 190.187566 
L 243.898292 186.947979 
L 240.020651 181.373197 
L 238.007985 188.771459 
z
" clip-path="url(#pd91b44f00d)" style="fill: #134b71; fill-opacity: 0.3; stroke: #4169e1; stroke-width: 0.5"/>
    <path d="M 204.682623 186.824519 
L 208.575548 193.194538 
L 212.623022 187.269321 
L 214.445827 194.392022 
L 216.457987 186.960071 
L 212.506186 185.839785 
L 208.548738 185.973487 
L 206.527213 194.84353 
z
" clip-path="url(#pd91b44f00d)" style="fill: #175987; fill-opacity: 0.3; stroke: #4169e1; stroke-width: 0.5"/>
    <path d="M 110.125036 189.43555 
L 114.004902 192.239208 
L 117.910309 196.184317 
L 120.203319 205.084284 
L 122.059148 189.765978 
L 118.1367 184.420404 
L 114.303727 183.732725 
L 112.239395 187.668459 
z
" clip-path="url(#pd91b44f00d)" style="fill: #175a87; fill-opacity: 0.3; stroke: #4169e1; stroke-width: 0.5"/>
    <path d="M 141.622018 186.776707 
L 145.526136 189.98245 
L 149.417505 191.178534 
L 151.497472 193.318231 
L 153.506364 186.662577 
L 149.628953 186.271918 
L 145.801499 190.145544 
L 143.789606 195.708802 
z
" clip-path="url(#pd91b44f00d)" style="fill: #15527c; fill-opacity: 0.3; stroke: #4169e1; stroke-width: 0.5"/>
    <path d="M 192.716986 210.262744 
L 196.822559 186.866106 
L 200.719943 194.641177 
L 202.666196 194.560071 
L 204.682623 186.824519 
L 200.656455 194.694167 
L 196.749094 191.357015 
L 194.836483 185.918532 
z
" clip-path="url(#pd91b44f00d)" style="fill: #1e71ac; fill-opacity: 0.3; stroke: #4169e1; stroke-width: 0.5"/>
    <path d="M 161.323972 195.005333 
L 165.209535 190.34248 
L 169.130894 193.714385 
L 171.147951 190.398583 
L 173.160288 188.372732 
L 169.26116 193.778368 
L 165.371886 193.386378 
L 163.374391 200.754534 
z
" clip-path="url(#pd91b44f00d)" style="fill: #185b8a; fill-opacity: 0.3; stroke: #4169e1; stroke-width: 0.5"/>
    <path d="M 169.130894 193.714385 
L 173.054403 192.063215 
L 176.987672 196.080216 
L 178.997101 194.172995 
L 180.82477 263.146488 
L 177.069126 196.803684 
L 173.160288 188.372732 
L 171.147951 190.398583 
z
" clip-path="url(#pd91b44f00d)" style="fill: #134a71; fill-opacity: 0.3; stroke: #4169e1; stroke-width: 0.5"/>
    <path d="M 98.3784 198.234267 
L 102.022691 191.635329 
L 106.048806 200.731122 
L 108.071908 194.351543 
L 110.125036 189.43555 
L 106.283506 188.151918 
L 102.635495 194.715162 
L 100.354573 190.061 
z
" clip-path="url(#pd91b44f00d)" style="fill: #1c6aa0; fill-opacity: 0.3; stroke: #4169e1; stroke-width: 0.5"/>
    <path d="M 244.073089 193.483094 
L 247.966693 198.934508 
L 249.951827 192.928596 
L 251.933477 187.011912 
L 247.830729 190.187566 
L 245.95446 191.864113 
z
" clip-path="url(#pd91b44f00d)" style="fill: #185b89; fill-opacity: 0.3; stroke: #4169e1; stroke-width: 0.5"/>
    <path d="M 224.390486 189.081587 
L 228.441325 186.253912 
L 232.301442 194.185505 
L 234.230091 191.385779 
L 236.200678 186.319988 
L 232.223089 185.057418 
L 228.047055 195.211643 
L 226.293897 188.214539 
z
" clip-path="url(#pd91b44f00d)" style="fill: #185b89; fill-opacity: 0.3; stroke: #4169e1; stroke-width: 0.5"/>
    <path d="M 129.775152 192.049208 
L 133.647632 193.304562 
L 137.46725 189.455164 
L 139.604947 193.104436 
L 141.622018 186.776707 
L 137.762176 187.009125 
L 134.012049 194.647159 
L 131.856197 190.236252 
z
" clip-path="url(#pd91b44f00d)" style="fill: #1b679c; fill-opacity: 0.3; stroke: #4169e1; stroke-width: 0.5"/>
    <path d="M 149.417505 191.178534 
L 153.349857 197.176699 
L 157.223043 193.004018 
L 159.360125 211.062175 
L 161.323972 195.005333 
L 157.403676 188.778505 
L 153.506364 186.662577 
L 151.497472 193.318231 
z
" clip-path="url(#pd91b44f00d)" style="fill: #185c8b; fill-opacity: 0.3; stroke: #4169e1; stroke-width: 0.5"/>
    <path d="M 117.910309 196.184317 
L 121.698878 193.276449 
L 125.63333 198.303948 
L 127.664161 192.375135 
L 129.775152 192.049208 
L 125.912338 190.875895 
L 122.059148 189.765978 
L 120.203319 205.084284 
z
" clip-path="url(#pd91b44f00d)" style="fill: #1a6497; fill-opacity: 0.3; stroke: #4169e1; stroke-width: 0.5"/>
    <path d="M 212.623022 187.269321 
L 216.503155 194.988824 
L 220.525142 193.08564 
L 222.421398 193.517189 
L 224.390486 189.081587 
L 220.4232 187.793508 
L 216.457987 186.960071 
L 214.445827 194.392022 
z
" clip-path="url(#pd91b44f00d)" style="fill: #144d74; fill-opacity: 0.3; stroke: #4169e1; stroke-width: 0.5"/>
    <path d="M 86.181312 190.453469 
L 90.11799 195.396445 
L 93.925207 195.498249 
L 95.976214 189.823171 
L 98.3784 198.234267 
L 94.439137 192.562266 
L 90.58653 190.136971 
L 88.463994 192.946229 
z
" clip-path="url(#pd91b44f00d)" style="fill: #13496f; fill-opacity: 0.3; stroke: #4169e1; stroke-width: 0.5"/>
    <path d="M 176.987672 196.080216 
L 180.927234 198.090569 
L 184.899703 193.137272 
L 186.859587 201.197261 
L 188.858757 197.627777 
L 184.942781 190.727171 
L 180.82477 263.146488 
L 178.997101 194.172995 
z
" clip-path="url(#pd91b44f00d)" style="fill: #1b689e; fill-opacity: 0.3; stroke: #4169e1; stroke-width: 0.5"/>
    <path d="M 232.301442 194.185505 
L 236.321639 194.01717 
L 240.312767 195.723551 
L 242.193301 194.745284 
L 244.073089 193.483094 
L 240.086475 192.123301 
L 236.200678 186.319988 
L 234.230091 191.385779 
z
" clip-path="url(#pd91b44f00d)" style="fill: #185b8a; fill-opacity: 0.3; stroke: #4169e1; stroke-width: 0.5"/>
    <path d="M 106.048806 200.731122 
L 109.871212 200.789969 
L 113.600068 195.593879 
L 115.751929 195.449376 
L 117.910309 196.184317 
L 114.004902 192.239208 
L 110.125036 189.43555 
L 108.071908 194.351543 
z
" clip-path="url(#pd91b44f00d)" style="fill: #1d6fa8; fill-opacity: 0.3; stroke: #4169e1; stroke-width: 0.5"/>
    <path d="M 200.719943 194.641177 
L 204.69658 193.937852 
L 208.619053 199.057776 
L 210.587446 195.94523 
L 212.623022 187.269321 
L 208.575548 193.194538 
L 204.682623 186.824519 
L 202.666196 194.560071 
z
" clip-path="url(#pd91b44f00d)" style="fill: #165580; fill-opacity: 0.3; stroke: #4169e1; stroke-width: 0.5"/>
    <path d="M 188.858757 197.627777 
L 192.852972 191.350443 
L 196.774386 198.184502 
L 198.718349 200.254647 
L 200.719943 194.641177 
L 196.822559 186.866106 
L 192.716986 210.262744 
L 190.862539 192.474453 
z
" clip-path="url(#pd91b44f00d)" style="fill: #1d6ea6; fill-opacity: 0.3; stroke: #4169e1; stroke-width: 0.5"/>
    <path d="M 157.223043 193.004018 
L 161.124325 190.145348 
L 165.06825 195.51411 
L 167.111734 198.343439 
L 169.130894 193.714385 
L 165.209535 190.34248 
L 161.323972 195.005333 
L 159.360125 211.062175 
z
" clip-path="url(#pd91b44f00d)" style="fill: #185c8b; fill-opacity: 0.3; stroke: #4169e1; stroke-width: 0.5"/>
    <path d="M 137.46725 189.455164 
L 141.353001 189.761789 
L 145.304262 195.861407 
L 147.343473 191.156477 
L 149.417505 191.178534 
L 145.526136 189.98245 
L 141.622018 186.776707 
L 139.604947 193.104436 
z
" clip-path="url(#pd91b44f00d)" style="fill: #144c73; fill-opacity: 0.3; stroke: #4169e1; stroke-width: 0.5"/>
    <path d="M 220.525142 193.08564 
L 224.498716 195.049271 
L 228.404787 201.079434 
L 230.49361 190.324595 
L 232.301442 194.185505 
L 228.441325 186.253912 
L 224.390486 189.081587 
L 222.421398 193.517189 
z
" clip-path="url(#pd91b44f00d)" style="fill: #185a89; fill-opacity: 0.3; stroke: #4169e1; stroke-width: 0.5"/>
    <path d="M 240.312767 195.723551 
L 244.378456 194.589697 
L 246.349866 189.665226 
L 247.966693 198.934508 
L 244.073089 193.483094 
L 242.193301 194.745284 
z
" clip-path="url(#pd91b44f00d)" style="fill: #1b699f; fill-opacity: 0.3; stroke: #4169e1; stroke-width: 0.5"/>
    <path d="M 93.925207 195.498249 
L 97.783237 197.166104 
L 101.480601 191.829189 
L 103.698065 193.056964 
L 106.048806 200.731122 
L 102.022691 191.635329 
L 98.3784 198.234267 
L 95.976214 189.823171 
z
" clip-path="url(#pd91b44f00d)" style="fill: #1a6497; fill-opacity: 0.3; stroke: #4169e1; stroke-width: 0.5"/>
    <path d="M 125.63333 198.303948 
L 129.497759 198.652864 
L 133.314212 194.617365 
L 135.373757 190.455925 
L 137.46725 189.455164 
L 133.647632 193.304562 
L 129.775152 192.049208 
L 127.664161 192.375135 
z
" clip-path="url(#pd91b44f00d)" style="fill: #1b679c; fill-opacity: 0.3; stroke: #4169e1; stroke-width: 0.5"/>
    <path d="M 208.619053 199.057776 
L 212.629145 197.325357 
L 216.644875 196.365392 
L 218.514817 199.637476 
L 220.525142 193.08564 
L 216.503155 194.988824 
L 212.623022 187.269321 
L 210.587446 195.94523 
z
" clip-path="url(#pd91b44f00d)" style="fill: #1a6598; fill-opacity: 0.3; stroke: #4169e1; stroke-width: 0.5"/>
    <path d="M 113.600068 195.593879 
L 117.502721 198.360851 
L 121.342952 197.278867 
L 123.542753 200.742726 
L 125.63333 198.303948 
L 121.698878 193.276449 
L 117.910309 196.184317 
L 115.751929 195.449376 
z
" clip-path="url(#pd91b44f00d)" style="fill: #185c8b; fill-opacity: 0.3; stroke: #4169e1; stroke-width: 0.5"/>
    <path d="M 145.304262 195.861407 
L 149.210609 196.925931 
L 153.126066 197.997884 
L 155.168859 194.066412 
L 157.223043 193.004018 
L 153.349857 197.176699 
L 149.417505 191.178534 
L 147.343473 191.156477 
z
" clip-path="url(#pd91b44f00d)" style="fill: #155079; fill-opacity: 0.3; stroke: #4169e1; stroke-width: 0.5"/>
    <path d="M 228.404787 201.079434 
L 232.403407 202.192594 
L 236.56868 195.80165 
L 238.354638 199.948208 
L 240.312767 195.723551 
L 236.321639 194.01717 
L 232.301442 194.185505 
L 230.49361 190.324595 
z
" clip-path="url(#pd91b44f00d)" style="fill: #1c6ca3; fill-opacity: 0.3; stroke: #4169e1; stroke-width: 0.5"/>
    <path d="M 196.774386 198.184502 
L 200.777868 195.288745 
L 204.783717 194.070271 
L 206.648893 201.87788 
L 208.619053 199.057776 
L 204.69658 193.937852 
L 200.719943 194.641177 
L 198.718349 200.254647 
z
" clip-path="url(#pd91b44f00d)" style="fill: #1a6599; fill-opacity: 0.3; stroke: #4169e1; stroke-width: 0.5"/>
    <path d="M 101.480601 191.829189 
L 105.535233 201.116285 
L 109.493059 206.450267 
L 111.554341 201.342979 
L 113.600068 195.593879 
L 109.871212 200.789969 
L 106.048806 200.731122 
L 103.698065 193.056964 
z
" clip-path="url(#pd91b44f00d)" style="fill: #0e3753; fill-opacity: 0.3; stroke: #4169e1; stroke-width: 0.5"/>
    <path d="M 165.06825 195.51411 
L 169.008079 199.599756 
L 172.947307 195.022377 
L 174.969855 201.381883 
L 176.987672 196.080216 
L 173.054403 192.063215 
L 169.130894 193.714385 
L 167.111734 198.343439 
z
" clip-path="url(#pd91b44f00d)" style="fill: #196294; fill-opacity: 0.3; stroke: #4169e1; stroke-width: 0.5"/>
    <path d="M 216.644875 196.365392 
L 220.663296 196.172972 
L 224.611851 200.832151 
L 226.499167 201.729749 
L 228.404787 201.079434 
L 224.498716 195.049271 
L 220.525142 193.08564 
L 218.514817 199.637476 
z
" clip-path="url(#pd91b44f00d)" style="fill: #16547f; fill-opacity: 0.3; stroke: #4169e1; stroke-width: 0.5"/>
    <path d="M 184.899703 193.137272 
L 188.825602 202.269223 
L 192.781537 204.829193 
L 194.793194 199.696589 
L 196.774386 198.184502 
L 192.852972 191.350443 
L 188.858757 197.627777 
L 186.859587 201.197261 
z
" clip-path="url(#pd91b44f00d)" style="fill: #144c72; fill-opacity: 0.3; stroke: #4169e1; stroke-width: 0.5"/>
    <path d="M 121.342952 197.278867 
L 125.446763 211.650752 
L 129.160113 201.392865 
L 131.21572 196.303453 
L 133.314212 194.617365 
L 129.497759 198.652864 
L 125.63333 198.303948 
L 123.542753 200.742726 
z
" clip-path="url(#pd91b44f00d)" style="fill: #144d74; fill-opacity: 0.3; stroke: #4169e1; stroke-width: 0.5"/>
    <path d="M 133.314212 194.617365 
L 137.248992 198.519313 
L 141.198021 203.58294 
L 143.221977 196.621664 
L 145.304262 195.861407 
L 141.353001 189.761789 
L 137.46725 189.455164 
L 135.373757 190.455925 
z
" clip-path="url(#pd91b44f00d)" style="fill: #165581; fill-opacity: 0.3; stroke: #4169e1; stroke-width: 0.5"/>
    <path d="M 153.126066 197.997884 
L 157.083818 205.096761 
L 161.001594 204.266746 
L 163.04292 201.653262 
L 165.06825 195.51411 
L 161.124325 190.145348 
L 157.223043 193.004018 
L 155.168859 194.066412 
z
" clip-path="url(#pd91b44f00d)" style="fill: #195f90; fill-opacity: 0.3; stroke: #4169e1; stroke-width: 0.5"/>
    <path d="M 236.56868 195.80165 
L 240.465374 202.760755 
L 242.429538 198.422217 
L 244.378456 194.589697 
L 240.312767 195.723551 
L 238.354638 199.948208 
z
" clip-path="url(#pd91b44f00d)" style="fill: #13486d; fill-opacity: 0.3; stroke: #4169e1; stroke-width: 0.5"/>
    <path d="M 172.947307 195.022377 
L 176.880544 217.57285 
L 180.874702 195.480479 
L 182.867453 201.944198 
L 184.899703 193.137272 
L 180.927234 198.090569 
L 176.987672 196.080216 
L 174.969855 201.381883 
z
" clip-path="url(#pd91b44f00d)" style="fill: #144d75; fill-opacity: 0.3; stroke: #4169e1; stroke-width: 0.5"/>
    <path d="M 204.783717 194.070271 
L 208.712795 200.715837 
L 212.676556 204.279207 
L 214.683781 198.783077 
L 216.644875 196.365392 
L 212.629145 197.325357 
L 208.619053 199.057776 
L 206.648893 201.87788 
z
" clip-path="url(#pd91b44f00d)" style="fill: #114163; fill-opacity: 0.3; stroke: #4169e1; stroke-width: 0.5"/>
    <path d="M 109.493059 206.450267 
L 113.152156 197.047258 
L 117.168184 204.675207 
L 119.308568 203.769624 
L 121.342952 197.278867 
L 117.502721 198.360851 
L 113.600068 195.593879 
L 111.554341 201.342979 
z
" clip-path="url(#pd91b44f00d)" style="fill: #1d6ea6; fill-opacity: 0.3; stroke: #4169e1; stroke-width: 0.5"/>
    <path d="M 141.198021 203.58294 
L 145.0446 198.013744 
L 148.954488 196.938347 
L 151.05958 199.340507 
L 153.126066 197.997884 
L 149.210609 196.925931 
L 145.304262 195.861407 
L 143.221977 196.621664 
z
" clip-path="url(#pd91b44f00d)" style="fill: #1c6aa1; fill-opacity: 0.3; stroke: #4169e1; stroke-width: 0.5"/>
    <path d="M 224.611851 200.832151 
L 228.553865 205.833031 
L 232.722089 199.303504 
L 234.653052 197.339165 
L 236.56868 195.80165 
L 232.403407 202.192594 
L 228.404787 201.079434 
L 226.499167 201.729749 
z
" clip-path="url(#pd91b44f00d)" style="fill: #16547f; fill-opacity: 0.3; stroke: #4169e1; stroke-width: 0.5"/>
    <path d="M 192.781537 204.829193 
L 196.833598 195.662389 
L 200.772137 203.032071 
L 202.731656 203.475962 
L 204.783717 194.070271 
L 200.777868 195.288745 
L 196.774386 198.184502 
L 194.793194 199.696589 
z
" clip-path="url(#pd91b44f00d)" style="fill: #1d70a9; fill-opacity: 0.3; stroke: #4169e1; stroke-width: 0.5"/>
    <path d="M 161.001594 204.266746 
L 164.931947 202.895602 
L 168.870933 197.062298 
L 170.917667 201.06269 
L 172.947307 195.022377 
L 169.008079 199.599756 
L 165.06825 195.51411 
L 163.04292 201.653262 
z
" clip-path="url(#pd91b44f00d)" style="fill: #1a6599; fill-opacity: 0.3; stroke: #4169e1; stroke-width: 0.5"/>
    <path d="M 129.160113 201.392865 
L 132.992306 197.081593 
L 137.026717 207.425531 
L 139.032493 198.255768 
L 141.198021 203.58294 
L 137.248992 198.519313 
L 133.314212 194.617365 
L 131.21572 196.303453 
z
" clip-path="url(#pd91b44f00d)" style="fill: #165682; fill-opacity: 0.3; stroke: #4169e1; stroke-width: 0.5"/>
    <path d="M 117.168184 204.675207 
L 121.024036 203.626992 
L 124.934814 205.061571 
L 127.058954 203.727396 
L 129.160113 201.392865 
L 125.446763 211.650752 
L 121.342952 197.278867 
L 119.308568 203.769624 
z
" clip-path="url(#pd91b44f00d)" style="fill: #124569; fill-opacity: 0.3; stroke: #4169e1; stroke-width: 0.5"/>
    <path d="M 148.954488 196.938347 
L 152.934527 203.893249 
L 156.893309 208.158943 
L 158.951219 206.266367 
L 161.001594 204.266746 
L 157.083818 205.096761 
L 153.126066 197.997884 
L 151.05958 199.340507 
z
" clip-path="url(#pd91b44f00d)" style="fill: #0f3855; fill-opacity: 0.3; stroke: #4169e1; stroke-width: 0.5"/>
    <path d="M 212.676556 204.279207 
L 216.721645 202.38132 
L 220.695032 206.1414 
L 222.714949 199.904391 
L 224.611851 200.832151 
L 220.663296 196.172972 
L 216.644875 196.365392 
L 214.683781 198.783077 
z
" clip-path="url(#pd91b44f00d)" style="fill: #1b699f; fill-opacity: 0.3; stroke: #4169e1; stroke-width: 0.5"/>
    <path d="M 180.874702 195.480479 
L 184.808584 208.240259 
L 188.81074 203.296427 
L 190.82193 200.480015 
L 192.781537 204.829193 
L 188.825602 202.269223 
L 184.899703 193.137272 
L 182.867453 201.944198 
z
" clip-path="url(#pd91b44f00d)" style="fill: #103d5c; fill-opacity: 0.3; stroke: #4169e1; stroke-width: 0.5"/>
    <path d="M 232.722089 199.303504 
L 236.702168 203.126159 
L 238.472675 208.260018 
L 240.465374 202.760755 
L 236.56868 195.80165 
L 234.653052 197.339165 
z
" clip-path="url(#pd91b44f00d)" style="fill: #0f3a58; fill-opacity: 0.3; stroke: #4169e1; stroke-width: 0.5"/>
    <path d="M 200.772137 203.032071 
L 204.759881 204.960875 
L 208.734693 208.592918 
L 210.775075 201.095585 
L 212.676556 204.279207 
L 208.712795 200.715837 
L 204.783717 194.070271 
L 202.731656 203.475962 
z
" clip-path="url(#pd91b44f00d)" style="fill: #165581; fill-opacity: 0.3; stroke: #4169e1; stroke-width: 0.5"/>
    <path d="M 168.870933 197.062298 
L 172.840362 203.171628 
L 176.807543 207.614072 
L 178.841341 201.801079 
L 180.874702 195.480479 
L 176.880544 217.57285 
L 172.947307 195.022377 
L 170.917667 201.06269 
z
" clip-path="url(#pd91b44f00d)" style="fill: #0d314b; fill-opacity: 0.3; stroke: #4169e1; stroke-width: 0.5"/>
    <path d="M 137.026717 207.425531 
L 140.861792 200.88733 
L 144.886054 211.015927 
L 146.909275 202.74141 
L 148.954488 196.938347 
L 145.0446 198.013744 
L 141.198021 203.58294 
L 139.032493 198.255768 
z
" clip-path="url(#pd91b44f00d)" style="fill: #1b679c; fill-opacity: 0.3; stroke: #4169e1; stroke-width: 0.5"/>
    <path d="M 156.893309 208.158943 
L 160.822675 205.332198 
L 164.784843 207.007039 
L 166.836564 205.250589 
L 168.870933 197.062298 
L 164.931947 202.895602 
L 161.001594 204.266746 
L 158.951219 206.266367 
z
" clip-path="url(#pd91b44f00d)" style="fill: #1b679c; fill-opacity: 0.3; stroke: #4169e1; stroke-width: 0.5"/>
    <path d="M 188.81074 203.296427 
L 192.808602 202.973741 
L 196.767556 209.357312 
L 198.800456 202.864346 
L 200.772137 203.032071 
L 196.833598 195.662389 
L 192.781537 204.829193 
L 190.82193 200.480015 
z
" clip-path="url(#pd91b44f00d)" style="fill: #195f90; fill-opacity: 0.3; stroke: #4169e1; stroke-width: 0.5"/>
    <path d="M 220.695032 206.1414 
L 224.841044 199.933259 
L 228.88348 200.921386 
L 230.759522 202.586956 
L 232.722089 199.303504 
L 228.553865 205.833031 
L 224.611851 200.832151 
L 222.714949 199.904391 
z
" clip-path="url(#pd91b44f00d)" style="fill: #185a88; fill-opacity: 0.3; stroke: #4169e1; stroke-width: 0.5"/>
    <path d="M 124.934814 205.061571 
L 128.761577 200.329212 
L 132.682832 200.739766 
L 134.877181 205.243624 
L 137.026717 207.425531 
L 132.992306 197.081593 
L 129.160113 201.392865 
L 127.058954 203.727396 
z
" clip-path="url(#pd91b44f00d)" style="fill: #1d6ea6; fill-opacity: 0.3; stroke: #4169e1; stroke-width: 0.5"/>
    <path d="M 208.734693 208.592918 
L 212.828871 203.311064 
L 216.884093 202.566274 
L 218.767381 206.200777 
L 220.695032 206.1414 
L 216.721645 202.38132 
L 212.676556 204.279207 
L 210.775075 201.095585 
z
" clip-path="url(#pd91b44f00d)" style="fill: #1b699f; fill-opacity: 0.3; stroke: #4169e1; stroke-width: 0.5"/>
    <path d="M 176.807543 207.614072 
L 180.782805 208.855865 
L 184.766493 210.227479 
L 186.80482 203.639189 
L 188.81074 203.296427 
L 184.808584 208.240259 
L 180.874702 195.480479 
L 178.841341 201.801079 
z
" clip-path="url(#pd91b44f00d)" style="fill: #15517b; fill-opacity: 0.3; stroke: #4169e1; stroke-width: 0.5"/>
    <path d="M 144.886054 211.015927 
L 148.784946 207.780237 
L 152.722989 207.205462 
L 154.800071 205.5586 
L 156.893309 208.158943 
L 152.934527 203.893249 
L 148.954488 196.938347 
L 146.909275 202.74141 
z
" clip-path="url(#pd91b44f00d)" style="fill: #1c6ca4; fill-opacity: 0.3; stroke: #4169e1; stroke-width: 0.5"/>
    <path d="M 196.767556 209.357312 
L 200.759804 211.552661 
L 204.759484 213.652557 
L 206.824003 204.464109 
L 208.734693 208.592918 
L 204.759881 204.960875 
L 200.772137 203.032071 
L 198.800456 202.864346 
z
" clip-path="url(#pd91b44f00d)" style="fill: #185d8d; fill-opacity: 0.3; stroke: #4169e1; stroke-width: 0.5"/>
    <path d="M 228.88348 200.921386 
L 232.870622 205.194869 
L 234.719169 207.635397 
L 236.702168 203.126159 
L 232.722089 199.303504 
L 230.759522 202.586956 
z
" clip-path="url(#pd91b44f00d)" style="fill: #0f3b5a; fill-opacity: 0.3; stroke: #4169e1; stroke-width: 0.5"/>
    <path d="M 132.682832 200.739766 
L 136.705728 208.503027 
L 140.653587 210.210766 
L 142.816474 214.626389 
L 144.886054 211.015927 
L 140.861792 200.88733 
L 137.026717 207.425531 
L 134.877181 205.243624 
z
" clip-path="url(#pd91b44f00d)" style="fill: #13496f; fill-opacity: 0.3; stroke: #4169e1; stroke-width: 0.5"/>
    <path d="M 164.784843 207.007039 
L 168.745529 202.978474 
L 172.73224 209.882985 
L 174.772998 211.087969 
L 176.807543 207.614072 
L 172.840362 203.171628 
L 168.870933 197.062298 
L 166.836564 205.250589 
z
" clip-path="url(#pd91b44f00d)" style="fill: #195e8f; fill-opacity: 0.3; stroke: #4169e1; stroke-width: 0.5"/>
    <path d="M 184.766493 210.227479 
L 188.776269 208.159069 
L 192.773051 210.896079 
L 194.731926 216.129343 
L 196.767556 209.357312 
L 192.808602 202.973741 
L 188.81074 203.296427 
L 186.80482 203.639189 
z
" clip-path="url(#pd91b44f00d)" style="fill: #1c6aa0; fill-opacity: 0.3; stroke: #4169e1; stroke-width: 0.5"/>
    <path d="M 152.722989 207.205462 
L 156.690037 209.347449 
L 160.647756 207.825921 
L 162.744551 213.926615 
L 164.784843 207.007039 
L 160.822675 205.332198 
L 156.893309 208.158943 
L 154.800071 205.5586 
z
" clip-path="url(#pd91b44f00d)" style="fill: #185c8b; fill-opacity: 0.3; stroke: #4169e1; stroke-width: 0.5"/>
    <path d="M 216.884093 202.566274 
L 220.864439 207.471913 
L 224.856493 211.647562 
L 226.909536 204.125912 
L 228.88348 200.921386 
L 224.841044 199.933259 
L 220.695032 206.1414 
L 218.767381 206.200777 
z
" clip-path="url(#pd91b44f00d)" style="fill: #15507a; fill-opacity: 0.3; stroke: #4169e1; stroke-width: 0.5"/>
    <path d="M 172.73224 209.882985 
L 176.712941 216.660418 
L 180.719 210.387419 
L 182.749969 209.499688 
L 184.766493 210.227479 
L 180.782805 208.855865 
L 176.807543 207.614072 
L 174.772998 211.087969 
z
" clip-path="url(#pd91b44f00d)" style="fill: #175987; fill-opacity: 0.3; stroke: #4169e1; stroke-width: 0.5"/>
    <path d="M 140.653587 210.210766 
L 144.595964 210.568732 
L 148.567553 213.074347 
L 150.642991 209.462463 
L 152.722989 207.205462 
L 148.784946 207.780237 
L 144.886054 211.015927 
L 142.816474 214.626389 
z
" clip-path="url(#pd91b44f00d)" style="fill: #185a89; fill-opacity: 0.3; stroke: #4169e1; stroke-width: 0.5"/>
    <path d="M 204.759484 213.652557 
L 208.846926 208.883595 
L 212.819744 214.75782 
L 214.83954 209.605421 
L 216.884093 202.566274 
L 212.828871 203.311064 
L 208.734693 208.592918 
L 206.824003 204.464109 
z
" clip-path="url(#pd91b44f00d)" style="fill: #1c6ca4; fill-opacity: 0.3; stroke: #4169e1; stroke-width: 0.5"/>
    <path d="M 192.773051 210.896079 
L 196.799834 210.419013 
L 200.825259 211.595547 
L 202.849683 207.317322 
L 204.759484 213.652557 
L 200.759804 211.552661 
L 196.767556 209.357312 
L 194.731926 216.129343 
z
" clip-path="url(#pd91b44f00d)" style="fill: #16537e; fill-opacity: 0.3; stroke: #4169e1; stroke-width: 0.5"/>
    <path d="M 224.856493 211.647562 
L 228.881752 214.094081 
L 230.903679 208.298346 
L 232.870622 205.194869 
L 228.88348 200.921386 
L 226.909536 204.125912 
z
" clip-path="url(#pd91b44f00d)" style="fill: #1a6599; fill-opacity: 0.3; stroke: #4169e1; stroke-width: 0.5"/>
    <path d="M 160.647756 207.825921 
L 164.637744 211.642121 
L 168.622936 211.290475 
L 170.682537 211.155689 
L 172.73224 209.882985 
L 168.745529 202.978474 
L 164.784843 207.007039 
L 162.744551 213.926615 
z
" clip-path="url(#pd91b44f00d)" style="fill: #196091; fill-opacity: 0.3; stroke: #4169e1; stroke-width: 0.5"/>
    <path d="M 180.719 210.387419 
L 184.720829 213.067325 
L 188.746368 212.104272 
L 190.731742 217.12095 
L 192.773051 210.896079 
L 188.776269 208.159069 
L 184.766493 210.227479 
L 182.749969 209.499688 
z
" clip-path="url(#pd91b44f00d)" style="fill: #185b8a; fill-opacity: 0.3; stroke: #4169e1; stroke-width: 0.5"/>
    <path d="M 212.819744 214.75782 
L 216.9783 207.595684 
L 220.896192 217.614228 
L 222.990259 207.897822 
L 224.856493 211.647562 
L 220.864439 207.471913 
L 216.884093 202.566274 
L 214.83954 209.605421 
z
" clip-path="url(#pd91b44f00d)" style="fill: #1b669a; fill-opacity: 0.3; stroke: #4169e1; stroke-width: 0.5"/>
    <path d="M 148.567553 213.074347 
L 152.511064 210.808147 
L 156.485325 210.718591 
L 158.583431 211.847928 
L 160.647756 207.825921 
L 156.690037 209.347449 
L 152.722989 207.205462 
L 150.642991 209.462463 
z
" clip-path="url(#pd91b44f00d)" style="fill: #1a6396; fill-opacity: 0.3; stroke: #4169e1; stroke-width: 0.5"/>
    <path d="M 168.622936 211.290475 
L 172.621977 212.692869 
L 176.624824 218.822102 
L 178.673517 214.822429 
L 180.719 210.387419 
L 176.712941 216.660418 
L 172.73224 209.882985 
L 170.682537 211.155689 
z
" clip-path="url(#pd91b44f00d)" style="fill: #103f60; fill-opacity: 0.3; stroke: #4169e1; stroke-width: 0.5"/>
    <path d="M 200.825259 211.595547 
L 204.860249 212.747867 
L 208.894327 214.772912 
L 210.906516 211.179538 
L 212.819744 214.75782 
L 208.846926 208.883595 
L 204.759484 213.652557 
L 202.849683 207.317322 
z
" clip-path="url(#pd91b44f00d)" style="fill: #185b89; fill-opacity: 0.3; stroke: #4169e1; stroke-width: 0.5"/>
    <path d="M 220.896192 217.614228 
L 225.052946 212.923917 
L 226.988347 212.612545 
L 228.881752 214.094081 
L 224.856493 211.647562 
L 222.990259 207.897822 
z
" clip-path="url(#pd91b44f00d)" style="fill: #1d6ea6; fill-opacity: 0.3; stroke: #4169e1; stroke-width: 0.5"/>
    <path d="M 188.746368 212.104272 
L 192.727951 220.320811 
L 196.814671 213.783045 
L 198.774842 218.502293 
L 200.825259 211.595547 
L 196.799834 210.419013 
L 192.773051 210.896079 
L 190.731742 217.12095 
z
" clip-path="url(#pd91b44f00d)" style="fill: #175a88; fill-opacity: 0.3; stroke: #4169e1; stroke-width: 0.5"/>
    <path d="M 156.485325 210.718591 
L 160.511355 219.564292 
L 164.49583 218.482075 
L 166.562662 215.239811 
L 168.622936 211.290475 
L 164.637744 211.642121 
L 160.647756 207.825921 
L 158.583431 211.847928 
z
" clip-path="url(#pd91b44f00d)" style="fill: #13496f; fill-opacity: 0.3; stroke: #4169e1; stroke-width: 0.5"/>
    <path d="M 208.894327 214.772912 
L 212.960299 214.918447 
L 217.011176 216.941601 
L 218.876244 222.684953 
L 220.896192 217.614228 
L 216.9783 207.595684 
L 212.819744 214.75782 
L 210.906516 211.179538 
z
" clip-path="url(#pd91b44f00d)" style="fill: #1b679c; fill-opacity: 0.3; stroke: #4169e1; stroke-width: 0.5"/>
    <path d="M 176.624824 218.822102 
L 180.639807 218.117981 
L 184.687778 212.415631 
L 186.713797 214.081597 
L 188.746368 212.104272 
L 184.720829 213.067325 
L 180.719 210.387419 
L 178.673517 214.822429 
z
" clip-path="url(#pd91b44f00d)" style="fill: #1b689d; fill-opacity: 0.3; stroke: #4169e1; stroke-width: 0.5"/>
    <path d="M 217.011176 216.941601 
L 221.030921 221.367133 
L 223.006162 219.415609 
L 225.052946 212.923917 
L 220.896192 217.614228 
L 218.876244 222.684953 
z
" clip-path="url(#pd91b44f00d)" style="fill: #13496e; fill-opacity: 0.3; stroke: #4169e1; stroke-width: 0.5"/>
    <path d="M 196.814671 213.783045 
L 200.798965 221.762092 
L 204.929368 214.970154 
L 206.836243 222.05579 
L 208.894327 214.772912 
L 204.860249 212.747867 
L 200.825259 211.595547 
L 198.774842 218.502293 
z
" clip-path="url(#pd91b44f00d)" style="fill: #175885; fill-opacity: 0.3; stroke: #4169e1; stroke-width: 0.5"/>
    <path d="M 164.49583 218.482075 
L 168.499363 219.593616 
L 172.512741 221.725792 
L 174.574277 215.552109 
L 176.624824 218.822102 
L 172.621977 212.692869 
L 168.622936 211.290475 
L 166.562662 215.239811 
z
" clip-path="url(#pd91b44f00d)" style="fill: #1a6295; fill-opacity: 0.3; stroke: #4169e1; stroke-width: 0.5"/>
    <path d="M 184.687778 212.415631 
L 188.725652 214.220376 
L 192.747922 219.649994 
L 194.489184 258.187557 
L 196.814671 213.783045 
L 192.727951 220.320811 
L 188.746368 212.104272 
L 186.713797 214.081597 
z
" clip-path="url(#pd91b44f00d)" style="fill: #103c5a; fill-opacity: 0.3; stroke: #4169e1; stroke-width: 0.5"/>
    <path d="M 192.747922 219.649994 
L 196.729763 229.990661 
L 200.8742 220.896947 
L 202.832094 225.302358 
L 204.929368 214.970154 
L 200.798965 221.762092 
L 196.814671 213.783045 
L 194.489184 258.187557 
z
" clip-path="url(#pd91b44f00d)" style="fill: #144f77; fill-opacity: 0.3; stroke: #4169e1; stroke-width: 0.5"/>
    <path d="M 172.512741 221.725792 
L 176.536654 220.062285 
L 180.550401 230.001189 
L 182.619032 220.856184 
L 184.687778 212.415631 
L 180.639807 218.117981 
L 176.624824 218.822102 
L 174.574277 215.552109 
z
" clip-path="url(#pd91b44f00d)" style="fill: #16547f; fill-opacity: 0.3; stroke: #4169e1; stroke-width: 0.5"/>
    <path d="M 204.929368 214.970154 
L 208.932816 221.498809 
L 213.056823 218.538565 
L 214.929377 225.56278 
L 217.011176 216.941601 
L 212.960299 214.918447 
L 208.894327 214.772912 
L 206.836243 222.05579 
z
" clip-path="url(#pd91b44f00d)" style="fill: #15527c; fill-opacity: 0.3; stroke: #4169e1; stroke-width: 0.5"/>
    <path d="M 213.056823 218.538565 
L 217.11602 221.441273 
L 219.044177 223.627 
L 221.030921 221.367133 
L 217.011176 216.941601 
L 214.929377 225.56278 
z
" clip-path="url(#pd91b44f00d)" style="fill: #103f5f; fill-opacity: 0.3; stroke: #4169e1; stroke-width: 0.5"/>
    <path d="M 180.550401 230.001189 
L 184.600786 226.182164 
L 188.669117 223.375101 
L 190.710568 221.785259 
L 192.747922 219.649994 
L 188.725652 214.220376 
L 184.687778 212.415631 
L 182.619032 220.856184 
z
" clip-path="url(#pd91b44f00d)" style="fill: #1f75b1; fill-opacity: 0.3; stroke: #4169e1; stroke-width: 0.5"/>
    <path d="M 200.8742 220.896947 
L 204.840473 232.282974 
L 209.001057 225.810024 
L 210.987016 225.693203 
L 213.056823 218.538565 
L 208.932816 221.498809 
L 204.929368 214.970154 
L 202.832094 225.302358 
z
" clip-path="url(#pd91b44f00d)" style="fill: #144e76; fill-opacity: 0.3; stroke: #4169e1; stroke-width: 0.5"/>
    <path d="M 188.669117 223.375101 
L 192.732795 224.460547 
L 196.824371 223.233454 
L 198.820162 225.974752 
L 200.8742 220.896947 
L 196.729763 229.990661 
L 192.747922 219.649994 
L 190.710568 221.785259 
z
" clip-path="url(#pd91b44f00d)" style="fill: #12476b; fill-opacity: 0.3; stroke: #4169e1; stroke-width: 0.5"/>
    <path d="M 209.001057 225.810024 
L 213.12034 224.753475 
L 215.05828 227.65007 
L 217.11602 221.441273 
L 213.056823 218.538565 
L 210.987016 225.693203 
z
" clip-path="url(#pd91b44f00d)" style="fill: #144c73; fill-opacity: 0.3; stroke: #4169e1; stroke-width: 0.5"/>
    <path d="M 196.824371 223.233454 
L 200.834369 232.650009 
L 204.975896 228.387719 
L 207.056519 221.402187 
L 209.001057 225.810024 
L 204.840473 232.282974 
L 200.8742 220.896947 
L 198.820162 225.974752 
z
" clip-path="url(#pd91b44f00d)" style="fill: #103d5c; fill-opacity: 0.3; stroke: #4169e1; stroke-width: 0.5"/>
    <path d="M 204.975896 228.387719 
L 209.118675 226.091593 
L 211.121379 225.621863 
L 213.12034 224.753475 
L 209.001057 225.810024 
L 207.056519 221.402187 
z
" clip-path="url(#pd91b44f00d)" style="fill: #1a6497; fill-opacity: 0.3; stroke: #4169e1; stroke-width: 0.5"/>
   </g>
  </g>
 </g>
 <defs>
  <clipPath id="pd91b44f00d">
   <rect x="7.2" y="7.2" width="324" height="324"/>
  </clipPath>
 </defs>
</svg>
