<?xml version="1.0" encoding="UTF-8"?>
<svg xmlns="http://www.w3.org/2000/svg" version="1.1" viewBox="0 0 113.3858 56.6924">
  <!-- Generator: Adobe Illustrator 28.7.1, SVG Export Plug-In . SVG Version: 1.2.0 Build 142)  -->
  <g>
    <g id="Capa_1">
      <g>
        <path d="M96.8107,13.9622c-1.3268,0-2.4026,1.0754-2.4026,2.4022s1.0758,2.4023,2.4026,2.4023,2.4019-1.0758,2.4019-2.4023-1.0753-2.4022-2.4019-2.4022" fill="#682145"/>
        <path d="M91.6332,19.4008c-.8204,0-1.486.6645-1.486,1.4852,0,.8215.6656,1.4862,1.486,1.4862s1.4859-.6647,1.4859-1.4862c0-.8207-.6652-1.4852-1.4859-1.4852" fill="#682145"/>
        <path d="M18.8012,38.849v-.0162c0-1.1862-.8374-2.0069-2.2225-2.0069h-2.3716v5.8048h1.2769v-1.7414h.9703c1.3019,0,2.3469-.6965,2.3469-2.0403M17.5073,38.8742c0,.4974-.3729.879-1.0116.879h-1.0117v-1.7748h.9867c.6388,0,1.0366.3067,1.0366.8794v.0164ZM25.4431,42.6307l-2.4878-5.8464h-1.1777l-2.4878,5.8464h1.3019l.5308-1.3019h2.4549l.5307,1.3019h1.335ZM23.1214,40.201h-1.5424l.771-1.8828.7714,1.8828ZM31.9779,42.6307l-1.4178-2.0735c.7379-.2732,1.2435-.862,1.2435-1.7989v-.017c0-1.1941-.8207-1.9154-2.1888-1.9154h-2.6541v5.8048h1.2774v-1.8573h1.0032l1.244,1.8573h1.4926ZM30.5102,38.8241c0,.4894-.3565.8212-.9787.8212h-1.2934v-1.6669h1.2684c.6223,0,1.0037.2817,1.0037.8292v.0165ZM34.9137,36.8259h-1.2769v5.8048h1.2769v-5.8048ZM41.1832,40.9143v-.017c0-1.0117-.6637-1.4342-1.8411-1.7414-1.0032-.2568-1.2523-.3814-1.2523-.7626v-.0164c0-.2825.257-.5064.7464-.5064s.9953.2156,1.5093.5724l.6634-.9621c-.5886-.4726-1.3103-.7379-2.1562-.7379-1.1857,0-2.0316.6966-2.0316,1.7499v.0164c0,1.1525.7547,1.4759,1.9242,1.7748.97.2488,1.1689.4146,1.1689.7377v.0167c0,.3403-.3151.5477-.8374.5477-.6636,0-1.2109-.274-1.7331-.7053l-.7547.9043c.6963.6217,1.5836.9289,2.4629.9289,1.252,0,2.1313-.6472,2.1313-1.7997M45.1887,39.4543h-2.5543v1.2109h2.5543v-1.2109ZM51.1182,40.9143v-.017c0-1.0117-.6637-1.4342-1.8411-1.7414-1.0035-.2568-1.2525-.3814-1.2525-.7626v-.0164c0-.2825.2572-.5064.7466-.5064.4889,0,.9953.2156,1.5091.5724l.6636-.9621c-.5889-.4726-1.3103-.7379-2.1562-.7379-1.186,0-2.0319.6966-2.0319,1.7499v.0164c0,1.1525.755,1.4759,1.9239,1.7748.9703.2488,1.1693.4146,1.1693.7377v.0167c0,.3403-.3152.5477-.8375.5477-.6633,0-1.2106-.274-1.7331-.7053l-.7549.9043c.6968.6217,1.5841.9289,2.4631.9289,1.2523,0,2.1316-.6472,2.1316-1.7997M58.3834,42.6307l-2.488-5.8464h-1.1775l-2.4875,5.8464h1.3018l.5308-1.3019h2.4546l.5308,1.3019h1.335ZM56.0614,40.201h-1.5424l.7711-1.8828.7713,1.8828ZM64.6288,41.6938l-.8128-.8212c-.4562.4146-.8623.6798-1.526.6798-.9952,0-1.6832-.8289-1.6832-1.8241v-.0167c0-.9952.7047-1.8077,1.6832-1.8077.5804,0,1.0367.2488,1.4847.6552l.8124-.9372c-.539-.5307-1.1939-.8954-2.2888-.8954-1.7828,0-3.0271,1.3514-3.0271,3.0018v.0165c0,1.6668,1.269,2.9854,2.9775,2.9854,1.1196,0,1.783-.3979,2.3801-1.0364M70.4423,42.6307v-1.161h-2.8947v-4.6438h-1.2769v5.8048h4.1716ZM77.6818,42.6307l-2.4881-5.8464h-1.1774l-2.4883,5.8464h1.3024l.5307-1.3019h2.4544l.531,1.3019h1.3353ZM75.3595,40.201h-1.5421l.771-1.8828.7711,1.8828ZM83.4274,36.8259h-1.4509l-1.4101,2.33-1.3843-2.33h-1.4931l2.2307,3.5159v2.2889h1.277v-2.3138l2.2307-3.491Z" fill="#682145"/>
        <rect x="35.8155" y="24.895" width="1.5976" height="8.9971" fill="#682145"/>
        <path d="M51.2541,28.7626c.2194-1.5727,1.292-2.6567,2.6546-2.6567,1.6873,0,2.4462,1.3429,2.6069,2.6567h-5.2615ZM53.9424,24.7101c-2.4639,0-4.3217,2.0172-4.3217,4.6918s1.9302,4.6917,4.4899,4.6917c1.5125,0,2.6517-.5185,3.6941-1.6814l.1014-.1127-1.0289-.922-.1016.1061c-.7687.8055-1.6051,1.1806-2.6313,1.1806-1.5231,0-2.6666-1.0536-2.8902-2.64h6.8599l.0146-.1345c.0178-.16.0178-.2984.0178-.4205,0-2.8466-1.6894-4.7591-4.204-4.7591" fill="#682145"/>
        <path d="M20.4793,30.0243c0,1.5148-1.0095,2.5726-2.4552,2.5726-1.4111,0-2.2533-.9238-2.2533-2.4718v-5.23h-1.5976v5.5496c0,2.2064,1.3666,3.6321,3.4809,3.6321,1.1836,0,2.1122-.4483,2.8252-1.3671v1.1822h1.5809v-8.9968h-1.5809v5.1292Z" fill="#682145"/>
        <path d="M29.4255,24.7101c-1.1801,0-2.1284.4573-2.8252,1.3607v-1.1758h-1.5976v8.9971h1.5976v-5.1289c0-1.5152,1.0096-2.5733,2.4552-2.5733,1.4111,0,2.2533.9242,2.2533,2.4719v5.2303h1.5976v-5.5494c0-2.2066-1.3663-3.6326-3.4809-3.6326" fill="#682145"/>
        <polygon points="44.106 31.8589 41.2816 24.895 39.5206 24.895 43.4174 33.9592 44.7601 33.9592 48.6744 24.895 46.9468 24.895 44.106 31.8589" fill="#682145"/>
        <path d="M62.0477,26.6948v-1.7997h-1.5976v8.9968h1.5976v-3.6154c0-2.3294,1.2936-3.8342,3.296-3.8342h.2525v-1.6923l-.1454-.0058c-1.3962-.0584-2.6342.6679-3.4031,1.9506" fill="#682145"/>
        <path d="M83.2163,21.9282l-1.5977.8823v2.0846h-1.6875v1.4464h1.6875v5.0949c0,1.6812.926,2.6069,2.6067,2.6069.6053,0,1.1241-.123,1.6331-.3872l.082-.0422v-1.443l-.2172.1048c-.4242.2042-.7703.2878-1.1955.2878-.8947,0-1.3114-.4117-1.3114-1.2952v-4.9268h2.7578v-1.4464h-2.7578v-2.9669Z" fill="#682145"/>
        <path d="M94.3023,28.7626h-5.2615c.2191-1.5727,1.292-2.6567,2.6549-2.6567,1.6867,0,2.4459,1.3429,2.6066,2.6567M91.7291,24.7101c-2.4636,0-4.3217,2.0172-4.3217,4.6918s1.9305,4.6917,4.4899,4.6917c1.5125,0,2.6522-.5185,3.6947-1.6814l.101-.1127-1.0294-.922-.1011.1061c-.7689.8055-1.605,1.1806-2.6315,1.1806-1.5228,0-2.6666-1.0536-2.8902-2.64h6.8594l.0151-.1343c.018-.1599.018-.2986.018-.4207,0-2.8466-1.6893-4.7591-4.2042-4.7591" fill="#682145"/>
        <path d="M70.9707,28.635l-.0321-.0099c-1.0782-.3281-2.0968-.6379-2.0968-1.3756,0-.6636.6148-1.1098,1.5302-1.1098.7913,0,1.6756.2902,2.4905.8165l.131.0849.7443-1.2335-.1212-.0801c-.9324-.6159-2.1329-.9835-3.2111-.9835-1.8316,0-3.1115,1.0857-3.1115,2.64v.0337c0,1.7531,1.726,2.243,2.9868,2.6011,1.166.3257,2.0581.6347,2.0581,1.4177,0,.7345-.6621,1.2276-1.6478,1.2276-.9681,0-1.9774-.3729-2.9188-1.0793l-.1244-.0933-.8284,1.1676.1104.0891c.9989.809,2.4143,1.3119,3.6944,1.3119,1.9411,0,3.2453-1.1084,3.2453-2.7578v-.0339c0-1.7637-1.7448-2.2873-2.8989-2.6334" fill="#682145"/>
        <rect x="76.425" y="24.895" width="1.5979" height="8.9971" fill="#682145"/>
      </g>
    </g>
  </g>
</svg>